<?xml version="1.0" encoding="utf-8"?>
<!-- Generator: Adobe Illustrator 25.2.1, SVG Export Plug-In . SVG Version: 6.00 Build 0)  -->
<svg version="1.1" id="Capa_1" xmlns="http://www.w3.org/2000/svg" xmlns:xlink="http://www.w3.org/1999/xlink" x="0px" y="0px"
	 viewBox="0 0 300 300" style="enable-background:new 0 0 300 300;" xml:space="preserve">
<style type="text/css">
	.st0{fill:#E6E6E6;}
	.st1{fill:#EA4335;}
	.st2{fill:#FFFFFF;}
	.st3{fill:#4853A3;}
	.st4{fill:#F7A280;}
	.st5{fill:#3A3B96;}
	.st6{fill:#4285F4;}
	.st7{fill:#E09476;}
	.st8{fill:#1D145A;}
	.st9{fill:#4D4D4D;}
	.st10{fill:#34A853;}
	.st11{fill:#302D7F;}
	.st12{fill:#B03724;}
	.st13{fill:#EF4923;}
	.st14{fill:#343286;}
	.st15{fill:#FBBC04;}
	.st16{enable-background:new    ;}
	.st17{fill:#262626;}
	.st18{fill:#FFD4B3;}
	.st19{fill:#5E98FF;}
</style>
<path class="st0" d="M51.75,214.15c10.92-13.78,25.19-18.05,32.7-28.14c11.48-15.41-5.22-31.3,8.58-51.46
	c11.14-16.26,26.79-13.54,37.63-14c10.75-0.45,19.14,1.67,26.11-4.06c3.84-3.16,17.23-16.71,31.49-16.71
	c6.14,0,47.23,5.87,41.57,58.21c-1.67,24.76,14.66,26.41,21.02,30.3c24.95,15.24,31.48,67.19-20.57,72.58
	c-25.63,2.65-48.17,30.79-77.77,32.92c-42.35,3.04-34.03-27.08-70.26-25.48C31.3,270.54,42.92,225.29,51.75,214.15z"/>
<path class="st0" d="M202.53,214.45c-13.46-2.26-21.7-10.35-31.37-11.68c-14.77-2.02-19.31,15.28-38.18,13.45
	c-15.22-1.48-19.24-13.13-23.61-20.32c-4.34-7.14-6.03-13.63-12.55-16.22c-3.59-1.42-17.81-5.45-23.15-15.13
	c-2.3-4.17-13.71-34.29,23.98-50.05c17.45-8.14,12.45-19.86,12.71-25.64c1.01-22.67,33.86-46.57,57.03-13.22
	c11.41,16.42,38.97,21.19,51.51,40.52c17.93,27.64-5.65,33.27,9.01,57.29C248.51,207.21,213.42,216.27,202.53,214.45z"/>
<g>
	<g>
		<g>
			<path class="st1" d="M120.98,258.13h59.42c6.36,0,11.52-5.16,11.52-11.52V102.65c0-6.36-5.16-11.52-11.52-11.52h-59.42
				c-6.36,0-11.52,5.16-11.52,11.52v143.97C109.46,252.98,114.62,258.13,120.98,258.13z"/>
			<path class="st2" d="M181.1,94.91h-22.32c-1.07,0-2.05,0.64-2.47,1.62c-0.71,1.67-2.36,2.85-4.28,2.85s-3.58-1.17-4.28-2.85
				c-0.42-0.99-1.4-1.62-2.47-1.62h-24.96c-0.49,0-0.98,0.04-1.47,0.15c-4.11,0.68-7.27,4.22-7.27,8.55v142.04
				c0,4.81,3.9,8.7,8.7,8.7h60.78c4.83,0,8.74-3.91,8.74-8.74v-142C189.8,98.81,185.91,94.91,181.1,94.91z"/>
			<circle class="st3" cx="152.03" cy="95.31" r="1.62"/>
		</g>
		<g>
			<circle class="st3" cx="181.88" cy="102.78" r="1.02"/>
			<circle class="st3" cx="181.88" cy="106.3" r="1.02"/>
			<circle class="st3" cx="181.88" cy="109.82" r="1.02"/>
		</g>
	</g>
	<g>
		<path class="st4" d="M57,130.56c0.05,0.11,0.12,0.24,0.21,0.37c-0.31-0.09-0.4,0.29,0.17,1.48c0.56,1.16,0.72,1.75,1.07,2.01
			c0.68,0.48,3.65,1.06,5.24,2.55c5.69,6.41,10.03,13.02,14.48,13.44c0.94,0.09,1.74-1.55,2.26-3.13c1.7-4.1,1.88-20.88,2.54-22.96
			c0.93-2.96-2.6-3.65-3.87-5.15c-1.27-1.51-1.7,3.9-2.5,7.85c-0.23,1.12-1.79,9.07-2.51,11.62c-2.01-1.52-4.41-3.24-7.86-5.65
			c-0.31-3.05-1.77-3.58-2.23-4.09c-0.9-1-0.52-2.55-1.09-2.55c-0.18,0.37-0.86,1.63-0.29,2.51c0.09,0.14,0.16,0.34,0.23,0.59
			c-0.69-0.36-1.04-0.49-1.44-0.65c-0.36-0.21-1.09-0.43-1.76-1.13c-0.75-0.78-0.88-1.42-1.52-1.3c-0.61,0.11-0.03,1.24,0.51,2.13
			c0.49,0.8,1.44,1.37,1.34,1.35c-0.14-0.02-0.74-0.47-1.48-1.29c-0.18-0.2-0.37-0.26-0.74-0.13c-0.69,0.25-0.14,0.81,0.13,1.21
			c0.36,0.52,0.77,0.83,1.38,1.47c0.34,0.36-0.99-0.65-1.4-1.15C57.41,129.36,56.65,129.76,57,130.56z M58.55,132.52
			c0.07,0.08,0.12,0.14,0.11,0.15C58.64,132.68,58.61,132.62,58.55,132.52z"/>
		<g transform="matrix(0.666403,0,0,0.652864,-611.384,-17.8608)">
			<path class="st5" d="M1040.42,281.15c3.98-6.24,32.83,0.04,36.22,1.68c3.02,1.46,10.93,22.45-1.17,35.87
				c-0.5-1-17.06-4.99-17.53-4.98c-0.66,0.02-1.11,0.14-1.61,1.27C1045.19,313.96,1038.44,299.09,1040.42,281.15z"/>
		</g>
		<path class="st4" d="M105.29,255.24c0.02,1.69-3.81,4.1-2.7,4.07c0.93-0.03,7.07,0.64,8.52-0.83c1.7-1.72,0.45-4.61,0.26-5.91
			c0,0-0.65-6.95-1.45-9.52c-0.8-2.57-6.82,1.84-6.64,2.9S104.87,251.68,105.29,255.24z"/>
		<path class="st5" d="M104.16,257.09c0.5-0.34,2.71-0.69,4.02,0.14c1.06-0.53,2.66-1.42,3.03-1.7c0.4-0.3,0.5-0.66,0.8-0.97
			c0.7,0.3,0.28,3.81,0.33,4.19l-1.26,0.77c0,0-0.01,0.04-0.09,0.11c-0.24,0.2-0.47,0.6-0.52,0.72c-0.9,0.65-4.02,2.6-4.28,2.64
			c-0.54,0.08-7.78,0.28-8.59,0.02c-0.46-0.15-0.6-2.75,0.36-2.94C100.26,259.62,103.56,257.56,104.16,257.09z"/>
		<path class="st4" d="M84.48,254.58c0.18,0.6-4.6,3.37-3.5,3.53c0.93,0.13,7.07,1.43,8.74,0.24c1.97-1.4,1.24-4.47,1.26-5.78
			c0,0,0.54-6.96,0.2-9.63c-0.35-2.67-7.04,0.65-7.04,1.73C84.15,245.75,84.68,251,84.48,254.58z"/>
		<path class="st5" d="M83,255.94c0,0,1.99-1.02,4.54,0.55c1.06-0.53,2.12-1.35,2.49-1.63c0.4-0.3,0.9-0.83,1.19-1.15
			c0.7,0.3-0.11,4.66-0.06,5.04l-1.32,0.83c0,0,0.1-0.11-0.22-0.11c-0.11,0-0.3,0.09-0.35,0.22c-0.9,0.65-4.02,2.6-4.28,2.64
			c-0.54,0.08-8.31,0.81-9.01,0c-0.54-0.62-0.05-2.79,0.9-3.09C79.08,258.97,83.1,255.89,83,255.94z"/>
		<path class="st6" d="M97.41,167.27l-16.06-8.25c0,0-0.77,10.87-1.52,19.1c-0.65,7.16-0.87,22.35-0.43,29.51
			c0.79,13.03,3.98,41.04,4.51,42.47c2.49,0.36,5.1,0.1,7.41-0.26c0.88-14.43-0.62-38.83-0.42-41.34
			C91.43,201.74,97.41,167.27,97.41,167.27z"/>
		<path class="st6" d="M109.78,164.3c0-2.79-1.07-7.4-1.07-7.4l-12.99,7.22c0,0-2.65,5.29-2.44,14.1c0.11,5,3.31,28.81,4.14,33.53
			c1.74,9.98,5.43,31.25,6.79,39.59c2.14,0.18,4.94-0.36,7.25-0.71c0.18-1.96-1.51-28.35-2.76-41.7
			c-0.22-2.37,0.54-17.92,1.09-28.62C110.13,173.41,109.78,165.19,109.78,164.3z"/>
		<g transform="matrix(1.0171,0,0,1.0171,-1792.99,202.376)">
			<path class="st7" d="M1860.45-105.13c0.29,1.07,0.12,11.19,0.65,12.62c0.44,1.18,2.2,2.99,3.13,3.26
				c-0.21,2.39-1.85,5.34-3.19,6.56c-1.34,1.22-3.75,1.88-5.42,1.09c-2.04-0.97-8.94-7.18-7.33-7.39c2.91-0.69,3.35-1.19,3.29-3.94
				c-0.03-1.51-0.29-3.06-0.65-5.94C1851.13-100.28,1860.12-106.36,1860.45-105.13z"/>
		</g>
		<g transform="matrix(1.0171,0,0,1.0171,-1779.41,209.256)">
			<path class="st4" d="M1840.26-118.8c-2.04,0.51-4.24,2.58-4.99,4.8c-0.75,2.21,0.06,6.23,0.23,8.22c0.21,2.43,1.1,5.7,2.27,6.06
				c1.05,0.67,2.64,0.13,3.43-0.09c4.75-2.67,4.52-2.99,5.46-6.13c1.39-0.04,3.92-6.18,2.7-8.79
				C1847.91-117.83,1843.37-119.57,1840.26-118.8z"/>
		</g>
		<path class="st8" d="M95.5,93.96c0,0,1.11,0.88,0.97,3.39c-0.05,0.93-0.07,2.43-0.07,2.43s1.21-2.14,1.51-6
			C98.02,92.35,95.41,93.26,95.5,93.96z"/>
		<path class="st9" d="M101.95,90.73c1,1.27,1.86,5.62,1.59,5.87c-0.14,0.13-1.45,1.93-2.17,3.2c-0.51,0.9-1.53,2.5-1.53,2.5
			l-1.11-0.81c1-0.7,1.35-2.91,0.97-3.59c-0.23-0.42-1.5-2.21-2.74-0.77c0.15-1.24-0.04-4.12-0.04-4.12l2.9-4.6
			C99.83,88.41,101.46,90.11,101.95,90.73z"/>
		<path class="st9" d="M87.86,92.15c-0.15,0.26-0.57,0.8-0.76,1.77c-0.42,0.06-1.88-1.63-1.41-1.82c0.37-0.14,0.83-0.13,1.02-0.78
			c0.33-2.5,3.79-5.34,4.89-4.32c1.24-0.87,3.39-0.91,4.77-0.63c0.73,0.15,2.89,0.13,4.51,2.58c1.63,2.38,0.81,3.74,2.71,4.49
			c-0.32,2.42-7.18,2.47-9.03,1.35C92.34,93.45,90.3,94.86,87.86,92.15z"/>
		<path class="st10" d="M73.92,136.9c0,0,0.94-12.06,4.21-18.16c1.15-2.14,2.1-4.61,7.72-6.6c0.98,2.08-2.33,21.61-3.74,27.36
			C81.24,138.79,74.61,137.77,73.92,136.9z"/>
		<path class="st10" d="M81.87,114.08c0,0,4.45-2.41,6.59-2.84c2.78,3.5,9.05,3.9,12.86-1.25c2.81,1.03,4.4,1.5,8.23,3.51
			c2.78,1.46,1.04,17.35-0.67,30.06c-0.22,1.62-0.11,3.04-0.18,4.54c-0.18,4.07,1.37,12.86,0.71,15.49
			c-8.93-2.3-24.18,5.95-29.02-0.81c-0.19-1.25,2.05-9.48,2.14-12.74c0.17-6.06-0.09-14.51-0.16-15.6
			c-0.14-2.12-0.12-4.23-0.39-6.52C80.97,119.31,80.58,115.54,81.87,114.08z"/>
		<path class="st4" d="M100.63,167.8c0.27,0.63,3.17-0.71,4.55-2.35c0.34-0.4,1.25-1.94,1.87-3.7c-1.01,0.04-3.25,1.81-4.05,3.17
			C102.22,166.26,100.2,166.78,100.63,167.8z"/>
		<g>
			<path class="st11" d="M59.8,134.61l3.87-1.35c0.29-0.08,0.48-0.37,0.42-0.67l-1.75-11.18c-0.05-0.3-0.52-0.42-0.82-0.4
				l-4.46,0.35c-0.35,0.03-0.6,0.36-0.53,0.7l2.28,11.91C58.87,134.3,59.47,134.7,59.8,134.61z"/>
			<path class="st5" d="M59.91,134.62l4.13-1.16c0.29-0.08,0.48-0.37,0.42-0.67l-2.07-11.28c-0.05-0.3-0.32-0.51-0.63-0.48
				l-4.46,0.35c-0.35,0.03-0.6,0.36-0.53,0.7l2.4,12.09C59.24,134.5,59.58,134.71,59.91,134.62z"/>
			<polygon class="st11" points="61.97,121.79 57.37,122.3 59.28,132.33 63.63,131.33 			"/>
		</g>
		<path class="st4" d="M113.39,150.84c1.99,0.42,3.33-3.75,3.31-5.34c0.54-12.19-0.06-16.19-0.11-17.09
			c-1.09,0.53-5.27-0.93-7.87-0.38c0.16,0.79-0.36,13.52,0.93,16.32L113.39,150.84z"/>
		<path class="st4" d="M101.22,168.76c0.36-0.4,1.42-1.5,1.57-1.88c0.48-1.14,1.06-0.98,1.68-2.05c0.58-0.99,1.82-2.59,3.25-4.56
			c0.2-1.61,0.39-4,0.46-5.07c0.13-2.33,0.71-9.2,1.8-12.07l5.75,0.17c1.87,1.71,0.09,8.97-0.7,10.89
			c-1.46,3.57-2.02,6.62-3.27,8.53c-1.32,2.02-2.93,4.61-3.78,6c-0.23,0.37-1.17,1.73-2.28,2.39c-1.22,0.73-2.2,1.05-2.43,0.7
			c-0.2-0.31,0.6-0.29,1.36-1.11c0.51-0.49,1.13-1.44,1.08-1.47c-0.05-0.03-2.02,1.93-2.75,2.41c-0.73,0.48-0.97-0.32-0.46-0.73
			c0.25-0.2,0.82-0.81,1.3-1.34c-0.23,0.2-0.45,0.36-0.66,0.52c-1.49,1.17-1.74,0.09-1.05-0.52c0.83-0.73,1.62-1.65,1.62-1.79
			c0-0.1-1.01,1.11-1.73,1.72C101.19,170.17,100.49,169.57,101.22,168.76z"/>
		<path class="st10" d="M108.43,140.64c0,0-5.4-22.76-3.81-25.23c2.5-3.87,7.21-1.31,8.73,0.69c3.06,4.03,3.86,10.38,4.03,23.73
			C116.29,140.09,109.41,141.35,108.43,140.64z"/>
		<path class="st4" d="M57.6,129.77c0,0,0.93,0.47,1.2,1.08s-0.76,0.39-1.3,0.25C56.96,130.95,57.38,129.87,57.6,129.77z"/>
		<path class="st4" d="M57.57,128.46c0,0,0.93,0.47,1.2,1.08s-0.61,0.89-1.3,0.25C57.06,129.41,57.35,128.56,57.57,128.46z"/>
		<path class="st4" d="M57.55,131.37c0,0,1.03-0.32,1.4,0.44c0.37,0.76-1.15,0.79-1.3,0.69C57.5,132.4,57.18,131.71,57.55,131.37z"
			/>
		<path class="st6" d="M101.68,163.99l7,6.79l-4.03,5.73l-8.06-4.88C96.59,171.63,98.5,164.63,101.68,163.99z"/>
		<path class="st4" d="M64.4,128.42c-0.36-0.21-0.73-0.62-1.69-0.94c-0.68-0.23-0.63,0.36-0.35,0.97c0.21,0.46,1.09,1.16,1.16,1.16
			c0.35,0.6-0.23,0.94,1.02,2.58c0.48,0.63,0.56,0.85,1.1,0.21C66.2,131.72,65.82,129.23,64.4,128.42z"/>
	</g>
	<g>
		<g>
			<path class="st7" d="M175.4,68.39c0,0-6.55-19.91-7.44-22.22c-2.48-6.44-7.44-4.55-7.14,0.47c0.31,5.11,8.63,27.01,11.62,26.72
				C177.19,73.88,175.5,69.42,175.4,68.39z"/>
			<path class="st7" d="M195.93,72.9c-0.39-0.35-2.64-1.98-5.09-2.41c-0.53-0.09-2.37-0.04-3.23-0.01c-1.7-0.38-3.72-0.93-5.66-1.27
				c-5.1-0.89-6.53-1.35-7.97-1.54l-2.62,5.21c1.11,1.06,9.65,1.57,14.65,0.97L186,73.87l1.39,0.02c0.94,0.43,2.85,0.94,3.15,0.96
				c0.93,0.05,2.27,0.6,3.21,0.51c1.11,0.81,1.74,0.91,1.84,0.74c0.22-0.37-0.42-0.9-1.04-1.27c-0.89-0.53-1.77-0.7-1.67-0.69
				c0.15,0.01,1.82,0.42,2.27,0.71c0.62,0.51,1.28,1.47,1.79,1.15c0.14-0.09,0.18-0.61-1.14-1.83c-0.41-0.38-0.98-0.66-1.88-1
				c-0.42-0.16,1.2,0.39,1.8,0.69c0.66,0.32,1.81,2.08,2.31,1.73C198.43,75.3,196.55,73.44,195.93,72.9z"/>
		</g>
		<path class="st5" d="M187.34,63.39l0.99,0.79c0.02,0.01,0.04,0.01,0.06-0.01l9.83-12.31c0.01-0.02,0.01-0.04-0.01-0.06l-0.99-0.79
			c-0.02-0.01-0.04-0.01-0.06,0.01l-9.83,12.31C187.32,63.35,187.32,63.38,187.34,63.39z"/>
		<g>
			<path class="st12" d="M179.98,121.38c0,0-1.36,1.43-1.3,2.55c0.06,1.13-0.03,1.18,0.02,2.19c0.08,1.5-1.41,4.2-1.41,4.2
				l1.58,0.62c0,0,0.94-2.71,1.71-3.25c0.51-0.36,1.77-0.71,1.77-0.71S180.86,121.51,179.98,121.38z"/>
			<path class="st4" d="M184.6,112.55c-1.19,4-3.68,8.35-4.23,10.41c-0.38,1.4,1.55,2.99,3.38,5.52c0.79,1.1,0.82,2.69,2.12,3.63
				c3.12,2.27,6.71,3.79,4.84-0.65c-1.03-2.57-2.79-2.9-2.92-10.96c-0.01-0.5,2.62-5.52,3.04-6.8L184.6,112.55z"/>
			<path class="st13" d="M190.42,130.76c0,0-2.86,0.52-4.6-1.23c-1.76-1.78-5.04-6.38-4.67-9.19c-1.27,0.77-2.66,2.35-2.41,3.82
				s1.21,1.93,2.61,3.58c1.99,2.34,3.2,4.3,4.34,6.58c1.26,2.53,7.24,2.08,7.5,2.08c2.45-0.05,0.85-1.78,0.26-2.15
				C192.54,133.66,191.74,131.71,190.42,130.76z"/>
		</g>
		<g>
			<path class="st12" d="M192.79,127.82c0,0-0.93,1.74-0.56,2.81c0.36,1.07,0.28,1.14,0.61,2.1c0.48,1.42-0.23,4.42-0.23,4.42
				l1.69,0.17c0,0,0.18-2.86,0.77-3.59c0.39-0.49,1.51-1.16,1.51-1.16S193.67,127.71,192.79,127.82z"/>
			<path class="st4" d="M194.29,117.61c-0.07,4.17-0.73,9.5-0.71,11.62c0.01,1.45,2.29,2.46,4.74,4.41
				c1.06,0.84,1.51,2.37,3.01,2.93c3.61,1.35,7.48,1.84,4.48-1.92c-1.68-2.2-3.9-2.45-6.2-10.19c-0.14-0.48,0.1-5.8,0.16-7.14
				L194.29,117.61z"/>
			<path class="st13" d="M205.36,134.05c0,0-2.62,1.27-4.76,0.05c-2.17-1.24-6.57-4.79-6.97-7.6c-1.01,1.08-1.93,2.98-1.29,4.32
				c0.64,1.35,1.69,1.54,3.48,2.75c2.55,1.72,4.24,3.28,5.95,5.17c1.89,2.09,7.53,0.06,7.79-0.02c2.34-0.71,0.34-1.94-0.33-2.14
				C208.18,136.27,206.89,134.61,205.36,134.05z"/>
		</g>
		<path class="st9" d="M164.07,31.16c4.25-5.37,1.47,5.4,12.55-10.63c2.84-4.11-1.05-9.46-6.28-10.11c-3.46-0.43-6.4-1.14-9.74,1.57
			c-3.14,2.54-3.57,7.97-5.48,10.26c-8.3,9.9-3.92,13.19-5.38,17.7c-2.17,6.74,3.86,16.75,9.42,13.37
			C165.79,49.27,160.85,35.24,164.07,31.16z"/>
		<g transform="matrix(1.0171,0,0,1.0171,-1792.99,202.376)">
			<path class="st4" d="M1929.11-172.76c0.14,0.57-1.13,5.06-1.42,7.19c-0.05,0.36,0.02,1.48,1.32,4.26
				c0.59,1.25,1.79,4.15,2.52,5.84c0.65,5.06-12.91-0.71-14.48-1.51c-1.93-0.98,2.22-7.35,3.09-9.53c0.63-1.56,2.12-7.36,3.02-8.46
				C1925.95-178.34,1928.82-173.95,1929.11-172.76z"/>
		</g>
		<path class="st14" d="M195.74,80.87c-1.16,2.68-2.33,2.93-5.53,13c-2.15,6.78-3.92,13.34-7.29,22.21c0,0,4.16,2.45,5.78,2.6
			c4.05-9.87,13.01-23.17,15.55-33.92C206.2,76.49,198.5,74.47,195.74,80.87z"/>
		<g transform="matrix(1.0171,0,0,1.0171,-1775.94,296.447)">
			<path class="st5" d="M1941.47-206.52c-19.91,6.54-28.2,6.02-35.8,5.26c-6.29-0.63-6-12.28-3.91-21
				c0.81,0.11,17.03,1.27,17.98,1.2c0.57,0.63,6.55,1.08,7.64,1.17c10.91,0.95,20.26,2.59,20.4,8.28L1941.47-206.52z"/>
		</g>
		<path class="st5" d="M194.99,81.61c-0.09,2.39,0.21,4.76-0.6,13.89c-0.69,7.73-0.1,9.19-0.68,26.25l5.88,0.77
			c0.81-3.9,5.08-27.58,5.85-39.42C206.05,73.85,195.22,75.58,194.99,81.61z"/>
		<path class="st13" d="M175.04,55.56c0.37-4.76-2.35-7.39-4.59-14.45c-2.19-1.15-4.53-5.69-7.2-6.2c-1.73-0.33-3.09,0.34-4.95,1.2
			c-2.79,5.43-2.84,7.12-3.48,12.45c-0.71,5.85,0.74,24.7,0.84,27.65c0.12,3.38,0.69,3.88,1.13,3.88c1.35,0.19,2.23-0.85,5.29-1.24
			c1.88-0.24,4.4-1.68,6.38-2.1c2.17-0.45,3.14-0.56,5.13-1.18c2-0.62-0.87-5.75-0.68-11.49C172.98,62.09,174.85,58.06,175.04,55.56
			z"/>
		<path class="st15" d="M162.27,79.08c1.57-0.18,3.87-2.24,5.89-2.24c3.9-1.3,7.88-0.64,7.52-3.86c-0.28-2.5-0.78-4.26-2.21-7.13
			c-0.67-1.34-1.78-2.58-1.79-3.14c-0.03-1.68,3.15-4.39,2.92-5.53c-1.34-6.57-5.34-14.24-7.51-17.04
			c-2.46-3.18-9.24-0.95-9.53,2.41c-0.51,5.96-4.37,10.42-1.46,36.85C156.34,81.5,158.89,79.46,162.27,79.08z"/>
		<path class="st4" d="M193.42,60.52c-0.42,0.49-0.66,0.73-0.37,0.37c0.63-0.76,0.55-0.75,0.7-1.31c0.15-0.55-0.14-1.01-0.57-0.22
			c-0.6,0.67-1.12,1.16-1.25,1.25c-0.09,0.06,0.56-0.53,1.3-1.38c0.36-0.64,0.71-0.97,0.39-1.37c-0.13-0.16-0.67,0.26-1.49,1.46
			c-0.55,0.39-1.12,0.8-1.66,1.18c-0.04-0.17-0.06-0.33,0-0.49c0.35-1,0.95-1.63,0.27-1.58c-0.49,0.04-1.36,1.5-1.67,2.13
			c-0.15,0.32-1.61,1.75-2.38,3.94c-1.39,0.63-2.55,1.35-4.99,2.03c-2.73,0.77-4.38,1.42-5.59,1.96c-0.79-2.45-6.84-21.1-7.85-23.43
			c-3.04-6.94-8.39-4.63-7.81,0.87c0.59,5.59,9.77,30.03,13.04,29.56c0.31,0.02,0.6,0.02,0.86,0c1.9,0.17,10.63-5.02,14.54-8.62
			c0.44-0.3,2.37-1.59,2.82-2.05c1.75-1.83,1.93-2.99,2.1-3.5C194.06,60.78,193.84,59.9,193.42,60.52z"/>
		<g>
			<g transform="matrix(1,0,0,1,-686.424,141.326)">
				<path class="st7" d="M849.68-119.68c1.68-3.39,5.49,1.03,5.74,2.47s0.22,6.83,0.22,6.83s-2.02,0.27-5.67-1.39
					C848.33-112.51,848.42-117.14,849.68-119.68z"/>
				<path class="st4" d="M863.34-125.18c0.55,0.35,2.41,2.57-0.64,8.5c-1.17,2.27-3.21,5.82-5.6,7.65
					c-1.46,1.12-4.88-1.57-5.38-2.13c-2.35-2.69-1.79-3.58-1.68-7.28c0.08-2.75,2.32-6.34,3.17-7.52
					C855.49-129.12,861.53-125.75,863.34-125.18z"/>
			</g>
			<g transform="matrix(0.96703,0.027631,-0.0267779,0.937174,491.145,117.331)">
				<path class="st4" d="M-335.6-94.61c0.24-0.75,0.46-2.06-0.42-2.31c-1.67-0.47-1.97,1.24-2.21,2c-0.24,0.75,0.34,2.48,0.78,2.53
					C-337.01-92.34-335.84-93.86-335.6-94.61z"/>
			</g>
		</g>
		<path class="st9" d="M172.14,13.21c-0.53-1.19-0.97-3.44-4.26-2.99s-8.84,1.88-12.17,11.87c-2.17,6.5-0.14,15.83-0.33,17.77
			c0.67-2.31,2.61-3.33,3.35-3.74c6.61-3.63,5.08-16.88,9.08-16.95C170.88,19.13,172.82,14.74,172.14,13.21z"/>
		<g transform="matrix(1,0,0,1,-686.424,141.326)">
			<path class="st9" d="M864.44-121.39c0.92-1.07-0.04-4.91-2.3-5.7c-2.22-1.83-5.52-6.37-11.42-1.02
				c-7.29,6.62-2.14,13.45-4.04,16.7c4.14,0.9,4.14-4.48,6.5-5.71C858.37-119.85,862.87-118.81,864.44-121.39z"/>
		</g>
		<path class="st9" d="M173.25,15.68c0,0,2.17-1.75,3.14-0.78s3.11,2.91,2.37,5.13c-0.4,1.19-1,1.99-1.74,3.24c0-0.7,1-3.14,1-4.08
			L173.25,15.68z"/>
		<path class="st15" d="M157.46,70.23c2.99,0,7.96-0.86,9.45-2.06c2.77-2.22,2.84-4.33,7.02-4.33c2.22,0,2.84-0.3,2.84-0.3
			s-5.04-13.41-6.93-17.61c-2.66-5.94-5.83-10.49-10.12-7.52c-1.93,1.33-3.04,7.35-2.82,13.56
			C157.12,58.47,157.61,66.2,157.46,70.23z"/>
	</g>
</g>
<g>
	<g class="st16">
		<path class="st17" d="M123.06,147.36l1.42-11.56h13.59v4.07h-9.21l-0.53,4.49c0.38-0.22,0.89-0.41,1.51-0.58
			c0.62-0.17,1.23-0.25,1.83-0.25c2.31,0,4.08,0.67,5.33,2s1.86,3.2,1.86,5.6c0,1.45-0.33,2.76-1,3.94c-0.67,1.17-1.6,2.08-2.8,2.71
			c-1.2,0.63-2.62,0.95-4.26,0.95c-1.46,0-2.83-0.29-4.1-0.88c-1.28-0.58-2.28-1.38-3-2.4c-0.72-1.02-1.08-2.17-1.07-3.45h5.4
			c0.05,0.83,0.32,1.48,0.81,1.97c0.49,0.49,1.13,0.73,1.93,0.73c1.81,0,2.71-1.3,2.71-3.9c0-2.41-1.11-3.61-3.32-3.61
			c-1.26,0-2.19,0.39-2.81,1.18L123.06,147.36z"/>
		<path class="st17" d="M142,147.36l1.42-11.56h13.59v4.07h-9.21l-0.53,4.49c0.38-0.22,0.89-0.41,1.51-0.58
			c0.62-0.17,1.23-0.25,1.83-0.25c2.31,0,4.08,0.67,5.33,2s1.86,3.2,1.86,5.6c0,1.45-0.33,2.76-1,3.94c-0.67,1.17-1.6,2.08-2.8,2.71
			c-1.2,0.63-2.62,0.95-4.26,0.95c-1.46,0-2.83-0.29-4.1-0.88c-1.28-0.58-2.28-1.38-3-2.4c-0.72-1.02-1.08-2.17-1.07-3.45h5.4
			c0.05,0.83,0.32,1.48,0.81,1.97c0.49,0.49,1.13,0.73,1.93,0.73c1.81,0,2.71-1.3,2.71-3.9c0-2.41-1.11-3.61-3.32-3.61
			c-1.26,0-2.19,0.39-2.81,1.18L142,147.36z"/>
		<path class="st17" d="M160.63,140.14c0-1.4,0.47-2.53,1.41-3.38s2.19-1.29,3.77-1.29c1.6,0,2.86,0.43,3.79,1.28
			c0.93,0.85,1.39,2.01,1.39,3.47v1.12c0,1.4-0.46,2.52-1.39,3.37c-0.93,0.85-2.18,1.27-3.75,1.27c-1.57,0-2.82-0.42-3.78-1.27
			c-0.95-0.84-1.43-2-1.43-3.47V140.14z M164.1,141.33c0,0.54,0.15,0.97,0.46,1.3s0.74,0.5,1.28,0.5c1.12,0,1.68-0.69,1.68-2.07
			v-0.93c0-0.53-0.15-0.97-0.45-1.32c-0.3-0.34-0.72-0.52-1.26-0.52c-0.52,0-0.94,0.17-1.25,0.5c-0.31,0.33-0.46,0.79-0.46,1.37
			V141.33z M166.86,156.71l-2.51-1.23l11.35-17.67l2.51,1.23L166.86,156.71z M171.68,152.86c0-1.41,0.47-2.53,1.41-3.38
			c0.94-0.85,2.2-1.27,3.76-1.27c1.59,0,2.85,0.42,3.78,1.26c0.94,0.84,1.41,2.01,1.41,3.51v1.09c0,1.41-0.46,2.54-1.39,3.38
			c-0.93,0.85-2.18,1.27-3.77,1.27c-1.56,0-2.82-0.42-3.78-1.27s-1.43-2-1.43-3.47V152.86z M175.13,154.05
			c0,0.48,0.17,0.91,0.51,1.27s0.75,0.55,1.25,0.55c1.03,0,1.59-0.47,1.68-1.42l0.02-1.59c0-0.54-0.15-0.98-0.46-1.32
			c-0.31-0.33-0.73-0.5-1.26-0.5c-0.51,0-0.92,0.16-1.23,0.47c-0.31,0.31-0.47,0.74-0.49,1.27V154.05z"/>
	</g>
</g>
<rect x="169.44" y="182.73" class="st18" width="11.57" height="28.41"/>
<rect x="153.63" y="176.53" class="st1" width="11.57" height="34.61"/>
<rect x="137.81" y="194.89" class="st19" width="11.57" height="16.24"/>
<rect x="121.99" y="167.9" class="st10" width="11.57" height="43.22"/>
<path class="st6" d="M169.57,215.41c0,0.23,0.2,0.41,0.45,0.41h10.55c0.25,0,0.45-0.18,0.45-0.41l0,0c0-0.23-0.2-0.41-0.45-0.41
	h-10.56C169.77,215,169.57,215.18,169.57,215.41L169.57,215.41z"/>
<path class="st6" d="M153.75,215.4c0,0.23,0.2,0.41,0.44,0.41h10.55c0.25,0,0.45-0.18,0.45-0.41l0,0c0-0.23-0.2-0.41-0.45-0.41
	h-10.55C153.95,214.99,153.75,215.18,153.75,215.4L153.75,215.4z"/>
<path class="st6" d="M137.87,215.4c0,0.23,0.2,0.41,0.45,0.41l10.55,0.01c0.25,0,0.45-0.18,0.45-0.41l0,0c0-0.23-0.2-0.41-0.45-0.41
	h-10.55C138.07,214.99,137.87,215.17,137.87,215.4L137.87,215.4z"/>
<path class="st6" d="M122.05,215.39c0,0.23,0.2,0.41,0.45,0.41h10.55c0.25,0,0.45-0.18,0.45-0.41l0,0c0-0.23-0.2-0.41-0.45-0.41
	h-10.54C122.25,214.98,122.05,215.16,122.05,215.39L122.05,215.39z"/>
</svg>
