<?xml version="1.0" encoding="utf-8"?>
<!-- Generator: Adobe Illustrator 25.2.1, SVG Export Plug-In . SVG Version: 6.00 Build 0)  -->
<svg version="1.1" id="Capa_1" xmlns="http://www.w3.org/2000/svg" xmlns:xlink="http://www.w3.org/1999/xlink" x="0px" y="0px"
	 viewBox="0 0 300 300" style="enable-background:new 0 0 300 300;" xml:space="preserve">
<style type="text/css">
	.st0{fill:none;stroke:#029AA4;stroke-width:10;stroke-miterlimit:10;}
	.st1{fill:none;stroke:#B3B3B3;stroke-width:18;stroke-miterlimit:10;}
	.st2{fill:none;stroke:#999999;stroke-width:28;stroke-miterlimit:10;}
	.st3{fill:#E6E6E6;}
	.st4{fill:#4285F4;}
	.st5{fill:#FFFFFF;}
	.st6{fill:#4D4D4D;}
	.st7{fill:#E60D57;}
	.st8{fill:#C1BEDF;}
	.st9{fill:#EA4335;}
	.st10{fill:#34A853;}
	.st11{fill:#606060;}
	.st12{fill:#FBBC04;}
	.st13{fill:#029AA4;}
	.st14{fill:#596CF7;}
	.st15{fill:#DEE2FD;}
	.st16{fill:#AAB5D2;}
	.st17{fill:#3D5196;}
	.st18{fill:#C2A09C;}
	.st19{fill:#80AD84;}
	.st20{fill:#A06A63;}
	.st21{fill:#B3B3B3;}
	.st22{fill:url(#SVGID_11_);}
	.st23{opacity:0.7;fill:none;stroke:#FFC55E;stroke-miterlimit:10;}
	.st24{opacity:0.62;fill:#FFFFFF;}
	.st25{fill:none;stroke:#DDB6C0;stroke-miterlimit:10;}
	.st26{fill:none;stroke:#FFFFFF;stroke-miterlimit:10;}
	.st27{fill:#83A1B7;}
	.st28{fill:#666666;}
	.st29{fill:#BCBCBC;}
	.st30{fill:#FFD4B3;}
	.st31{fill:#5E98FF;}
	.st32{opacity:0.55;fill:#A9E1EA;}
	.st33{opacity:0.77;fill:#FFFFFF;}
	.st34{fill:#FDC8A8;}
	.st35{opacity:0.09;fill:#5E98FF;}
	.st36{opacity:0.16;fill:#5E98FF;}
	.st37{opacity:0.43;fill:#3C7BD6;}
	.st38{fill:#D0D6E2;}
	.st39{fill:#FCDDD0;}
	.st40{opacity:0.9;}
	.st41{fill:#B5CEE5;}
	.st42{fill:#74ECF3;}
	.st43{fill:#A5C6E5;}
	.st44{fill:url(#SVGID_12_);}
	.st45{fill:#2A3858;}
	.st46{fill:#4853A3;}
	.st47{fill:#F7A280;}
	.st48{fill:#3A3B96;}
	.st49{fill:#E09476;}
	.st50{fill:#1D145A;}
	.st51{fill:#302D7F;}
	.st52{fill:#B03724;}
	.st53{fill:#EF4923;}
	.st54{fill:#343286;}
</style>
<g>
	<defs>
		<path id="SVGID_7_" d="M6.96,170.93c0.87-131.85,281.9-215.59,286-47.56c1.55,63.86-40.4,90.77-72.15,97.63
			c-31.75,6.86-59.64-1.73-81.12,8.41C44.2,274.49,6.52,238.17,6.96,170.93"/>
	</defs>
	<use xlink:href="#SVGID_7_"  style="overflow:visible;fill:#E6E6E6;"/>
	<clipPath id="SVGID_2_">
		<use xlink:href="#SVGID_7_"  style="overflow:visible;"/>
	</clipPath>
</g>
<g>
	<g>
		<path class="st5" d="M60.37,111.02V63.78h67.65v47.23c0,0.82-0.66,1.48-1.48,1.48H61.85C61.03,112.5,60.37,111.83,60.37,111.02z"
			/>
	</g>
	<path class="st14" d="M85.17,94.75h-6.98c-0.31,0-0.56-0.25-0.56-0.56v-6.36c0-0.31,0.25-0.56,0.56-0.56h6.98
		c0.31,0,0.56,0.25,0.56,0.56v6.36C85.73,94.5,85.47,94.75,85.17,94.75z M76.7,86.9v8.21c0,0.31,0.25,0.56,0.56,0.56h8.83
		c0.31,0,0.56-0.25,0.56-0.56V86.9c0-0.31-0.25-0.56-0.56-0.56h-8.83C76.95,86.34,76.7,86.59,76.7,86.9z"/>
	<g>
		<path class="st9" d="M60.37,63.78v-9.66c0-1.26,1.02-2.29,2.29-2.29h63.08c1.26,0,2.29,1.02,2.29,2.29v9.66H60.37z"/>
	</g>
	<path class="st15" d="M114.9,83.7h8.69c0.35,0,0.63-0.28,0.63-0.63v-8.07c0-0.35-0.28-0.63-0.63-0.63h-8.69
		c-0.35,0-0.63,0.28-0.63,0.63v8.07C114.26,83.42,114.55,83.7,114.9,83.7z M102.37,83.7h8.69c0.35,0,0.63-0.28,0.63-0.63v-8.07
		c0-0.35-0.28-0.63-0.63-0.63h-8.69c-0.35,0-0.63,0.28-0.63,0.63v8.07C101.74,83.42,102.02,83.7,102.37,83.7z M89.85,83.7h8.69
		c0.35,0,0.63-0.28,0.63-0.63v-8.07c0-0.35-0.28-0.63-0.63-0.63h-8.69c-0.35,0-0.63,0.28-0.63,0.63v8.07
		C89.22,83.42,89.5,83.7,89.85,83.7z M77.33,83.7h8.69c0.35,0,0.63-0.28,0.63-0.63v-8.07c0-0.35-0.28-0.63-0.63-0.63h-8.69
		c-0.35,0-0.63,0.28-0.63,0.63v8.07C76.7,83.42,76.98,83.7,77.33,83.7z M64.81,83.7h8.69c0.35,0,0.63-0.28,0.63-0.63v-8.07
		c0-0.35-0.28-0.63-0.63-0.63h-8.69c-0.35,0-0.63,0.28-0.63,0.63v8.07C64.18,83.42,64.46,83.7,64.81,83.7z M114.9,95.67h8.69
		c0.35,0,0.63-0.28,0.63-0.63v-8.07c0-0.35-0.28-0.63-0.63-0.63h-8.69c-0.35,0-0.63,0.28-0.63,0.63v8.07
		C114.26,95.39,114.55,95.67,114.9,95.67z M102.37,95.67h8.69c0.35,0,0.63-0.28,0.63-0.63v-8.07c0-0.35-0.28-0.63-0.63-0.63h-8.69
		c-0.35,0-0.63,0.28-0.63,0.63v8.07C101.74,95.39,102.02,95.67,102.37,95.67z M89.85,95.67h8.69c0.35,0,0.63-0.28,0.63-0.63v-8.07
		c0-0.35-0.28-0.63-0.63-0.63h-8.69c-0.35,0-0.63,0.28-0.63,0.63v8.07C89.22,95.39,89.5,95.67,89.85,95.67z M64.81,95.67h8.69
		c0.35,0,0.63-0.28,0.63-0.63v-8.07c0-0.35-0.28-0.63-0.63-0.63h-8.69c-0.35,0-0.63,0.28-0.63,0.63v8.07
		C64.18,95.39,64.46,95.67,64.81,95.67z M114.9,107.64h8.69c0.35,0,0.63-0.28,0.63-0.63v-8.07c0-0.35-0.28-0.63-0.63-0.63h-8.69
		c-0.35,0-0.63,0.28-0.63,0.63v8.07C114.26,107.36,114.55,107.64,114.9,107.64z M102.37,107.64h8.69c0.35,0,0.63-0.28,0.63-0.63
		v-8.07c0-0.35-0.28-0.63-0.63-0.63h-8.69c-0.35,0-0.63,0.28-0.63,0.63v8.07C101.74,107.36,102.02,107.64,102.37,107.64z
		 M89.85,107.64h8.69c0.35,0,0.63-0.28,0.63-0.63v-8.07c0-0.35-0.28-0.63-0.63-0.63h-8.69c-0.35,0-0.63,0.28-0.63,0.63v8.07
		C89.22,107.36,89.5,107.64,89.85,107.64z M77.33,107.64h8.69c0.35,0,0.63-0.28,0.63-0.63v-8.07c0-0.35-0.28-0.63-0.63-0.63h-8.69
		c-0.35,0-0.63,0.28-0.63,0.63v8.07C76.7,107.36,76.98,107.64,77.33,107.64z M64.81,107.64h8.69c0.35,0,0.63-0.28,0.63-0.63v-8.07
		c0-0.35-0.28-0.63-0.63-0.63h-8.69c-0.35,0-0.63,0.28-0.63,0.63v8.07C64.18,107.36,64.46,107.64,64.81,107.64z M64.18,71.62
		c0.31,0.33,9.51,0.2,9.95,0c0.44-0.2,0.66-1.96,0-2.33c-0.66-0.37-9.69-0.35-9.95,0S63.86,71.29,64.18,71.62z M86.8,69.22
		c-0.31-0.33-9.51-0.2-9.95,0c-0.44,0.2-0.66,1.96,0,2.33c0.66,0.37,9.69,0.35,9.95,0C87.05,71.2,87.11,69.55,86.8,69.22z
		 M89.12,71.62c0.31,0.33,9.51,0.2,9.95,0c0.44-0.2,0.66-1.96,0-2.33c-0.66-0.37-9.69-0.35-9.95,0
		C88.87,69.64,88.81,71.29,89.12,71.62z M111.74,69.22c-0.31-0.33-9.51-0.2-9.95,0c-0.44,0.2-0.66,1.96,0,2.33
		c0.66,0.37,9.69,0.35,9.95,0C112,71.2,112.06,69.55,111.74,69.22z M114.06,71.62c0.31,0.33,9.51,0.2,9.95,0s0.66-1.96,0-2.33
		c-0.66-0.37-9.69-0.35-9.95,0C113.81,69.64,113.75,71.29,114.06,71.62z"/>
</g>
<g>
	<path class="st12" d="M200.89,12c-2.37,0-1.28,22.96-1.47,43.9c-0.14,15.52-0.23,29.02,1,29.02c1.53,0,1.82-21.13,1.87-40.9
		C202.33,26.66,203.25,12,200.89,12z"/>
	<path class="st12" d="M229.23,56.25c0-1.5-19.22-0.58-34.83-0.48c-11.56,0.07-21.63,0.16-21.63,0.94c0,0.97,15.75,0.93,30.48,0.76
		C216.2,57.31,229.23,57.75,229.23,56.25z"/>
	<path class="st5" d="M196.22,92.17c-4.83-2.4-8.72-7.72-5.65-14.17c2.82-5.92,8.76-8.19,14.25-5.91s8.68,8.12,5.65,14.17
		C207.44,92.31,201.05,94.57,196.22,92.17z"/>
	<path class="st5" d="M161.44,59.91c-1.58-4.9-0.58-11.17,5.78-13.52c5.85-2.16,11.3,0.3,13.4,5.56c2.1,5.26,0.28,11.42-5.78,13.52
		C168.77,67.58,163.02,64.82,161.44,59.91z"/>
	<path class="st5" d="M221.55,59.96c-1.57-4.87-0.58-11.09,5.74-13.42c5.8-2.14,11.21,0.3,13.29,5.52
		c2.08,5.22,0.28,11.33-5.74,13.42C228.82,67.57,223.12,64.83,221.55,59.96z"/>
</g>
<g>
	<path class="st16" d="M115.53,216.03c-2.06,0.42-42.68,0.42-45.04,0c-2.36-0.42-2.5-2.29,0-2.58c2.5-0.29,42.68-0.18,45.04,0
		C117.89,213.64,117.59,215.62,115.53,216.03z"/>
	<g>
		<path class="st16" d="M104.9,268.08c-1.24-2.18-22.15-46.85-23.19-49.53c-1.04-2.68-0.61-2.9,0.81-0.2
			c1.41,2.69,22.05,46.9,23.19,49.53C106.85,270.51,106.14,270.26,104.9,268.08z"/>
		<path class="st16" d="M99.54,268.52c-1.22-2.13-21.68-45.84-22.68-48.46c-1.01-2.62-0.58-2.84,0.8-0.21
			c1.38,2.63,21.57,45.88,22.68,48.46C101.45,270.89,100.75,270.65,99.54,268.52z"/>
		<path class="st16" d="M93.28,268.18c-1.03-1.74-17.89-37.76-18.69-39.93s-0.37-2.39,0.79-0.23c1.16,2.16,17.79,37.8,18.69,39.93
			C94.97,270.08,94.31,269.92,93.28,268.18z"/>
		<path class="st16" d="M106.85,258.77c-1.03-1.74-17.89-37.76-18.69-39.93s-0.37-2.39,0.79-0.23c1.16,2.16,17.79,37.8,18.69,39.93
			C108.54,260.67,107.88,260.51,106.85,258.77z"/>
		<path class="st16" d="M108.14,248.84c-0.82-1.28-13.42-28.2-13.97-29.84c-0.55-1.65-0.12-1.86,0.78-0.26
			c0.9,1.6,13.32,28.24,13.97,29.84C109.57,250.18,108.95,250.12,108.14,248.84z"/>
		<path class="st16" d="M109.38,238.52c-0.6-0.81-8.86-18.47-9.16-19.58c-0.3-1.11,0.13-1.32,0.77-0.29
			c0.63,1.03,8.76,18.51,9.16,19.58S109.98,239.33,109.38,238.52z"/>
		<path class="st16" d="M110.95,228.74c-0.4-0.4-4.83-9.86-4.91-10.49c-0.08-0.63,0.36-0.84,0.75-0.32c0.4,0.53,4.73,9.9,4.91,10.49
			C111.88,229.01,111.35,229.14,110.95,228.74z"/>
		<path class="st16" d="M83.21,270.16c-0.4-0.4-4.83-9.86-4.91-10.49c-0.08-0.63,0.36-0.84,0.75-0.32c0.4,0.53,4.73,9.9,4.91,10.49
			C84.14,270.43,83.61,270.56,83.21,270.16z"/>
		<path class="st16" d="M89.47,272.47c-0.82-1.28-13.42-28.2-13.97-29.84c-0.55-1.65-0.12-1.86,0.78-0.26
			c0.9,1.6,13.32,28.24,13.97,29.84C90.9,273.81,90.29,273.75,89.47,272.47z"/>
	</g>
	<g>
		<path class="st16" d="M81.63,266.76c1.16-2.02,20.6-43.54,21.55-46.03c0.95-2.5,0.52-2.71-0.8-0.21s-20.5,43.58-21.55,46.03
			C79.77,269,80.46,268.79,81.63,266.76z"/>
		<path class="st16" d="M86.38,268.52c1.22-2.13,21.68-45.84,22.68-48.46c1.01-2.62,0.58-2.84-0.8-0.21
			c-1.38,2.63-21.57,45.88-22.68,48.46C84.46,270.89,85.16,270.65,86.38,268.52z"/>
		<path class="st16" d="M92.64,268.18c1.03-1.74,17.89-37.76,18.69-39.93c0.8-2.18,0.37-2.39-0.79-0.23
			c-1.16,2.16-17.79,37.8-18.69,39.93C90.94,270.08,91.6,269.92,92.64,268.18z"/>
		<path class="st16" d="M79.11,258.7c1.07-1.84,18.75-39.61,19.61-41.89c0.86-2.27,0.45-2.48-0.75-0.2
			c-1.21,2.27-18.65,39.66-19.61,41.89C77.4,260.72,78.04,260.54,79.11,258.7z"/>
		<path class="st16" d="M77.78,248.84c0.82-1.28,13.42-28.2,13.97-29.84c0.55-1.65,0.12-1.86-0.78-0.26
			c-0.9,1.6-13.32,28.24-13.97,29.84C76.35,250.18,76.96,250.12,77.78,248.84z"/>
		<path class="st16" d="M76.54,238.52c0.6-0.81,8.86-18.47,9.16-19.58s-0.13-1.32-0.77-0.29c-0.63,1.03-8.76,18.51-9.16,19.58
			S75.94,239.33,76.54,238.52z"/>
		<path class="st16" d="M74.96,228.74c0.4-0.4,4.83-9.86,4.91-10.49c0.08-0.63-0.36-0.84-0.75-0.32c-0.4,0.53-4.73,9.9-4.91,10.49
			C74.03,229.01,74.56,229.14,74.96,228.74z"/>
		<path class="st16" d="M102.7,270.16c0.4-0.4,4.83-9.86,4.91-10.49c0.08-0.63-0.36-0.84-0.75-0.32c-0.4,0.53-4.73,9.9-4.91,10.49
			C101.77,270.43,102.3,270.56,102.7,270.16z"/>
		<path class="st16" d="M97.94,269.28c0.75-1.14,12.06-25.29,12.53-26.77c0.48-1.49,0.04-1.7-0.78-0.27
			c-0.82,1.43-11.96,25.33-12.53,26.77C96.59,270.45,97.19,270.42,97.94,269.28z"/>
	</g>
	<path class="st16" d="M76.5,267.03c-0.28-1.11-2.11-11.22-3.49-23.04c-1.4-11.92-2.46-24.39-2.51-25.72
		c-0.11-2.64,0.77-2.9,1.23-0.14c0.23,1.38,1.45,14.21,2.83,26.02c1.38,11.81,3.41,23.14,3.52,24.45
		C78.3,271.23,77.57,271.32,76.5,267.03z"/>
	<path class="st16" d="M109.27,270.07c0.27-1.18,2.2-13.54,3.66-25.97c1.47-12.54,2.69-25.68,2.72-27.08
		c0.06-2.78-1.1-3.09-1.62-0.19c-0.26,1.45-1.47,14.96-2.91,27.37c-1.45,12.42-3.36,24.29-3.46,25.67
		C107.45,272.65,108.73,272.44,109.27,270.07z"/>
	<path class="st16" d="M103.72,277.46c-4.29,0.48-18.37,0.6-21.64,0c-3.16-0.58-3.79-3.84-4.31-5.45c-0.12-0.39-0.01-0.93,1.66-0.93
		h28.06c0.41,0,1.52,1.13,1.39,1.52C108.32,274.23,107.03,277.09,103.72,277.46z"/>
</g>
<g>
	<path class="st12" d="M268.5,277.92c-0.9,1.22-1.81,1.29-2.73,0.03c-3.03-9.86-5.39-19.91-8.15-29.84
		c-4.19-15.87-8.45-31.73-12.56-47.62c-0.37-2.88-2.32-6.64-0.93-9.31c2.69,0.84,4.58,12.59,5.84,15.66
		C256.36,230.52,262.56,254.15,268.5,277.92z"/>
	<path class="st12" d="M61.19,193.03c-6.51,29.11-13.23,57.77-19.26,86.9c-0.18,2.22-3.85,1.88-3.05-0.48
		c6.74-28.59,12.6-57.32,19.08-85.95C58.41,191.27,59.95,190.63,61.19,193.03z"/>
	<polygon class="st5" points="24.7,196.06 279.42,196.24 279.4,188.1 24.7,187.89 	"/>
</g>
<g>
	<path class="st16" d="M213.88,157.18l-0.05,31.1c0,0.38-0.14,0.69-0.31,0.7l-19.98,0.04c-0.17,0-0.31-0.31-0.31-0.7l0.06-31.27
		c0-0.39,0.14-0.7,0.31-0.69l19.97,0.13C213.74,156.48,213.88,156.79,213.88,157.18z"/>
	<path class="st5" d="M249.46,109.12l-0.2,61.75c0,0.76-0.62,1.38-1.38,1.38l-88.82,0.08c-0.77,0-1.39-0.62-1.39-1.39l0.25-62.1
		c0-0.76,0.62-1.38,1.39-1.38l88.77,0.26C248.84,107.73,249.46,108.36,249.46,109.12z"/>
	<polygon class="st6" points="161.64,156.11 161.75,111.25 245.47,111.18 245.23,156.34 	"/>
	<path class="st5" d="M227.18,128.45c-0.15,0.05-0.23,0.07-0.31,0.12c-0.73,0.41-1.48,0.79-2.19,1.24c-2.59,1.62-5.19,3.23-7.74,4.9
		c-1.67,1.1-3.28,2.3-4.91,3.47c-0.23,0.16-0.42,0.39-0.61,0.61c-0.06,0.07-0.07,0.24-0.03,0.31c0.05,0.08,0.2,0.14,0.28,0.12
		c0.19-0.06,0.39-0.15,0.56-0.26c1.41-0.91,2.81-1.84,4.22-2.75c0.61-0.4,1.23-0.77,1.84-1.17c2.09-1.38,4.18-2.75,6.25-4.15
		c0.77-0.52,1.5-1.12,2.24-1.69C227,129.04,227.21,128.87,227.18,128.45z"/>
	<path class="st5" d="M218.33,129.55c-0.26,0.08-0.54,0.12-0.78,0.25c-0.76,0.39-1.53,0.78-2.26,1.23
		c-1.43,0.88-2.83,1.81-4.24,2.71c-0.72,0.46-1.46,0.91-2.16,1.4c-0.49,0.34-0.93,0.73-1.39,1.11c-0.1,0.08-0.19,0.19-0.27,0.3
		c-0.23,0.32-0.27,0.58-0.12,0.8c0.17,0.24,0.44,0.3,0.81,0.1c0.55-0.3,1.11-0.6,1.63-0.95c1.94-1.34,3.87-2.67,5.78-4.06
		c0.89-0.65,1.72-1.4,2.56-2.13c0.2-0.17,0.35-0.4,0.52-0.6C218.38,129.66,218.36,129.6,218.33,129.55z"/>
</g>
<g>
	<path class="st16" d="M153.19,280.91c-0.69-2.32,6.52-3.71,6.79-1.9c0.45,3.1,6.61,7.21,5.16,9.54c-0.29,0.46-9.11,4.56-11.56,2.64
		C151.18,289.31,153.79,282.92,153.19,280.91z"/>
	<path class="st16" d="M173.78,278.18c-3.09-4.71-7.43-2.85-7.21-0.02c0.28,3.54-1.21,3.49,0.34,8.17c1.41,4.26,9.12,1.13,9.73,0.86
		c3.19-1.44,5.78-4.95,4.74-7.71C180.76,277.81,174.27,278.93,173.78,278.18z"/>
	<path class="st6" d="M172.49,244.77c-1.28-8.82-9.27-11.58-10.45-11.08c-4.52,2.64-2.06,45.32-2.06,45.32
		c-0.48,1.78-4.28,2.03-6.7,2.41c-1.94,0.31-14.32-40.18-15.76-49.74c-1.81-11.98,1.93-16.18,21.75-17.4
		c13.1-0.81,30.31,5.61,33.35,14.64c4.07,12.06-12.05,42.57-15.2,49.57c-1.06,2.36-10.75,1.44-10.86-0.33
		C165.9,267.36,173.12,249.12,172.49,244.77z"/>
	<path class="st17" d="M187.56,211.48c1.07,5.23,0.89,20.66-9.32,24.12c-8.31,2.81-13.87-0.43-16.74-0.43
		c-2.87,0-11.37,2.55-17.65-0.28c-9.16-4.14-8.73-20.64-7.42-25.78c2.18-8.57,10.92,0.32,25.07,0.32
		C175.64,209.42,185.64,202.13,187.56,211.48z"/>
	<path class="st18" d="M206.29,188.45c4.54,0,11.68,0,13.39,0c2.18,0,0.27-2.45-0.16-3.2c-0.86-1.5-5.16-4.38-8.56-4.38
		c-0.96,0-6.17,1.91-7.55,4.07C202.22,186.83,204.7,188.45,206.29,188.45z"/>
	<path class="st18" d="M158.02,123.91c-3.28-7.7,0.91-18.98,6.71-22.04c5.8-3.06,15.82,0.13,18.89,7.67
		c3.34,8.22-0.39,22.6-4.53,25.75C174.29,138.95,161.3,131.61,158.02,123.91z"/>
	<path class="st18" d="M155.49,141.6c1.13-4.06,3.03-3.8,2.1-18.86c-0.17-2.76,17.36,8.17,16,11.32c-1.67,3.88,0,8.08,0,8.08
		C172.19,146.43,154.36,145.66,155.49,141.6z"/>
	<path class="st13" d="M200.98,167.65c-3.01-10.13-4.22-17.01-8.35-21.26c-5.8-5.98-15.79-7.04-30.87-7.04
		c-7.52,0-14.51,0.82-19.83,3.37c-8.48,4.07-13.7,12.04-17.49,24.39c-6.16,20.09-3.89,30.82,1.15,32.84
		c4.65,1.87,11.29-4.84,12.56-8.11c1.28-3.27,2.2-1.93,1.8,1.3c-0.89,7.09-1.9,8.55-3.54,15.94c-1.78,8.04,51.76,6.61,50.96,0.96
		c-1.61-11.44-1.58-12.22-2.13-20.09c-0.12-1.79,0.55-3.12,1.48-1.53c1.36,2.31,3.42,13.66,11.35,12.16
		C206.72,198.96,203.83,177.24,200.98,167.65z"/>
	<path class="st13" d="M197.09,201.23c10.49,0.54,16.68-12.46,16.23-14.13c-0.9-3.32-4.42-3.56-6.61-3.31
		c-3.23,0.38-4.89-0.69-9.12,3.91C193.35,192.29,189.19,200.82,197.09,201.23z"/>
	<path class="st6" d="M155.16,120.95c-4.38-11.1,1.12-16.9,6.92-19.95c5.8-3.06,17.86-2.82,20.92,4.73
		c1.65,4.07-3.54,7.49-6.68,12.78c-3.21,5.4-4.71,11.37-6.8,12.96c-2.13,1.62-10.02,0.84-11.71-0.1
		C157.8,131.36,156.87,125.27,155.16,120.95z"/>
	<path class="st6" d="M165.55,101.48c0.87,1.1,1.22-2.17-1.31-6.47c-2.41-4.1-10.85-7.13-18.95-0.78
		c-9.94,7.77-4.57,20.18-11.21,40.28c-2.36,7.15-6.78,9.43-6.44,10.57c0.45,1.5,26.84-6.92,22.57-32.81
		c-0.46-2.76-3.65-11.12,2.98-13.82C156.6,97.06,162.14,97.17,165.55,101.48z"/>
</g>
<g>
	<path class="st19" d="M24.06,149.77c2.11-7.5,11.88-1.27,21.58-5.92c2.89-1.38,9.21-1.49,9.83,2.47c-0.14,1.75-1.18,3.07-2.83,3.67
		c-2.79,1-4.89,2.85-6.92,4.9C39.84,161.81,21.96,157.27,24.06,149.77z"/>
	<path class="st19" d="M114.49,147.69c2.59,5.85-6.23,0.78-9.77,5.46c-1.72,2.27-4.16,10.82-10.53,9.14
		c-3.39-0.9-3.27-6.89-1.03-11.83C96.49,143.13,111.71,141.39,114.49,147.69z"/>
	<path class="st19" d="M88.89,117.46c0.9,19.61-13.81,14.18-12.37,21.81c0.62,6.69,6.1,11.63,7.11,18.15
		c0.25,2.19-1.65,3.7-3.86,3.49c-3.72-0.34-5.78-3.81-7.52-6.68c-3.29-7.21-9.1-12.74-12.73-19.72
		c-4.59-11.05,9.77-9.68,12.16-15.94c2.46-5.99-0.53-13.26,4.2-18.32C84.67,93.57,89.64,110.95,88.89,117.46z"/>
	<path class="st10" d="M74.01,142.48c-0.17-6.35,3.08-9.69,7.77-12.51c9.48-6.44-2.86-18.33,11.19-29.37
		c5.45-4.98,18.01-3.76,17.07,5.45c-0.72,6.12-5.34,9.89-10.13,13.1c-5.44,3.93-1.12,10.66-6.9,15.48
		c-4.29,3.85,1.35,9.18-0.79,13.94C87.31,160.72,74.48,151.48,74.01,142.48z"/>
	<path class="st10" d="M65.02,160.31c-5.21-1.37-7.16-3.41-10.04-0.46c-5.34,4.41-8,12.66-15.6,13.59c-6.42,1.17-8.67-7.35-3.08-9.7
		c5.51-2.02,10.33-2.48,11.41-9.22c1.54-13.16,20.62-13.31,24.99-2.08C74.86,157.73,70.23,161.68,65.02,160.31z"/>
	<path class="st10" d="M51.04,129.12c-3.32-5.55-5-8.61,0.92-14.08c5.43-6.32,17.81-4.61,17.14,5.1
		c-0.77,6.53-10.74,0.98-12.03,9.21c0.04,2.38,2,4.04,3.61,5.57c5.24,6.62-7.91,8.61-12.26,7.37c-6.54-0.73-11.01-11.37-2.46-12.87
		C47.76,129.31,49.12,129.37,51.04,129.12z"/>
	<path class="st9" d="M76.8,168.83c4.8,0,8.54-0.38,9.46,2.58c0.92,2.96-1.5,16.31-9.6,16.31s-10.24-13.24-9.76-15.77
		C67.38,169.43,72,168.83,76.8,168.83z"/>
	<path class="st10" d="M76.83,170.57c-1.59-2.19-1.58-4.53-0.65-6.94c0.41-1.05,0.91-2.06,1.41-3.08c0.76-1.55,0.85-3.1,0.1-4.69
		c-1.93-4.08,0.79-0.88,1-0.49c0.93,1.71,1.13,3.49,0.29,5.32c-0.38,0.82-0.7,1.67-1.09,2.48c-0.92,1.9-1.21,3.85-0.6,5.91
		C77.43,169.55,78.09,172.48,76.83,170.57z"/>
	<path class="st19" d="M79.79,166.97c0.46-1.69,1.6-3.21,2.81-4.42c3.73-3.72,4.3-7.79,2.24-12.53c-1.1-2.52-2.21-5.19-1.5-7.99
		c0.47-1.84,1.41-3.6,2.36-5.28c0.75-1.33,1.81-2.49,2.8-3.67c4.05-4.84,5.22-10.49,4.87-16.62c-0.09-1.57-0.05-3.18,0.18-4.73
		c0.48-3.15,2.49-5.26,5.18-6.75c1.14-0.63,4.4-1.62,4.79-1.19c0.6,0.47-1.95,1.39-2.81,1.78c-4.84,2.19-6.64,6.16-6.08,11.45
		c0.54,5.13-0.29,10.13-2.84,14.7c-0.94,1.69-2.25,3.17-3.39,4.75c-0.66,0.92-1.37,1.81-1.97,2.77c-1.48,2.37-1.76,4.87-0.84,7.54
		c0.74,2.13,1.53,4.27,1.96,6.47c0.66,3.42-0.12,6.61-2.6,9.17c-1.65,1.7-3.72,3.22-4.27,5.57
		C80.16,170.23,78.36,172.17,79.79,166.97z"/>
	<path class="st19" d="M72.48,167.15c0.05-3.46-0.82-6.6-2.99-9.35c-3.23-4.08-7.09-5.16-11.94-3.24c-2.85,1.12-5.15,2.89-6.95,5.43
		c-1.95,2.76-4.12,5.38-6.27,7.99c-1.04,1.26-2.5,1.73-4.14,1.56c-2.58-0.27-2.64-0.93-0.19-0.93c3.28,0,4.78-2.88,6.52-5.09
		c1.17-1.49,2.08-3.18,3.18-4.73c3.06-4.28,7.34-6.47,12.52-6.5c4.76-0.03,7.95,2.81,9.98,6.84c1.54,3.05,2.45,6.33,1.33,9.81
		C73.49,169.06,72.33,171.49,72.48,167.15z"/>
	<path class="st10" d="M79.7,104.13c0.81,0.96,2.04,9.47,1.05,13.56c-0.98,4.06-3.49,7.07-6.62,9.67c-1.81,1.5-3.13,3.34-3.92,5.58
		c-0.7,1.99-0.44,3.8,0.62,5.56c0.77,1.28,2.32,4.17,1.51,4.48c-0.72,0.28-5.1-7.57-3-11.65c0.99-1.92,2.37-3.84,4.04-5.17
		c5.87-4.69,7.13-10.9,6.5-17.86C79.76,106.97,79.29,103.63,79.7,104.13z"/>
	<path class="st19" d="M64.59,117.44c-0.57,0.21-1.12,0.46-1.7,0.63c-6.49,1.88-6.8,5.37-5.81,10.11c0.17,0.79,0.35,1.6,0.35,2.4
		c-0.01,2.35-0.77,4.29-3.01,5.5c-1.5,0.8-3.04,1.67-3.02,3.78c-1.2-0.81-1.49-1.79-0.64-2.71c0.81-0.88,1.76-1.75,2.82-2.27
		c2.26-1.11,2.86-2.82,2.42-5.71c-0.23-1.51-0.63-3.01-0.69-4.52c-0.12-3.44,2.16-6.38,5.51-7.3c0.82-0.23,1.67-0.41,2.52-0.52
		c0.41-0.05,0.84,0.14,1.27,0.22C64.59,117.18,64.59,117.31,64.59,117.44z"/>
	<path class="st10" d="M52.48,145.7c-0.79,0.09-1.58,0.17-2.36,0.28c-2.87,0.41-5.23,1.91-7.57,3.49c-2.17,1.46-4.52,2.52-7.13,2.77
		c-1.14,0.11-2.38,0.09-3.48-0.27c-3.7-1.22-2.91-2.84-0.55-1.73c2.77,1.32,5.42,0.6,7.95-0.62c1.5-0.72,2.86-1.73,4.26-2.64
		c2.17-1.42,3.72-2.24,6.38-2.05C50.61,144.97,52.71,145.19,52.48,145.7z"/>
	<path class="st10" d="M95.09,157.46c-0.42-0.22,0.59-1.38,3.44-6.76c2.57-4.87,8.2-3.37,9.14-3.34c2.52,0.1,3.65-0.64,3.8-0.17
		c0.15,0.48-1.3,1.17-2.58,1.04c-6.8-0.67-8.2,1.01-9.84,4.37C97.74,155.31,95.52,157.68,95.09,157.46z"/>
</g>
<g>
	<path class="st20" d="M187.76,278.77c-2.89-11.92-5.78-23.85-8.68-35.77c-0.12-0.48-0.27-0.96-0.45-1.43
		c-0.33-0.82-0.78-1.67-1.83-1.37c-1.05,0.29-1.25,1.2-1.03,2.18c0.25,1.12,0.53,2.24,0.8,3.35c3.22,12.97,6.43,25.95,9.67,38.92
		c0.31,1.25,1.23,6.51,2.73,6.51S188.44,281.57,187.76,278.77z"/>
	<path class="st20" d="M132.95,284.89c1.92-6.34,3.8-12.69,5.67-19.04c2.21-7.5,4.41-15.01,6.57-22.53
		c0.28-0.97,0.72-2.34-0.63-2.69c-1.24-0.32-1.56,1.08-1.82,1.97c-1.62,5.6-3.08,11.25-4.74,16.83c-2.76,9.26-10.96,32.42-9.05,32.9
		C130.86,292.79,132.37,286.79,132.95,284.89z"/>
	<path class="st16" d="M144.98,248.5c8.15,3.86,26.79,12.08,34.98,15.89c3.13,1.47,4.12,0.39,0.17-1.7
		c-11.29-5.98-23.23-10.77-34.89-16.08C143.85,245.98,140.07,246.18,144.98,248.5z"/>
	<path class="st16" d="M144.12,261.59c10.52-4.47,21.02-8.99,31.52-13.5c2.47-0.99,2.97-2.78-0.57-1.76
		c-3.54,1.02-33.25,13.92-35.83,15.13C138.36,261.89,137.46,263.61,144.12,261.59z"/>
	<g>
		<g>
			<path class="st21" d="M159.18,167.95c-30.3-0.72-47.71,22.51-48.25,44.6c-0.7,12.19,7.56,26.36,24.63,27.95
				c25.3,4.5,69.31,2.42,71.3-23.61C208.98,196.66,189.93,168.68,159.18,167.95z M178.27,223.69c-0.78,4.22-18.11,4.56-28.08,3.83
				c-6.72-0.26-9.98-2.55-9.7-4.53c0.22-3.58,7.07-7.35,19-7.23C171.61,215.88,179.11,220.41,178.27,223.69z"/>
		</g>
	</g>
</g>
</svg>
