<?xml version="1.0" encoding="utf-8"?>
<!-- Generator: Adobe Illustrator 25.2.1, SVG Export Plug-In . SVG Version: 6.00 Build 0)  -->
<svg version="1.1" id="Capa_1" xmlns="http://www.w3.org/2000/svg" xmlns:xlink="http://www.w3.org/1999/xlink" x="0px" y="0px"
	 viewBox="0 0 300 300" style="enable-background:new 0 0 300 300;" xml:space="preserve">
<style type="text/css">
	.st0{fill:none;stroke:#029AA4;stroke-width:10;stroke-miterlimit:10;}
	.st1{fill:none;stroke:#B3B3B3;stroke-width:18;stroke-miterlimit:10;}
	.st2{fill:none;stroke:#999999;stroke-width:28;stroke-miterlimit:10;}
	.st3{fill:#E6E6E6;}
	.st4{fill:#4285F4;}
	.st5{fill:#FFFFFF;}
	.st6{fill:#4D4D4D;}
	.st7{fill:#E60D57;}
	.st8{fill:#C1BEDF;}
	.st9{fill:#EA4335;}
	.st10{fill:#34A853;}
	.st11{fill:#606060;}
	.st12{fill:#FBBC04;}
	.st13{fill:#029AA4;}
	.st14{fill:#596CF7;}
	.st15{fill:#DEE2FD;}
	.st16{fill:#AAB5D2;}
	.st17{fill:#3D5196;}
	.st18{fill:#C2A09C;}
	.st19{fill:#80AD84;}
	.st20{fill:#A06A63;}
	.st21{fill:#B3B3B3;}
	.st22{fill:url(#SVGID_11_);}
	.st23{opacity:0.7;fill:none;stroke:#FFC55E;stroke-miterlimit:10;}
	.st24{opacity:0.62;fill:#FFFFFF;}
	.st25{fill:none;stroke:#DDB6C0;stroke-miterlimit:10;}
	.st26{fill:none;stroke:#FFFFFF;stroke-miterlimit:10;}
	.st27{fill:#83A1B7;}
	.st28{fill:#666666;}
	.st29{fill:#BCBCBC;}
	.st30{fill:#FFD4B3;}
	.st31{fill:#5E98FF;}
	.st32{opacity:0.55;fill:#A9E1EA;}
	.st33{opacity:0.77;fill:#FFFFFF;}
	.st34{fill:#FDC8A8;}
	.st35{opacity:0.09;fill:#5E98FF;}
	.st36{opacity:0.16;fill:#5E98FF;}
	.st37{opacity:0.43;fill:#3C7BD6;}
	.st38{fill:#D0D6E2;}
	.st39{fill:#FCDDD0;}
	.st40{opacity:0.9;}
	.st41{fill:#B5CEE5;}
	.st42{fill:#74ECF3;}
	.st43{fill:#A5C6E5;}
	.st44{fill:url(#SVGID_12_);}
	.st45{fill:#2A3858;}
	.st46{fill:#4853A3;}
	.st47{fill:#F7A280;}
	.st48{fill:#3A3B96;}
	.st49{fill:#E09476;}
	.st50{fill:#1D145A;}
	.st51{fill:#302D7F;}
	.st52{fill:#B03724;}
	.st53{fill:#EF4923;}
	.st54{fill:#343286;}
</style>
<path class="st3" d="M12.04,127c4.03-167.12,281.1-83.83,281.95,47.3c0.44,66.88-36.71,103-130.85,58.17
	c-21.18-10.09-48.67-1.54-79.97-8.37C51.87,217.28,10.51,190.52,12.04,127z"/>
<g>
	<defs>
		<path id="SVGID_13_" d="M294,174.31C293.14,43.17,16.07-40.11,12.04,127c-1.53,63.51,39.83,90.27,71.13,97.1
			c31.3,6.83,58.8-1.72,79.97,8.37C257.29,277.31,294.43,241.19,294,174.31"/>
	</defs>
	<clipPath id="SVGID_2_">
		<use xlink:href="#SVGID_13_"  style="overflow:visible;"/>
	</clipPath>
</g>
<g>
	<polygon class="st9" points="81.46,119.38 97.66,119.38 97.34,103.36 81.46,103.36 	"/>
	<polygon class="st9" points="52.33,107.1 68.21,107.1 68.21,91.08 52.65,91.08 	"/>
	<polygon class="st9" points="55.79,132.43 71.67,132.43 71.99,116.41 55.79,116.41 	"/>
</g>
<g>
	<path class="st45" d="M48.44,191.38c-1.45-0.03-1.94-0.46-2.48-2.31c-1.46-4.93-4.99-29.11-5.37-31.59
		c-0.47-3.05,1.34-3.18,4.64-3.17c0.2,0.06,50.08,0.35,50.41,0.35c2.2,0.05,3.15,2.09,3.06,4.08c1.26,9.39,5.11,29.76,4.87,31.07
		c-0.3,1.61-1.55,1.93-2.84,2.06C99.51,192,49.71,191.41,48.44,191.38z"/>
	<path class="st16" d="M47.21,191.89c-0.76-0.46-1.38-3.11-1.4-3.35c-0.02-0.28,69.21-0.28,69.55-0.28
		c2.25,0.01,1.02,3.46-0.32,3.47C113.77,191.74,47.49,192.07,47.21,191.89z"/>
	<path class="st17" d="M83.64,165.61c-0.14,0.05-0.23,0.07-0.31,0.11c-0.72,0.41-1.46,0.79-2.16,1.23
		c-2.55,1.61-5.11,3.21-7.63,4.88c-1.65,1.09-3.24,2.29-4.84,3.45c-0.23,0.16-0.42,0.39-0.6,0.61c-0.06,0.07-0.07,0.24-0.03,0.31
		c0.05,0.08,0.2,0.14,0.28,0.12c0.19-0.05,0.38-0.15,0.55-0.26c1.39-0.91,2.77-1.83,4.16-2.74c0.6-0.39,1.21-0.76,1.81-1.16
		c2.06-1.37,4.12-2.73,6.16-4.13c0.76-0.52,1.48-1.11,2.21-1.68C83.46,166.19,83.67,166.02,83.64,165.61z"/>
	<path class="st17" d="M74.91,166.7c-0.26,0.08-0.53,0.12-0.77,0.25c-0.75,0.39-1.51,0.77-2.22,1.22c-1.41,0.88-2.79,1.8-4.18,2.7
		c-0.71,0.46-1.44,0.9-2.13,1.39c-0.48,0.33-0.92,0.73-1.37,1.1c-0.1,0.08-0.19,0.19-0.27,0.3c-0.23,0.31-0.26,0.58-0.11,0.8
		c0.17,0.24,0.44,0.3,0.8,0.1c0.54-0.3,1.09-0.59,1.6-0.95c1.91-1.33,3.82-2.66,5.69-4.03c0.88-0.65,1.69-1.4,2.53-2.11
		c0.2-0.17,0.35-0.39,0.52-0.59C74.97,166.8,74.94,166.75,74.91,166.7z"/>
</g>
<g>
	<path class="st16" d="M104.33,8.62c1.68,0,1.04,18.85,1.26,34.16c0.16,11.34,0.27,21.22-0.6,21.22c-1.09,0-1.37-15.45-1.48-29.9
		C103.4,21.41,102.65,8.62,104.33,8.62z"/>
	<path class="st5" d="M107.83,84.3c3.94-1.95,7.16-6.28,4.77-11.53c-2.19-4.82-6.97-6.67-11.43-4.81
		c-4.47,1.85-7.13,6.61-4.77,11.53C98.76,84.41,103.89,86.25,107.83,84.3z"/>
	<path class="st45" d="M98.65,64.98c2.49-6.08,2.93-13.8,3.3-16.5c0.37-2.7,4.49-3.19,5.18,0c0.68,3.19,2.73,13.02,4.2,17.77
		c1.47,4.75,18.87,4.62,18.39,10.32c-0.09,1.08-13.46,0.23-26.52,0.09c-12.31-0.13-24.27,0.51-24.27-0.47
		C78.92,71.97,96.16,71.06,98.65,64.98z"/>
</g>
<g>
	<path class="st16" d="M36.16,280.72c0.89,1.21,1.79,1.28,2.69,0.03c2.98-9.81,5.31-19.8,8.04-29.68
		c4.13-15.78,8.33-31.56,12.38-47.36c0.36-2.87,2.29-6.6,0.92-9.25c-2.65,0.83-4.52,12.52-5.76,15.57
		C48.12,233.57,42.01,257.07,36.16,280.72z"/>
	<path class="st16" d="M240.53,196.29c6.42,28.95,13.05,57.45,18.99,86.43c0.18,2.21,3.79,1.87,3.01-0.48
		c-6.64-28.43-12.43-57.01-18.81-85.49C243.28,194.54,241.76,193.9,240.53,196.29z"/>
	<polygon class="st5" points="276.51,199.3 25.39,199.48 25.41,191.38 276.51,191.18 	"/>
</g>
<g>
	<path class="st16" d="M149.83,283.69c0.68-2.31-6.43-3.69-6.69-1.89c-0.44,3.08-6.52,7.18-5.08,9.48c0.28,0.45,8.99,4.53,11.4,2.62
		C151.82,292.04,149.24,285.69,149.83,283.69z"/>
	<path class="st16" d="M127.77,279.4c3.77-5.4,9.06-3.27,8.79-0.02c-0.34,4.06,1.48,4.01-0.41,9.37
		c-1.72,4.88-11.11,1.29-11.85,0.98c-3.89-1.65-7.04-5.67-5.79-8.84C119.26,278.98,127.17,280.26,127.77,279.4z"/>
	<path class="st17" d="M126.57,243.2c1.26-8.77,13.37-6.97,14.54-6.48c4.46,2.62,2.03,45.07,2.03,45.07c0.48,1.77,4.22,2.02,6.6,2.4
		c1.92,0.31,14.63-39.9,15.54-49.47c1.78-18.82-14.1-24.23-33.65-25.44c-12.91-0.8-27.39,0.82-30.89,9.61
		c-5.44,13.65,19.01,54.91,23.35,61.15c1.66,2.4,12.45,2.67,12.55,0.91C137.3,270.21,125.95,247.53,126.57,243.2z"/>
	<path class="st17" d="M115.95,214.64c-1.06,5.2-0.87,20.55,9.19,23.99c8.2,2.8,13.67-0.43,16.5-0.43c2.83,0,11.21,2.54,17.4-0.28
		c9.03-4.12,8.6-20.53,7.32-25.64c-2.14-8.52-10.77,0.32-24.72,0.32C127.7,212.59,117.85,205.34,115.95,214.64z"/>
	<path class="st18" d="M97.48,191.73c-4.48,0-11.51,0-13.2,0c-2.15,0-0.27-2.43,0.16-3.19c0.85-1.5,5.08-4.35,8.44-4.35
		c0.94,0,6.08,1.9,7.44,4.05C101.5,190.12,99.05,191.73,97.48,191.73z"/>
	<path class="st18" d="M145.21,118.29c3.23-7.64-0.89-18.81-6.59-21.85c-5.7-3.03-15.55,0.12-18.56,7.61
		c-3.28,8.15,0.38,22.4,4.45,25.53C129.22,133.2,141.99,125.92,145.21,118.29z"/>
	<path class="st18" d="M147.7,135.83c-1.11-4.03-2.98-3.76-2.07-18.69c0.17-2.74-17.06,8.1-15.73,11.22c1.64,3.85,0,8.01,0,8.01
		C131.29,140.61,148.81,139.85,147.7,135.83z"/>
	<path class="st10" d="M102.72,166.57c2.97-11.04,4.16-18.53,8.23-23.17c5.72-6.51,15.57-7.67,30.43-7.67
		c7.41,0,14.3,0.89,19.55,3.68c8.36,4.43,13.51,13.13,17.24,26.58c6.08,21.89,3.84,33.59-1.13,35.8
		c-4.58,2.04-11.13-5.27-12.39-8.84c-1.26-3.56-2.17-2.1-1.77,1.42c0.88,7.73,1.87,9.32,3.49,17.37c1.76,8.77-51.03,7.21-50.24,1.05
		c1.58-12.46,1.56-13.32,2.1-21.89c0.12-1.95-0.54-3.4-1.46-1.66c-1.34,2.52-3.37,14.89-11.19,13.25
		C97.06,200.69,99.91,177.01,102.72,166.57z"/>
	<path class="st10" d="M106.55,204.44c-10.34,0.54-16.44-12.39-16-14.06c0.89-3.3,4.36-3.54,6.52-3.29
		c3.18,0.38,4.82-0.68,8.99,3.89C110.24,195.56,114.34,204.04,106.55,204.44z"/>
	<path class="st45" d="M148.02,115.35c4.3-11-1.1-16.75-6.8-19.78c-4.62-2.46-8.65-2.8-16.06,0.53c-4.31,1.94-4.59-1.16-5.74,1.3
		c-1.15,2.46-0.24,4.85,4.2,9.26c1.92,1.91,0.18,6.07,1.78,7.6c1.13,1.08,3.01-5.86,4.44-1.74c2.03,5.88,2.02,11.67,4.08,13.25
		c2.1,1.61,9.84,0.84,11.51-0.1C145.43,125.68,146.34,119.64,148.02,115.35z"/>
	<path class="st45" d="M127.25,111.59c1.2-1.18,2.98-0.33,3.21,1.26c0.31,2.45-2.22,6.58-2.58,6.41c-0.35-0.17,2.09-4.4,1.68-6.15
		c-0.21-0.87-1.08-1.43-1.9-0.6c-0.69,0.63-1.32,2.23-1.87,2.08C125.5,114.51,126.05,112.77,127.25,111.59z"/>
</g>
<g>
	<path class="st20" d="M115.75,281.56c2.85-11.86,5.7-23.72,8.56-35.57c0.12-0.48,0.26-0.96,0.45-1.42
		c0.33-0.82,0.77-1.66,1.81-1.36c1.04,0.29,1.23,1.2,1.01,2.17c-0.25,1.11-0.52,2.22-0.79,3.33c-3.17,12.9-6.33,25.81-9.53,38.71
		c-0.31,1.24-1.21,6.47-2.69,6.47C113.09,293.89,115.08,284.35,115.75,281.56z"/>
	<path class="st20" d="M169.79,287.65c-1.89-6.3-3.75-12.62-5.59-18.94c-2.18-7.46-4.34-14.93-6.48-22.4
		c-0.28-0.96-0.71-2.33,0.63-2.68c1.22-0.32,1.54,1.07,1.79,1.96c1.6,5.57,3.03,11.18,4.67,16.74c2.72,9.21,10.8,32.25,8.92,32.72
		C171.85,295.51,170.36,289.54,169.79,287.65z"/>
	<path class="st16" d="M157.93,251.46c-8.04,3.84-26.41,12.02-34.48,15.8c-3.08,1.46-4.06,0.39-0.16-1.69
		c11.13-5.95,22.9-10.72,34.39-16C159.04,248.95,162.77,249.15,157.93,251.46z"/>
	<path class="st16" d="M158.77,264.48c-10.37-4.45-20.72-8.94-31.08-13.42c-2.43-0.99-2.93-2.77,0.56-1.75
		c3.49,1.02,32.78,13.84,35.33,15.05C164.46,264.78,165.34,266.49,158.77,264.48z"/>
	<path class="st12" d="M143.97,171.35c23.7-0.71,37.32,22.39,37.75,44.36c0.55,12.13-5.91,26.21-19.27,27.79
		c-19.79,4.48-54.22,2.41-55.77-23.48C105.02,199.9,119.92,172.07,143.97,171.35z M128.26,226.79c0.77,4.2,17.86,4.53,27.68,3.81
		c6.63-0.26,9.83-2.54,9.56-4.51c-0.21-3.56-6.97-7.31-18.73-7.19C134.83,219.01,127.44,223.52,128.26,226.79z"/>
</g>
</svg>
