<?xml version="1.0" encoding="utf-8"?>
<!-- Generator: Adobe Illustrator 25.2.1, SVG Export Plug-In . SVG Version: 6.00 Build 0)  -->
<svg version="1.1" id="Capa_1" xmlns="http://www.w3.org/2000/svg" xmlns:xlink="http://www.w3.org/1999/xlink" x="0px" y="0px"
	 viewBox="0 0 300 300" style="enable-background:new 0 0 300 300;" xml:space="preserve">
<style type="text/css">
	.st0{fill:#029AA4;}
	.st1{enable-background:new    ;}
	.st2{fill:#333333;}
</style>
<g id="g2387" transform="matrix(1.5348001,0,0,1.5348001,-329.14076,-495.12879)">
	<g>
		<path id="path2125_9_" class="st0" d="M257.06,325.86c-12.72,0-22.95,10.54-23.32,23.57c-8.77,0.7-15.68,7.92-15.68,16.91
			c0,9.45,7.6,17.1,17,17.1h4.78c0.52,0,0.95-0.43,0.95-0.95c0-0.52-0.43-0.95-0.95-0.95h-4.78c-8.38,0-15.1-6.76-15.1-15.2
			c0-8.28,6.47-14.94,14.63-15.19c0.52-0.02,0.93-0.44,0.92-0.96c0-0.03,0-0.05,0-0.08c0-12.37,9.65-22.35,21.55-22.35
			c8.01,0,15.35,4.6,19.08,11.97c0.23,0.47,0.81,0.66,1.28,0.43c0.05-0.02,0.1-0.05,0.14-0.09c2.45-1.81,5.38-2.78,8.39-2.78
			c7.35,0,13.55,5.7,14.4,13.32c0.05,0.41,0.35,0.75,0.76,0.83c6.93,1.38,12.12,7.49,12.12,14.89c0,8.44-6.72,15.2-15.1,15.2h-4.78
			c-0.53,0-0.95,0.42-0.96,0.95l0,0c0,0.53,0.43,0.95,0.95,0.95l0,0h4.78c9.41,0,17-7.65,17-17.1c0-8.08-5.58-14.75-13.07-16.54
			c-1.22-8.21-7.98-14.41-16.11-14.41c-3.09,0-6.05,1.02-8.65,2.7C273.13,330.6,265.47,325.86,257.06,325.86z"/>
		<g id="g2365_9_">
			<path id="rect2127_9_" class="st0" d="M246.32,370.34c-1.67,0-3.05,1.37-3.05,3.04v7.4c0,1.67,1.38,3.04,3.05,3.04h40.54
				c1.67,0,3.04-1.37,3.04-3.04v-7.4c0-1.67-1.37-3.04-3.04-3.04H246.32z M246.32,372.24h40.54c0.65,0,1.14,0.49,1.14,1.14v7.4
				c0,0.65-0.49,1.14-1.14,1.14h-40.54c-0.65,0-1.15-0.49-1.15-1.14v-7.4C245.17,372.74,245.67,372.24,246.32,372.24z"/>
			<g id="circle2129_9_">
				<path id="path2299_9_" class="st0" d="M253.1,377.09c0,0.9-0.73,1.62-1.62,1.62s-1.62-0.73-1.62-1.62s0.73-1.62,1.62-1.62
					S253.1,376.19,253.1,377.09z"/>
				<path id="path2301_9_" class="st0" d="M251.48,374.51c-1.41,0-2.57,1.17-2.57,2.58c0,1.41,1.16,2.58,2.57,2.58
					s2.58-1.17,2.58-2.58C254.05,375.68,252.89,374.51,251.48,374.51z M251.48,376.42c0.38,0,0.67,0.29,0.67,0.67
					s-0.29,0.67-0.67,0.67s-0.67-0.29-0.67-0.67C250.81,376.7,251.1,376.42,251.48,376.42z"/>
			</g>
			<path id="path2131_9_" class="st0" d="M274.95,377.06c-0.52,0-0.95,0.43-0.95,0.95c0,0.52,0.43,0.95,0.95,0.95h2.71
				c0.52,0,0.95-0.43,0.95-0.95c0-0.52-0.43-0.95-0.95-0.95H274.95z"/>
			<path id="path2133_9_" class="st0" d="M280.53,377.06c-0.53,0-0.95,0.42-0.96,0.95l0,0c0,0.53,0.43,0.95,0.95,0.95l0,0h2.7
				c0.53,0,0.95-0.42,0.96-0.95l0,0c0-0.53-0.43-0.95-0.95-0.95l0,0H280.53z"/>
			<path id="rect2135_8_" class="st0" d="M246.32,385.17c-1.67,0-3.05,1.38-3.05,3.05v7.4c0,1.67,1.38,3.05,3.05,3.05h40.54
				c1.67,0,3.04-1.38,3.04-3.05v-7.4c0-1.67-1.37-3.05-3.04-3.05H246.32z M246.32,387.08h40.54c0.65,0,1.14,0.49,1.14,1.14v7.4
				c0,0.65-0.49,1.14-1.14,1.14h-40.54c-0.65,0-1.15-0.49-1.15-1.14v-7.4C245.17,387.57,245.67,387.08,246.32,387.08z"/>
			<g id="circle2137_8_">
				<path id="path2317_8_" class="st0" d="M253.1,391.92c0,0.9-0.73,1.62-1.62,1.62s-1.62-0.73-1.62-1.62c0-0.9,0.73-1.62,1.62-1.62
					S253.1,391.02,253.1,391.92z"/>
				<path id="path2319_8_" class="st0" d="M251.48,389.35c-1.41,0-2.57,1.17-2.57,2.58c0,1.41,1.16,2.57,2.57,2.57
					s2.58-1.16,2.58-2.57C254.05,390.51,252.89,389.35,251.48,389.35z M251.48,391.25c0.38,0,0.67,0.29,0.67,0.67
					s-0.29,0.67-0.67,0.67s-0.67-0.29-0.67-0.67S251.1,391.25,251.48,391.25z"/>
			</g>
			<path id="path2139_8_" class="st0" d="M274.95,391.9c-0.52,0-0.95,0.43-0.95,0.95c0,0.52,0.43,0.95,0.95,0.95h2.71
				c0.52,0,0.95-0.43,0.95-0.95c0-0.52-0.43-0.95-0.95-0.95H274.95z"/>
			<path id="path2141_8_" class="st0" d="M280.53,391.9c-0.53,0-0.95,0.42-0.96,0.95l0,0c0,0.53,0.43,0.95,0.95,0.95l0,0h2.7
				c0.53,0,0.95-0.42,0.96-0.95l0,0c0-0.53-0.43-0.95-0.95-0.95l0,0H280.53z"/>
			<path id="rect2143_8_" class="st0" d="M246.32,355.51c-1.67,0-3.05,1.38-3.05,3.05v7.4c0,1.67,1.38,3.05,3.05,3.05h40.54
				c1.67,0,3.04-1.38,3.04-3.05v-7.4c0-1.67-1.37-3.05-3.04-3.05H246.32z M246.32,357.41h40.54c0.65,0,1.14,0.49,1.14,1.14v7.4
				c0,0.65-0.49,1.14-1.14,1.14h-40.54c-0.65,0-1.15-0.49-1.15-1.14v-7.4C245.17,357.9,245.67,357.41,246.32,357.41z"/>
			<g id="circle2145_8_">
				<path id="path2335_8_" class="st0" d="M253.1,362.25c0,0.9-0.73,1.62-1.62,1.62s-1.62-0.73-1.62-1.62s0.73-1.62,1.62-1.62
					S253.1,361.36,253.1,362.25z"/>
				<path id="path2337_8_" class="st0" d="M251.48,359.68c-1.41,0-2.57,1.17-2.57,2.58s1.16,2.57,2.57,2.57s2.58-1.16,2.58-2.57
					S252.89,359.68,251.48,359.68z M251.48,361.58c0.38,0,0.67,0.29,0.67,0.67s-0.29,0.67-0.67,0.67s-0.67-0.29-0.67-0.67
					S251.1,361.58,251.48,361.58z"/>
			</g>
			<path id="path2147_8_" class="st0" d="M274.95,362.23c-0.52,0-0.95,0.43-0.95,0.95c0,0.52,0.43,0.95,0.95,0.95h2.71
				c0.52,0,0.95-0.43,0.95-0.95c0-0.52-0.43-0.95-0.95-0.95H274.95z"/>
			<path id="path2149_8_" class="st0" d="M280.53,362.23c-0.53,0-0.95,0.42-0.96,0.95l0,0c0,0.53,0.43,0.95,0.95,0.95l0,0h2.7
				c0.53,0,0.95-0.42,0.96-0.95l0,0c0-0.53-0.43-0.95-0.95-0.95l0,0H280.53z"/>
		</g>
	</g>
</g>
<g id="g2527" transform="matrix(1.5348001,0,0,1.5348001,-329.14076,-495.12879)">
	<g>
		<path id="rect2157_8_" class="st0" d="M341.98,422.69c-1.64,0-2.99,1.35-2.99,2.99v7.26c0,1.64,1.35,2.99,2.99,2.99h39.77
			c1.64,0,2.99-1.35,2.99-2.99v-7.26c0-1.64-1.35-2.99-2.99-2.99H341.98z M341.98,424.56h39.77c0.64,0,1.12,0.48,1.12,1.12v7.26
			c0,0.64-0.48,1.12-1.12,1.12h-39.77c-0.64,0-1.12-0.48-1.12-1.12v-7.26C340.86,425.04,341.34,424.56,341.98,424.56z"/>
		<path id="path2431_8_" class="st0" d="M348.64,429.31c0,0.88-0.71,1.59-1.59,1.59s-1.59-0.71-1.59-1.59s0.71-1.59,1.59-1.59
			S348.64,428.43,348.64,429.31z"/>
		<path id="path2433_8_" class="st0" d="M347.05,426.78c-1.38,0-2.53,1.14-2.53,2.53c0,1.38,1.14,2.53,2.53,2.53
			c1.38,0,2.52-1.14,2.52-2.53C349.57,427.93,348.43,426.78,347.05,426.78z M347.05,428.65c0.37,0,0.66,0.28,0.66,0.66
			c0,0.37-0.28,0.66-0.66,0.66c-0.37,0-0.66-0.28-0.66-0.66C346.38,428.93,346.67,428.65,347.05,428.65z"/>
		<path id="path2161_8_" class="st0" d="M370.07,429.29c-0.51,0-0.93,0.42-0.93,0.93c0,0.51,0.42,0.93,0.93,0.93h2.66
			c0.51,0,0.93-0.42,0.93-0.93c0-0.51-0.42-0.93-0.93-0.93H370.07z"/>
		<path id="path2163_8_" class="st0" d="M375.55,429.29c-0.51,0-0.93,0.42-0.93,0.93c0,0.51,0.42,0.93,0.93,0.93h2.66
			c0.51,0,0.93-0.42,0.93-0.93c0-0.51-0.42-0.93-0.93-0.93H375.55z"/>
		<path id="rect2165_8_" class="st0" d="M341.98,437.24c-1.64,0-2.99,1.35-2.99,2.99v7.26c0,1.64,1.35,2.99,2.99,2.99h39.77
			c1.64,0,2.99-1.35,2.99-2.99v-7.26c0-1.64-1.35-2.99-2.99-2.99H341.98z M341.98,439.11h39.77c0.64,0,1.12,0.48,1.12,1.12v7.26
			c0,0.64-0.48,1.12-1.12,1.12h-39.77c-0.64,0-1.12-0.48-1.12-1.12v-7.26C340.86,439.6,341.34,439.11,341.98,439.11z"/>
		<path id="path2449_8_" class="st0" d="M348.64,443.86c0,0.88-0.71,1.59-1.59,1.59s-1.59-0.71-1.59-1.59s0.71-1.59,1.59-1.59
			S348.64,442.98,348.64,443.86z"/>
		<path id="path2451_8_" class="st0" d="M347.05,441.34c-1.38,0-2.53,1.14-2.53,2.53s1.14,2.52,2.53,2.52
			c1.38,0,2.52-1.14,2.52-2.52S348.43,441.34,347.05,441.34z M347.05,443.2c0.37,0,0.66,0.29,0.66,0.66s-0.28,0.66-0.66,0.66
			c-0.37,0-0.66-0.28-0.66-0.66S346.67,443.2,347.05,443.2z"/>
		<path id="path2169_8_" class="st0" d="M370.07,443.84c-0.51,0-0.93,0.42-0.93,0.93c0,0.51,0.42,0.93,0.93,0.93h2.66
			c0.51,0,0.93-0.42,0.93-0.93c0-0.51-0.42-0.93-0.93-0.93H370.07z"/>
		<path id="path2171_8_" class="st0" d="M375.55,443.84c-0.51,0-0.93,0.42-0.93,0.93c0,0.51,0.42,0.93,0.93,0.93h2.66
			c0.51,0,0.93-0.42,0.93-0.93c0-0.51-0.42-0.93-0.93-0.93H375.55z"/>
		<path id="rect2173_8_" class="st0" d="M341.98,408.14c-1.64,0-2.99,1.35-2.99,2.99v7.26c0,1.64,1.35,2.99,2.99,2.99h39.77
			c1.64,0,2.99-1.35,2.99-2.99v-7.26c0-1.64-1.35-2.99-2.99-2.99H341.98z M341.98,410.01h39.77c0.64,0,1.12,0.48,1.12,1.12v7.26
			c0,0.64-0.48,1.12-1.12,1.12h-39.77c-0.64,0-1.12-0.48-1.12-1.12v-7.26C340.86,410.49,341.34,410.01,341.98,410.01z"/>
		<path id="path2467_8_" class="st0" d="M348.64,414.76c0,0.88-0.71,1.59-1.59,1.59s-1.59-0.71-1.59-1.59s0.71-1.59,1.59-1.59
			S348.64,413.88,348.64,414.76z"/>
		<path id="path2469_8_" class="st0" d="M347.05,412.23c-1.38,0-2.53,1.14-2.53,2.53c0,1.38,1.14,2.52,2.53,2.52
			c1.38,0,2.52-1.14,2.52-2.52C349.57,413.38,348.43,412.23,347.05,412.23z M347.05,414.1c0.37,0,0.66,0.29,0.66,0.66
			s-0.28,0.66-0.66,0.66c-0.37,0-0.66-0.28-0.66-0.66C346.38,414.38,346.67,414.1,347.05,414.1z"/>
		<path id="path2177_8_" class="st0" d="M370.07,414.74c-0.51,0-0.93,0.42-0.93,0.93c0,0.51,0.42,0.93,0.93,0.93h2.66
			c0.51,0,0.93-0.42,0.93-0.93c0-0.51-0.42-0.93-0.93-0.93H370.07z"/>
		<path id="path2179_8_" class="st0" d="M375.55,414.74c-0.51,0-0.93,0.42-0.93,0.93c0,0.51,0.42,0.93,0.93,0.93h2.66
			c0.51,0,0.93-0.42,0.93-0.93c0-0.51-0.42-0.93-0.93-0.93H375.55z"/>
	</g>
</g>
<g id="g2504" transform="matrix(1.5348001,0,0,1.5348001,-329.14076,-495.12879)">
	<g>
		<path id="path2183_9_" class="st0" d="M400.68,414.95c-0.52,0-0.93,0.42-0.93,0.93l0,0v22.65c0,0.52,0.41,0.94,0.93,0.94l0,0
			c0.52,0,0.93-0.42,0.93-0.93l0,0v-22.65C401.62,415.37,401.2,414.95,400.68,414.95L400.68,414.95z"/>
		<path id="path2185_9_" class="st0" d="M323.06,414.95c-0.52,0-0.93,0.42-0.93,0.93l0,0v22.65c0,0.52,0.41,0.94,0.93,0.94l0,0
			c0.52,0,0.93-0.42,0.93-0.93l0,0v-22.65C323.99,415.37,323.57,414.95,323.06,414.95L323.06,414.95z"/>
		<path id="path2189_9_" class="st0" d="M361.87,381.04c-0.23,0-0.44,0.08-0.61,0.23l-44.51,38.88c-0.39,0.34-0.43,0.93-0.09,1.32
			l0,0c0.34,0.39,0.93,0.43,1.32,0.09l0,0l44.5-38.88c0.39-0.34,0.43-0.93,0.09-1.32l0,0C362.4,381.16,362.14,381.04,361.87,381.04
			L361.87,381.04z"/>
		<path id="path2191_9_" class="st0" d="M361.88,381.04c-0.27,0-0.53,0.11-0.71,0.32c-0.34,0.39-0.3,0.98,0.09,1.32l0,0l44.5,38.88
			c0.39,0.34,0.98,0.3,1.32-0.09l0,0c0.34-0.39,0.3-0.98-0.09-1.32l0,0l-44.51-38.88C362.31,381.13,362.1,381.05,361.88,381.04
			L361.88,381.04z"/>
		<path id="circle2195_9_" class="st0" d="M361.87,393.25c-2.28,0-4.14,1.87-4.14,4.14c0,2.28,1.87,4.14,4.14,4.14
			c2.28,0,4.14-1.87,4.14-4.14C366.01,395.11,364.15,393.25,361.87,393.25z M361.87,395.12c1.27,0,2.27,1,2.27,2.27
			s-1,2.28-2.27,2.28s-2.28-1.01-2.28-2.28S360.6,395.12,361.87,395.12z"/>
	</g>
</g>
<path id="path2125_1_" class="st0" d="M64.86,181.06c-19.53,0-35.23,16.17-35.79,36.18C15.61,218.31,5,229.39,5,243.19
	c0,14.51,11.66,26.24,26.1,26.24h7.34c0.81,0,1.46-0.65,1.46-1.46s-0.65-1.46-1.46-1.46H31.1c-12.86,0-23.18-10.37-23.18-23.33
	c0-12.71,9.94-22.93,22.45-23.31c0.79-0.02,1.42-0.67,1.42-1.47c0-0.04,0-0.08,0-0.12c0-18.99,14.82-34.3,33.07-34.3
	c12.29,0,23.56,7.05,29.28,18.37c0.36,0.72,1.24,1.01,1.96,0.65c0.08-0.04,0.15-0.08,0.22-0.13c3.77-2.78,8.26-4.27,12.88-4.27
	c11.28,0,20.79,8.75,22.09,20.44c0.07,0.63,0.54,1.15,1.17,1.27c10.63,2.12,18.61,11.49,18.61,22.86
	c0,12.95-10.32,23.33-23.18,23.33h-7.34c-0.81,0-1.46,0.65-1.47,1.45l0,0c0,0.81,0.66,1.46,1.46,1.46l0,0h7.34
	c14.44,0,26.1-11.74,26.1-26.25c0-12.4-8.56-22.64-20.07-25.39c-1.88-12.6-12.25-22.11-24.72-22.11c-4.74,0-9.28,1.56-13.28,4.15
	C89.53,188.34,77.78,181.06,64.86,181.06z"/>
<g id="g2365_1_">
	<path id="rect2127_1_" class="st0" d="M52.33,245.51c-2.32,0-4.23,1.9-4.23,4.22v10.26c0,2.32,1.91,4.22,4.23,4.22h56.21
		c2.32,0,4.22-1.9,4.22-4.22v-10.26c0-2.32-1.9-4.22-4.22-4.22H52.33z M52.33,248.15h56.21c0.9,0,1.58,0.68,1.58,1.58v10.26
		c0,0.9-0.68,1.58-1.58,1.58H52.33c-0.9,0-1.59-0.68-1.59-1.58v-10.26C50.74,248.83,51.43,248.15,52.33,248.15z"/>
	<g id="circle2129_1_">
		<path id="path2299_1_" class="st0" d="M61.73,254.86c0,1.24-1.01,2.25-2.25,2.25s-2.25-1.01-2.25-2.25c0-1.24,1.01-2.25,2.25-2.25
			C60.72,252.61,61.73,253.62,61.73,254.86z"/>
		<path id="path2301_1_" class="st0" d="M59.47,251.29c-1.96,0-3.56,1.62-3.56,3.57c0,1.96,1.61,3.57,3.56,3.57
			c1.96,0,3.57-1.62,3.57-3.57C63.05,252.91,61.43,251.29,59.47,251.29z M59.47,253.93c0.53,0,0.93,0.4,0.93,0.93
			s-0.41,0.93-0.93,0.93c-0.53,0-0.93-0.4-0.93-0.93C58.55,254.33,58.95,253.93,59.47,253.93z"/>
	</g>
	<path id="path2131_1_" class="st0" d="M92.01,254.83c-0.73,0-1.32,0.59-1.32,1.32c0,0.73,0.59,1.32,1.32,1.32h3.75
		c0.73,0,1.32-0.59,1.32-1.32c0-0.73-0.59-1.32-1.32-1.32L92.01,254.83L92.01,254.83z"/>
	<path id="path2133_1_" class="st0" d="M99.76,254.83c-0.73,0-1.32,0.58-1.33,1.31l0,0c0,0.73,0.59,1.32,1.32,1.32l0,0h3.75
		c0.73,0,1.32-0.58,1.33-1.31l0,0c0-0.73-0.59-1.32-1.32-1.32l0,0L99.76,254.83L99.76,254.83z"/>
</g>
<g id="g2504_1_" transform="matrix(1.5348001,0,0,1.5348001,-329.14076,-495.12879)">
	<g>
		<path id="path2183_10_" class="st0" d="M294.87,483.98c-0.39,0-0.7,0.31-0.7,0.7l0,0v16.97c0,0.39,0.31,0.7,0.7,0.7l0,0
			c0.39,0,0.7-0.31,0.7-0.7l0,0v-16.97C295.57,484.29,295.26,483.98,294.87,483.98L294.87,483.98z"/>
		<path id="path2185_10_" class="st0" d="M236.72,483.98c-0.39,0-0.7,0.31-0.7,0.7l0,0v16.97c0,0.39,0.31,0.7,0.7,0.7l0,0
			c0.39,0,0.7-0.31,0.7-0.7l0,0v-16.97C237.42,484.29,237.11,483.98,236.72,483.98L236.72,483.98z"/>
		<path id="path2189_10_" class="st0" d="M265.8,458.58c-0.17,0-0.33,0.06-0.46,0.17l-33.35,29.13c-0.29,0.25-0.32,0.7-0.07,0.99
			l0,0c0.25,0.29,0.7,0.32,0.99,0.07l0,0l33.34-29.13c0.29-0.25,0.32-0.69,0.07-0.99l0,0C266.19,458.66,266,458.58,265.8,458.58
			L265.8,458.58z"/>
		<path id="path2191_10_" class="st0" d="M265.8,458.58c-0.2,0-0.4,0.09-0.53,0.24c-0.25,0.29-0.22,0.73,0.07,0.99l0,0l33.34,29.13
			c0.29,0.25,0.73,0.22,0.99-0.07l0,0c0.25-0.29,0.22-0.73-0.07-0.99l0,0l-33.35-29.13C266.13,458.64,265.97,458.58,265.8,458.58
			L265.8,458.58z"/>
		<path id="circle2195_10_" class="st0" d="M265.8,467.72c-1.71,0-3.1,1.4-3.1,3.1c0,1.71,1.4,3.1,3.1,3.1c1.71,0,3.1-1.4,3.1-3.1
			S267.5,467.72,265.8,467.72z M265.8,469.12c0.95,0,1.7,0.75,1.7,1.7s-0.75,1.71-1.7,1.71s-1.71-0.76-1.71-1.71
			C264.09,469.87,264.85,469.12,265.8,469.12z"/>
	</g>
</g>
<g class="st1">
	<path class="st2" d="M56.93,123.77l0.13,1.51c0.91-1.17,2.17-1.75,3.78-1.75c1.38,0,2.41,0.4,3.09,1.2
		c0.68,0.8,1.03,2.01,1.06,3.62v8.29h-4.13v-8.12c0-0.65-0.13-1.13-0.4-1.43s-0.76-0.46-1.47-0.46c-0.81,0-1.41,0.31-1.8,0.93v9.09
		h-4.12v-12.87H56.93z"/>
	<path class="st2" d="M75.15,135.25c-0.87,1.09-2.05,1.63-3.54,1.63c-1.45,0-2.55-0.41-3.3-1.23c-0.75-0.82-1.12-2-1.12-3.54v-8.34
		h4.12v8.36c0,1.1,0.55,1.65,1.65,1.65c0.95,0,1.62-0.33,2.02-0.99v-9.03h4.15v12.87h-3.87L75.15,135.25z"/>
	<path class="st2" d="M93.69,130.31c0,2.11-0.45,3.73-1.35,4.86c-0.9,1.13-2.16,1.7-3.79,1.7c-1.35,0-2.43-0.52-3.25-1.56
		l-0.17,1.32h-3.69v-18.27h4.12v6.43c0.77-0.85,1.76-1.27,2.97-1.27c1.65,0,2.92,0.57,3.82,1.72c0.9,1.15,1.35,2.77,1.35,4.85
		V130.31z M89.55,130.06c0-1.23-0.17-2.12-0.51-2.64c-0.34-0.53-0.86-0.79-1.56-0.79c-0.93,0-1.57,0.34-1.93,1.03v5.1
		c0.35,0.68,1,1.02,1.96,1.02c0.97,0,1.59-0.46,1.85-1.38C89.49,131.96,89.55,131.17,89.55,130.06z"/>
	<path class="st2" d="M101.91,136.88c-2.03,0-3.67-0.59-4.93-1.77c-1.26-1.18-1.88-2.71-1.88-4.6v-0.33c0-1.32,0.25-2.48,0.75-3.48
		s1.23-1.79,2.2-2.34c0.96-0.55,2.1-0.83,3.42-0.83c1.86,0,3.33,0.56,4.4,1.68c1.08,1.12,1.61,2.69,1.61,4.69v1.56h-8.2
		c0.15,0.72,0.47,1.29,0.97,1.7c0.5,0.41,1.14,0.62,1.93,0.62c1.3,0,2.32-0.44,3.06-1.33l1.88,2.16c-0.51,0.69-1.24,1.24-2.18,1.65
		S102.99,136.88,101.91,136.88z M101.44,126.63c-1.21,0-1.92,0.78-2.15,2.33h4.16v-0.31c0.02-0.64-0.15-1.14-0.5-1.49
		C102.6,126.8,102.09,126.63,101.44,126.63z"/>
</g>
<g class="st1">
	<path class="st2" d="M163.11,209.4c0-1.28,0.26-2.43,0.77-3.43s1.25-1.77,2.21-2.31c0.96-0.54,2.09-0.81,3.39-0.81
		c1.98,0,3.54,0.6,4.69,1.79c1.14,1.19,1.71,2.82,1.71,4.87v0.14c0,2.01-0.57,3.6-1.72,4.77c-1.15,1.18-2.7,1.77-4.65,1.77
		c-1.88,0-3.4-0.55-4.54-1.65c-1.14-1.1-1.76-2.59-1.85-4.46L163.11,209.4z M167.24,209.65c0,1.19,0.19,2.06,0.57,2.62
		s0.95,0.83,1.7,0.83c1.47,0,2.22-1.1,2.25-3.29v-0.4c0-2.31-0.76-3.46-2.28-3.46c-1.38,0-2.12,0.99-2.24,2.98L167.24,209.65z"/>
	<path class="st2" d="M181.49,203.09l0.13,1.51c0.91-1.17,2.17-1.75,3.78-1.75c1.38,0,2.41,0.4,3.09,1.2s1.03,2.01,1.06,3.62v8.29
		h-4.13v-8.12c0-0.65-0.13-1.13-0.4-1.43c-0.27-0.3-0.76-0.46-1.47-0.46c-0.81,0-1.41,0.31-1.8,0.93v9.08h-4.12v-12.87H181.49z"/>
	<path class="st2" d="M210.35,209.62c0,2-0.46,3.59-1.39,4.79c-0.92,1.19-2.17,1.79-3.75,1.79c-1.21,0-2.21-0.43-3-1.3v6.01h-4.12
		v-17.81h3.85l0.12,1.19c0.79-0.95,1.83-1.43,3.12-1.43c1.63,0,2.9,0.58,3.8,1.75c0.91,1.17,1.36,2.78,1.36,4.82V209.62z
		 M206.23,209.37c0-2.28-0.69-3.42-2.05-3.42c-0.98,0-1.63,0.34-1.96,1.02v5.07c0.36,0.71,1.02,1.07,1.98,1.07
		c1.31,0,1.99-1.1,2.03-3.31V209.37z"/>
	<path class="st2" d="M220.18,206.71l-1.36-0.09c-1.3,0-2.13,0.4-2.5,1.19v8.15h-4.12v-12.87h3.87l0.13,1.65
		c0.69-1.26,1.66-1.89,2.9-1.89c0.44,0,0.82,0.05,1.15,0.14L220.18,206.71z"/>
	<path class="st2" d="M227.83,216.19c-2.03,0-3.67-0.59-4.93-1.77s-1.88-2.71-1.88-4.6v-0.33c0-1.32,0.25-2.48,0.75-3.48
		c0.5-1.01,1.23-1.79,2.2-2.34c0.96-0.55,2.1-0.83,3.43-0.83c1.86,0,3.33,0.56,4.4,1.68c1.08,1.12,1.61,2.69,1.61,4.69v1.56h-8.2
		c0.15,0.72,0.47,1.29,0.97,1.7c0.5,0.41,1.14,0.62,1.93,0.62c1.3,0,2.32-0.44,3.06-1.33l1.88,2.17c-0.51,0.69-1.24,1.24-2.18,1.65
		S228.92,216.19,227.83,216.19z M227.37,205.94c-1.21,0-1.92,0.78-2.15,2.33h4.16v-0.31c0.02-0.64-0.15-1.14-0.5-1.49
		C228.52,206.12,228.02,205.94,227.37,205.94z"/>
	<path class="st2" d="M238.96,203.09l0.13,1.51c0.94-1.17,2.2-1.75,3.78-1.75c1.67,0,2.8,0.65,3.39,1.94
		c0.9-1.29,2.19-1.94,3.89-1.94c2.68,0,4.06,1.58,4.13,4.73v8.37h-4.13v-8.12c0-0.66-0.12-1.14-0.34-1.44
		c-0.23-0.3-0.64-0.45-1.25-0.45c-0.82,0-1.42,0.35-1.82,1.06l0.01,0.17v8.79h-4.13v-8.1c0-0.67-0.11-1.16-0.33-1.46
		c-0.22-0.3-0.64-0.45-1.26-0.45c-0.79,0-1.39,0.35-1.81,1.06v8.95h-4.12v-12.87H238.96z"/>
	<path class="st2" d="M256.62,199.77c0-0.57,0.21-1.04,0.63-1.4c0.42-0.36,0.97-0.55,1.65-0.55c0.68,0,1.23,0.18,1.65,0.55
		c0.42,0.37,0.64,0.83,0.64,1.4c0,0.57-0.21,1.04-0.64,1.4c-0.42,0.37-0.97,0.55-1.65,0.55c-0.68,0-1.23-0.18-1.65-0.55
		C256.83,200.81,256.62,200.34,256.62,199.77z M261,215.95h-4.13v-12.87H261V215.95z"/>
	<path class="st2" d="M270.46,212.34c0-0.34-0.18-0.61-0.55-0.82c-0.37-0.21-1.06-0.42-2.09-0.64s-1.88-0.51-2.54-0.87
		c-0.67-0.36-1.18-0.8-1.53-1.31c-0.35-0.51-0.53-1.11-0.53-1.77c0-1.18,0.5-2.15,1.5-2.92c1-0.76,2.32-1.15,3.94-1.15
		c1.75,0,3.15,0.38,4.21,1.15c1.06,0.77,1.59,1.78,1.59,3.03h-4.13c0-1.03-0.56-1.55-1.68-1.55c-0.43,0-0.79,0.12-1.09,0.35
		s-0.44,0.53-0.44,0.87c0,0.36,0.18,0.65,0.54,0.87c0.36,0.22,0.93,0.4,1.72,0.55s1.48,0.31,2.07,0.51
		c1.99,0.67,2.99,1.86,2.99,3.58c0,1.17-0.54,2.13-1.61,2.87s-2.46,1.11-4.17,1.11c-1.13,0-2.14-0.2-3.03-0.59
		c-0.89-0.4-1.58-0.94-2.08-1.62c-0.5-0.68-0.75-1.4-0.75-2.15h3.85c0.02,0.59,0.22,1.03,0.61,1.3c0.39,0.27,0.89,0.41,1.5,0.41
		c0.56,0,0.98-0.11,1.27-0.33C270.32,212.99,270.46,212.7,270.46,212.34z"/>
	<path class="st2" d="M282.77,216.19c-2.03,0-3.67-0.59-4.93-1.77s-1.88-2.71-1.88-4.6v-0.33c0-1.32,0.25-2.48,0.75-3.48
		c0.5-1.01,1.23-1.79,2.2-2.34c0.96-0.55,2.1-0.83,3.42-0.83c1.86,0,3.33,0.56,4.4,1.68c1.08,1.12,1.61,2.69,1.61,4.69v1.56h-8.2
		c0.15,0.72,0.47,1.29,0.97,1.7c0.5,0.41,1.14,0.62,1.93,0.62c1.3,0,2.32-0.44,3.06-1.33l1.88,2.17c-0.51,0.69-1.24,1.24-2.18,1.65
		S283.85,216.19,282.77,216.19z M282.3,205.94c-1.21,0-1.93,0.78-2.15,2.33h4.16v-0.31c0.02-0.64-0.15-1.14-0.5-1.49
		C283.46,206.12,282.96,205.94,282.3,205.94z"/>
</g>
<g class="st1">
	<path class="st2" d="M45.89,280.35c0.88-1.08,2.01-1.62,3.38-1.62c1.46,0,2.56,0.42,3.3,1.26c0.74,0.84,1.12,2.08,1.14,3.72v8.12
		h-4.13v-8.03c0-0.68-0.14-1.18-0.43-1.5c-0.29-0.32-0.77-0.48-1.46-0.48c-0.85,0-1.45,0.26-1.8,0.79v9.23h-4.12v-18.27h4.12V280.35
		z"/>
	<path class="st2" d="M55.97,275.66c0-0.57,0.21-1.04,0.64-1.4c0.42-0.37,0.97-0.55,1.65-0.55s1.23,0.18,1.65,0.55
		c0.42,0.36,0.64,0.83,0.64,1.4c0,0.57-0.21,1.04-0.64,1.4c-0.42,0.36-0.97,0.55-1.65,0.55s-1.23-0.18-1.65-0.55
		C56.18,276.7,55.97,276.23,55.97,275.66z M60.35,291.84h-4.13v-12.87h4.13V291.84z"/>
	<path class="st2" d="M75.17,285.52c0,2.11-0.45,3.73-1.35,4.86c-0.9,1.13-2.16,1.7-3.79,1.7c-1.35,0-2.43-0.52-3.25-1.56
		l-0.17,1.32h-3.69v-18.27h4.12v6.43c0.77-0.85,1.76-1.27,2.97-1.27c1.65,0,2.92,0.58,3.82,1.72c0.9,1.15,1.35,2.77,1.35,4.85
		V285.52z M71.04,285.26c0-1.23-0.17-2.12-0.51-2.64c-0.34-0.53-0.86-0.79-1.56-0.79c-0.93,0-1.57,0.34-1.93,1.03v5.11
		c0.35,0.68,1,1.02,1.96,1.02c0.97,0,1.59-0.46,1.85-1.38C70.97,287.16,71.04,286.38,71.04,285.26z"/>
	<path class="st2" d="M85,282.6l-1.36-0.1c-1.3,0-2.13,0.4-2.5,1.19v8.15h-4.12v-12.87h3.87l0.13,1.65c0.69-1.26,1.66-1.89,2.9-1.89
		c0.44,0,0.82,0.05,1.15,0.14L85,282.6z"/>
	<path class="st2" d="M86.45,275.66c0-0.57,0.21-1.04,0.64-1.4c0.42-0.37,0.97-0.55,1.65-0.55s1.23,0.18,1.65,0.55
		c0.42,0.36,0.64,0.83,0.64,1.4c0,0.57-0.21,1.04-0.64,1.4c-0.42,0.36-0.97,0.55-1.65,0.55s-1.23-0.18-1.65-0.55
		C86.66,276.7,86.45,276.23,86.45,275.66z M90.83,291.84H86.7v-12.87h4.13V291.84z"/>
	<path class="st2" d="M92.85,285.31c0-2.04,0.45-3.64,1.36-4.82c0.91-1.17,2.17-1.76,3.79-1.76c1.18,0,2.18,0.45,2.98,1.36v-6.52
		h4.13v18.27h-3.71l-0.21-1.38c-0.85,1.08-1.92,1.62-3.23,1.62c-1.57,0-2.82-0.59-3.74-1.76C93.31,289.15,92.85,287.48,92.85,285.31
		z M96.97,285.56c0,2.28,0.69,3.43,2.06,3.43c0.91,0,1.57-0.37,1.96-1.12v-4.9c-0.38-0.76-1.02-1.14-1.93-1.14
		c-1.27,0-1.96,1-2.07,3L96.97,285.56z"/>
	<path class="st2" d="M106.94,285.29c0-1.28,0.26-2.43,0.77-3.43s1.25-1.77,2.21-2.31s2.09-0.81,3.39-0.81
		c1.98,0,3.54,0.6,4.68,1.79c1.14,1.19,1.71,2.82,1.71,4.87v0.14c0,2.01-0.57,3.6-1.72,4.77c-1.15,1.18-2.7,1.77-4.65,1.77
		c-1.88,0-3.4-0.55-4.54-1.65c-1.14-1.1-1.76-2.59-1.85-4.47L106.94,285.29z M111.06,285.54c0,1.19,0.19,2.06,0.57,2.62
		c0.38,0.56,0.95,0.83,1.7,0.83c1.47,0,2.22-1.1,2.25-3.29v-0.4c0-2.31-0.76-3.46-2.27-3.46c-1.38,0-2.12,1-2.24,2.99L111.06,285.54
		z"/>
</g>
</svg>
