<?xml version="1.0" encoding="utf-8"?>
<!-- Generator: Adobe Illustrator 25.2.1, SVG Export Plug-In . SVG Version: 6.00 Build 0)  -->
<svg version="1.1" id="Capa_1" xmlns="http://www.w3.org/2000/svg" xmlns:xlink="http://www.w3.org/1999/xlink" x="0px" y="0px"
	 viewBox="0 0 300 300" style="enable-background:new 0 0 300 300;" xml:space="preserve">
<style type="text/css">
	.st0{fill:none;stroke:#029AA4;stroke-width:10;stroke-miterlimit:10;}
	.st1{fill:none;stroke:#B3B3B3;stroke-width:18;stroke-miterlimit:10;}
	.st2{fill:none;stroke:#999999;stroke-width:28;stroke-miterlimit:10;}
	.st3{fill:#E6E6E6;}
	.st4{fill:#4285F4;}
	.st5{fill:#FFFFFF;}
	.st6{fill:#4D4D4D;}
	.st7{fill:#E60D57;}
	.st8{fill:#C1BEDF;}
	.st9{fill:#EA4335;}
	.st10{fill:#34A853;}
	.st11{fill:#606060;}
	.st12{fill:#FBBC04;}
	.st13{fill:#029AA4;}
	.st14{fill:#596CF7;}
	.st15{fill:#DEE2FD;}
	.st16{fill:#AAB5D2;}
	.st17{fill:#3D5196;}
	.st18{fill:#C2A09C;}
	.st19{fill:#80AD84;}
	.st20{fill:#A06A63;}
	.st21{fill:#B3B3B3;}
	.st22{fill:url(#SVGID_11_);}
	.st23{opacity:0.7;fill:none;stroke:#FFC55E;stroke-miterlimit:10;}
	.st24{opacity:0.62;fill:#FFFFFF;}
	.st25{fill:none;stroke:#DDB6C0;stroke-miterlimit:10;}
	.st26{fill:none;stroke:#FFFFFF;stroke-miterlimit:10;}
	.st27{fill:#83A1B7;}
	.st28{fill:#666666;}
	.st29{fill:#BCBCBC;}
	.st30{fill:#FFD4B3;}
	.st31{fill:#5E98FF;}
	.st32{opacity:0.55;fill:#A9E1EA;}
	.st33{opacity:0.77;fill:#FFFFFF;}
	.st34{fill:#FDC8A8;}
	.st35{opacity:0.09;fill:#5E98FF;}
	.st36{opacity:0.16;fill:#5E98FF;}
	.st37{opacity:0.43;fill:#3C7BD6;}
	.st38{fill:#D0D6E2;}
	.st39{fill:#FCDDD0;}
	.st40{opacity:0.9;}
	.st41{fill:#B5CEE5;}
	.st42{fill:#74ECF3;}
	.st43{fill:#A5C6E5;}
	.st44{fill:url(#SVGID_12_);}
	.st45{fill:#2A3858;}
	.st46{fill:#4853A3;}
	.st47{fill:#F7A280;}
	.st48{fill:#3A3B96;}
	.st49{fill:#E09476;}
	.st50{fill:#1D145A;}
	.st51{fill:#302D7F;}
	.st52{fill:#B03724;}
	.st53{fill:#EF4923;}
	.st54{fill:#343286;}
</style>
<g>
	<defs>
		<path id="SVGID_9_" d="M283.44,87.81c31.62,128-220.13,278.37-265.48,116.52C0.73,142.82,34.77,106.41,63.85,91.94
			c29.08-14.47,58.23-13.01,76.55-28.13C221.85-3.39,267.31,22.53,283.44,87.81"/>
	</defs>
	<use xlink:href="#SVGID_9_"  style="overflow:visible;fill:#E6E6E6;"/>
	<clipPath id="SVGID_2_">
		<use xlink:href="#SVGID_9_"  style="overflow:visible;"/>
	</clipPath>
</g>
<g>
	<linearGradient id="SVGID_4_" gradientUnits="userSpaceOnUse" x1="191.2437" y1="231.9998" x2="294.659" y2="231.9998">
		<stop  offset="0" style="stop-color:#FFFFFF"/>
		<stop  offset="0.3538" style="stop-color:#E9F5FF"/>
		<stop  offset="0.7016" style="stop-color:#DBEFFF"/>
		<stop  offset="1" style="stop-color:#D6EDFF"/>
	</linearGradient>
	<path style="fill:url(#SVGID_4_);" d="M191.95,232.29c-2.42,0.22-1.01,3.71,43.94,2.7c3.08-0.07,8.31,1.01,11.79,0.77
		c23.97-1.65,46.98,0.37,46.98-2.91c0-2.88-41.88-6.9-59.27-3.08C228.32,231.32,197.72,231.77,191.95,232.29z"/>
	<line class="st23" x1="44.22" y1="183.86" x2="44.22" y2="214.92"/>
	<line class="st23" x1="74.81" y1="178.46" x2="74.81" y2="206.46"/>
	<line class="st23" x1="103.67" y1="172.93" x2="103.67" y2="197.08"/>
	<line class="st23" x1="134.26" y1="143.5" x2="134.26" y2="193.74"/>
	<line class="st23" x1="190.37" y1="133.74" x2="190.37" y2="197.08"/>
	<line class="st23" x1="220.96" y1="144.76" x2="220.96" y2="197.08"/>
	<line class="st23" x1="253.67" y1="100.56" x2="253.67" y2="159.88"/>
	<path class="st24" d="M282.77,222.05v-70.81c0,0-27.61,0-67.34,34.74c-41.53,36.32-70.62-16.94-108.76,6.73
		c-41.85,25.97-99.2,29.34-99.2,29.34H282.77z"/>
	<line class="st25" x1="60.79" y1="211.01" x2="60.79" y2="221.74"/>
	<line class="st25" x1="91.38" y1="200.29" x2="91.38" y2="221.74"/>
	<line class="st25" x1="120.24" y1="187.11" x2="120.24" y2="221.74"/>
	<line class="st25" x1="206.94" y1="192.21" x2="206.94" y2="221.74"/>
	<line class="st25" x1="237.53" y1="169.64" x2="237.53" y2="221.74"/>
	<line class="st25" x1="269.17" y1="154.23" x2="269.17" y2="219.33"/>
	<line class="st25" x1="178.76" y1="199.15" x2="178.76" y2="221.77"/>
	<g>
		<path class="st9" d="M106.22,191.43c17.9-11.11,34.08-5.52,49.73-0.11c18.13,6.26,36.88,12.74,58.9-6.52
			c20.63-18.04,37.96-26.59,48.87-30.57c11.87-4.34,18.77-4.39,19.05-4.39l0,2.82c-0.28,0-27.81,0.45-66.75,34.5
			c-22.81,19.95-42.02,13.31-60.6,6.89c-15.98-5.52-31.08-10.74-48.29-0.06c-41.56,25.79-99.03,29.44-99.6,29.47l-0.09-2.82"/>
	</g>
	<line class="st23" x1="162.19" y1="130.25" x2="162.19" y2="200.18"/>
	<line class="st26" x1="150.83" y1="191.17" x2="150.83" y2="221.74"/>
	<polygon class="st27" points="245.61,116.95 243.78,85.67 90.4,85.67 90.4,90.98 63.39,90.98 63.15,195.61 150.03,195.61 
		146.05,206.97 138.04,215.45 166.98,217.35 172.18,195.61 251.88,195.61 252.1,102.3 	"/>
	<path class="st9" d="M282.58,155.37c1.09-0.96,4.44-4,4.44-4c0.51-0.46,0.48-1.14-0.08-1.51c0,0-3.36-2.34-4.8-3.19
		c-0.69-0.41-1.45-0.59-1.22,4.17C281.18,155.67,281.84,156.03,282.58,155.37z"/>
	<g>
		<path class="st5" d="M141.9,87.09l0.86-0.61c-0.69-1.36-1.05-2.91-1.24-4.55c-0.26-2.18-0.77-4.15-2.85-5.22
			c-0.56-0.29-0.89,0.64-0.33,0.92c2.51,1.29,2.01,4.48,2.55,6.81C141.1,85.38,141.45,86.27,141.9,87.09z"/>
		<path class="st5" d="M128.12,86.05c1.06-0.2,2.05-0.62,3.1-0.85c1.47-0.31,2.87,0.07,4.26,0.55c0.1,0.03,0.19,0.03,0.27,0.02
			c1.67,0.62,3.37,1.19,5.04,1.92c0.05,0.02,0.1,0.05,0.15,0.07l0.93-0.66c-4.43-2.04-9.44-2.75-12.93-6.43
			c-0.44-0.46-1.2,0.16-0.76,0.62c1.19,1.26,2.52,2.17,3.95,2.92c-0.83,0.03-1.67,0.19-2.59,0.48c-3.25,1.02-6.98,0.82-9.24-2
			c-0.4-0.5-1.16,0.13-0.76,0.62C121.63,85.92,124.93,86.64,128.12,86.05z"/>
	</g>
	<g>
		<path class="st5" d="M223.72,83.57c0.49,1.42,0.28,2.86-0.01,4.3c-0.02,0.1-0.01,0.19,0.02,0.27c-0.06,0.25-0.11,0.5-0.17,0.75
			h0.96c0.66-2.9,1.45-5.73,3.43-8.13c0.4-0.49-0.31-1.17-0.71-0.68c-1.1,1.34-1.84,2.78-2.4,4.28c-0.14-0.82-0.39-1.63-0.79-2.51
			c-1.41-3.1-1.68-6.83,0.84-9.42c0.44-0.46-0.27-1.13-0.71-0.68c-2.33,2.39-2.64,5.76-1.66,8.85
			C222.83,81.63,223.37,82.56,223.72,83.57z"/>
	</g>
	<g>
		<path class="st5" d="M179.53,88.89h1.28c0.23-0.33,0.47-0.65,0.72-0.97c1.36-1.72,2.41-3.47,1.7-5.7
			c-0.19-0.6-1.08-0.18-0.89,0.41C183.14,85.17,180.86,87,179.53,88.89z"/>
		<path class="st5" d="M169.18,81.31c0.89,0.62,1.88,1.02,2.78,1.61c1.25,0.83,1.97,2.09,2.61,3.41c0.05,0.1,0.11,0.16,0.18,0.2
			c0.36,0.79,0.73,1.57,1.09,2.36h1.04c-1.6-3.46-3.42-6.81-3.29-10.78c0.02-0.63-0.96-0.74-0.98-0.1
			c-0.05,1.73,0.23,3.32,0.71,4.86c-0.61-0.56-1.31-1.05-2.16-1.5c-3.01-1.59-5.5-4.38-5.08-7.98c0.07-0.63-0.9-0.73-0.98-0.1
			C164.7,76.6,166.51,79.46,169.18,81.31z"/>
	</g>
	<rect x="61.6" y="79.81" class="st6" width="185.21" height="113.43"/>
	<rect x="57.04" y="79.81" class="st28" width="185.21" height="113.43"/>
	<rect x="65.49" y="83.17" class="st5" width="168.32" height="103.09"/>
	<polygon class="st21" points="156.38,218.48 133.82,218.48 138.37,193.24 160.93,193.24 	"/>
	<path class="st6" d="M159.24,193.24h-20.87l-4.33,24C141.87,208.71,151.61,202,159.24,193.24z"/>
	<path class="st6" d="M181.74,222.68c-1.2-4.88-16.94-8.74-36.19-8.74c-19.25,0-34.99,3.86-36.19,8.74H181.74z"/>
	<path class="st29" d="M225.87,157.13c0,0.28-0.25,0.51-0.58,0.51c-12.02-0.04-24.04,0.04-36.06,0.2c-0.33,0-0.59-0.22-0.6-0.51l0,0
		c0-0.29,0.26-0.52,0.58-0.53c12.02-0.16,24.03-0.23,36.05-0.19C225.6,156.61,225.87,156.84,225.87,157.13L225.87,157.13z"/>
	<path class="st29" d="M225.81,153.84c0.01,0.28-0.25,0.51-0.58,0.51c-12.02-0.05-24.03,0.01-36.04,0.17c-0.33,0-0.59-0.22-0.6-0.51
		l0,0c0-0.29,0.26-0.52,0.58-0.53c12.01-0.15,24.02-0.22,36.04-0.16C225.54,153.32,225.81,153.55,225.81,153.84L225.81,153.84z"/>
	<path class="st29" d="M225.93,160.45c0.01,0.28-0.25,0.51-0.58,0.51c-12.02-0.03-24.05,0.06-36.07,0.22c-0.33,0-0.59-0.22-0.6-0.51
		l0,0c0-0.29,0.26-0.52,0.58-0.53c12.02-0.16,24.04-0.25,36.07-0.21C225.66,159.94,225.93,160.17,225.93,160.45L225.93,160.45z"/>
	<path class="st29" d="M226,163.78c0,0.28-0.25,0.51-0.58,0.51c-12.03-0.02-24.05,0.09-36.08,0.25c-0.33,0-0.59-0.22-0.6-0.51l0,0
		c0-0.29,0.26-0.52,0.58-0.53c12.03-0.16,24.05-0.26,36.08-0.24C225.72,163.27,225.99,163.5,226,163.78L226,163.78z"/>
	<path class="st29" d="M226.06,167.11c0,0.28-0.25,0.51-0.58,0.51c-12.03-0.01-24.06,0.11-36.1,0.27c-0.33,0-0.59-0.22-0.6-0.51l0,0
		c0-0.29,0.26-0.52,0.58-0.53c12.03-0.16,24.06-0.27,36.09-0.26C225.78,166.59,226.05,166.83,226.06,167.11L226.06,167.11z"/>
	<path class="st29" d="M206.19,171.73c0,0.28-0.27,0.51-0.59,0.5c-5.41-0.08-10.83-0.14-16.24-0.18c-0.33,0-0.59-0.24-0.59-0.52l0,0
		c0-0.29,0.27-0.52,0.59-0.51c5.41,0.05,10.83,0.11,16.24,0.19C205.92,171.21,206.19,171.45,206.19,171.73L206.19,171.73z"/>
	<path class="st9" d="M162.01,154.45c0.03,0.58-0.43,1.04-1.01,1.03c-7.19-0.07-14.37-0.07-21.55,0c-0.58,0.01-1.08-0.45-1.1-1.03
		l0,0c-0.03-0.58,0.42-1.05,1-1.06c7.19-0.06,14.37-0.07,21.56,0C161.48,153.4,161.98,153.87,162.01,154.45L162.01,154.45z"/>
	<path class="st9" d="M175.75,158.82c0.02,0.58-0.43,1.03-1.02,1.01c-11.86-0.38-23.71-0.48-35.58-0.36
		c-0.58,0.01-1.08-0.45-1.1-1.03l0,0c-0.03-0.57,0.42-1.05,1-1.05c11.87-0.11,23.72-0.02,35.59,0.34
		C175.23,157.75,175.73,158.24,175.75,158.82L175.75,158.82z"/>
	<path class="st29" d="M175.62,167.62c0.01,0.29-0.24,0.51-0.57,0.49c-12.09-0.46-24.17-0.58-36.27-0.45c-0.33,0-0.6-0.22-0.61-0.5
		l0,0c-0.01-0.28,0.24-0.52,0.57-0.52c12.1-0.13,24.18-0.01,36.27,0.44C175.33,167.09,175.61,167.33,175.62,167.62L175.62,167.62z"
		/>
	<path class="st29" d="M175.45,163.68c0.01,0.29-0.24,0.51-0.57,0.49c-12.1-0.43-24.18-0.54-36.29-0.41c-0.33,0-0.6-0.22-0.61-0.5
		l0,0c-0.02-0.28,0.24-0.52,0.56-0.52c12.11-0.12,24.19-0.02,36.29,0.4C175.17,163.15,175.44,163.39,175.45,163.68L175.45,163.68z"
		/>
	<path class="st29" d="M175.77,171.28c0.01,0.29-0.24,0.51-0.57,0.49c-12.09-0.5-24.15-0.62-36.25-0.49c-0.33,0-0.6-0.22-0.62-0.5
		l0,0c-0.01-0.28,0.24-0.52,0.57-0.52c12.1-0.13,24.17-0.01,36.26,0.48C175.48,170.75,175.76,170.99,175.77,171.28L175.77,171.28z"
		/>
	<path class="st29" d="M162,174.66c0.01,0.28-0.24,0.51-0.57,0.5c-7.42-0.13-14.83-0.15-22.25-0.06c-0.33,0-0.6-0.22-0.61-0.5l0,0
		c-0.01-0.28,0.24-0.52,0.57-0.52c7.42-0.09,14.83-0.08,22.25,0.05C161.71,174.14,161.99,174.38,162,174.66L162,174.66z"/>
	<g>
		<path class="st9" d="M77.01,165.94c0.45,6.38,5.98,11.2,12.37,10.75c6.39-0.45,11.2-5.98,10.75-12.37
			c-0.45-6.39-5.98-11.2-12.37-10.75l0.81,11.56L77.01,165.94z"/>
	</g>
	<g>
		<path class="st10" d="M107.83,174.63c2.1,1.47,4.69,2.25,7.45,2.06c6.39-0.45,11.2-5.98,10.75-12.37
			c-0.45-6.38-5.98-11.2-12.37-10.75l0.81,11.56L107.83,174.63z"/>
	</g>
	<rect x="73.47" y="111.25" class="st30" width="11.56" height="30.88"/>
	<rect x="89.28" y="104.52" class="st9" width="11.56" height="37.62"/>
	<rect x="105.09" y="124.5" class="st31" width="11.56" height="17.65"/>
	<rect x="120.91" y="95.18" class="st10" width="11.56" height="46.98"/>
	<path class="st4" d="M84.9,146.77c0,0.24-0.2,0.45-0.45,0.45l-10.54-0.01c-0.25,0-0.44-0.2-0.44-0.45l0,0
		c0-0.25,0.2-0.45,0.45-0.45l10.54,0C84.7,146.33,84.9,146.53,84.9,146.77L84.9,146.77z"/>
	<path class="st4" d="M100.71,146.78c0,0.25-0.2,0.45-0.44,0.45l-10.54-0.01c-0.25,0-0.45-0.2-0.45-0.45l0,0
		c0-0.25,0.2-0.45,0.45-0.45l10.54,0.01C100.51,146.33,100.71,146.53,100.71,146.78L100.71,146.78z"/>
	<path class="st4" d="M116.58,146.79c0,0.25-0.2,0.45-0.45,0.45l-10.54,0c-0.25,0-0.45-0.2-0.45-0.45l0,0c0-0.25,0.2-0.45,0.45-0.45
		l10.54,0C116.38,146.34,116.58,146.54,116.58,146.79L116.58,146.79z"/>
	<path class="st4" d="M132.39,146.8c0,0.25-0.2,0.45-0.45,0.45l-10.54,0c-0.25,0-0.45-0.2-0.45-0.45l0,0c0-0.25,0.2-0.45,0.45-0.45
		l10.54,0C132.2,146.35,132.39,146.55,132.39,146.8L132.39,146.8z"/>
	<path class="st4" d="M225.95,99.22c-7.38,0-2.92,9.63-26.67,12.59c-10.7,1.34-10.24,13.06-17.62,13.06
		c-7.38,0-10.71-2.32-15.33-1.04c-7.11,1.97-6.81,6.19-14.19,6.19c-5.87,0-9.27-7.47-13.8-9.53v26.76H226
		C226,147.24,225.97,99.22,225.95,99.22z"/>
	<path class="st12" d="M225.99,147.2c-0.01-11.82-0.03-42.26-0.04-42.26c-7.38,0-3.98,24.11-26.67,21.18
		c-7.32-0.95-10.24,10.2-17.62,10.2c-7.38,0-8.91-5.63-15.33-2.75c-6.74,3.02-6.81,8.48-14.19,8.48c-5.87,0-9.27-8.61-13.8-10.68
		v15.84H225.99z"/>
	<g>
		<path class="st27" d="M223.64,202.72c2.4,1.68,5.16,2.23,7.74,1.77l11.85,17.77l13-0.21l-17.67-22.61
			c0.03-0.05,0.06-0.1,0.09-0.15c1.46-2.51,1.91-5.4,1.49-8.15c4.42-6.28,6.58-14.45,5.41-23.01c-2.32-16.98-16.86-29.02-32.48-26.9
			c-15.62,2.12-26.4,17.61-24.07,34.59c2.32,16.98,16.86,29.02,32.48,26.9c0.6-0.08,1.18-0.19,1.76-0.31
			C223.37,202.52,223.5,202.62,223.64,202.72z M192.62,175.33c-2.02-14.8,7.37-28.29,20.98-30.14c13.61-1.85,26.28,8.64,28.31,23.44
			c2.02,14.8-7.37,28.29-20.98,30.14C207.32,200.62,194.65,190.13,192.62,175.33z"/>
	</g>
	<g>
		<path class="st4" d="M245.55,231.52l-21.38-36.48c0.19-0.02,0.38-0.03,0.58-0.06c1.97-0.31,3.63-1.44,4.79-2.97
			c0.97-0.48,1.83-1.17,2.52-2l21.56,36.78c0.57,0.97,0.24,2.22-0.73,2.78l-4.56,2.67C247.37,232.81,246.11,232.49,245.55,231.52z"
			/>
		<path class="st4" d="M248.36,222.83c-2.32-4.86-9.09-16.64-11.65-19.26c-2.65-2.71-4.42-1.14-7.51,0.05l-5.03-8.58
			c0.19-0.02,0.38-0.03,0.58-0.06c1.97-0.31,3.63-1.44,4.79-2.97c0.97-0.48,1.83-1.17,2.52-2l21.56,36.78
			c0.57,0.97,0.24,2.22-0.73,2.78l-4.56,2.67c-0.47,0.28-1.01,0.34-1.51,0.22C251.25,227.84,250.9,228.16,248.36,222.83z"/>
		<path class="st31" d="M216.06,196.84c1.87,0.42,3.9,0.25,5.62-0.59c5.92-2.88,11.32-6.77,13.47-13.14
			c0.59,1.06,1.04,2.22,1.29,3.47c1.29,6.41-2.86,12.65-9.26,13.94C222.93,201.36,218.76,199.83,216.06,196.84z"/>
		<path class="st4" d="M216.1,196.93c1.87,0.42,3.9,0.25,5.62-0.59c5.92-2.88,11.32-6.77,13.47-13.14c0.59,1.06,1.04,2.22,1.29,3.47
			c1.29,6.41-2.86,12.65-9.26,13.94C222.98,201.45,218.81,199.92,216.1,196.93z"/>
		<g>
			<path class="st4" d="M237.36,184.48c8.28-15,2.83-33.88-12.18-42.16c-15-8.28-33.88-2.83-42.16,12.18
				c-8.28,15-2.83,33.88,12.18,42.16C210.21,204.93,229.08,199.48,237.36,184.48z M197.13,193.16
				c-13.07-7.21-17.82-23.66-10.61-36.74c7.21-13.07,23.66-17.83,36.74-10.61c13.07,7.21,17.83,23.66,10.61,36.74
				C226.65,195.63,210.2,200.38,197.13,193.16z"/>
			
				<ellipse transform="matrix(0.6881 -0.7256 0.7256 0.6881 -57.4238 205.3966)" class="st32" cx="210.19" cy="169.49" rx="27.04" ry="27.04"/>
		</g>
		<path class="st33" d="M209.84,196.36c-9.3-0.1-17.96-5.03-22.8-12.98C194.64,187.72,202.24,192.05,209.84,196.36z"/>
		<path class="st33" d="M183.2,167.15c0.47-5.84,2.83-11.34,6.64-15.67c15.31,8.78,30.67,17.48,46.03,26.19
			c-1.78,5.47-5.29,10.3-10.05,13.68C211.57,183.36,197.4,175.23,183.2,167.15z"/>
		<path class="st33" d="M201.19,144.38c0.61-0.21,1.22-0.42,1.85-0.59c14.39-3.98,29.29,4.46,33.27,18.85
			c0.18,0.66,0.33,1.32,0.46,1.97C224.9,157.88,213.04,151.15,201.19,144.38z"/>
	</g>
	<path class="st34" d="M24.2,135.74c1.24-0.47,2.59,0.55,2.93,1.2c0.34,0.66-2.42,0.78-3.47,1.33c-1.06,0.55-1.76-0.12-2.1-0.78
		C21.22,136.84,22.48,136.4,24.2,135.74z"/>
	<g>
		<path class="st27" d="M78.31,193.28v-50c0-4.14-3.21-7.53-7.13-7.53H33.45c-3.92,0-7.13,3.39-7.13,7.53v50H78.31z"/>
	</g>
	<path class="st4" d="M72.59,219.96c0,4.14-3.21,7.53-7.13,7.53H27.73c-3.92,0-7.13-3.39-7.13-7.53v-79.53
		c0-4.14,3.21-7.53,7.13-7.53h37.73c3.92,0,7.13,3.39,7.13,7.53V219.96z"/>
	<path class="st5" d="M71.25,217.9c0,3.93-3.04,7.14-6.76,7.14H28.7c-3.72,0-6.76-3.21-6.76-7.14v-75.43c0-3.93,3.04-7.14,6.76-7.14
		h35.78c3.72,0,6.76,3.21,6.76,7.14V217.9z"/>
	<path class="st35" d="M71.25,217.9c0,3.93-3.04,7.14-6.76,7.14H28.7c-3.72,0-6.76-3.21-6.76-7.14v-75.43
		c0-3.93,3.04-7.14,6.76-7.14h35.78c3.72,0,6.76,3.21,6.76,7.14V217.9z"/>
	<path class="st36" d="M57.79,135.61c0,0-21.96-0.03-29.01-0.03c-6.55,0-6.8,6.85-6.8,8.62c0,1.77,0,28.05,0,28.05
		C34.37,159.86,45.4,148,57.79,135.61z"/>
	<path class="st37" d="M68.79,159.48H24.61c-0.41,0-0.74-0.33-0.74-0.74l0,0c0-0.41,0.33-0.74,0.74-0.74h44.19
		c0.41,0,0.74,0.33,0.74,0.74l0,0C69.53,159.15,69.2,159.48,68.79,159.48z"/>
	<path class="st38" d="M56.32,139.24c0,0.61-0.49,1.1-1.1,1.1h-1.85c-0.61,0-1.1-0.49-1.1-1.1l0,0c0-0.61,0.49-1.1,1.1-1.1h1.85
		C55.83,138.15,56.32,138.64,56.32,139.24L56.32,139.24z"/>
	<path class="st38" d="M35.17,139.24c0,0.61-0.49,1.1-1.1,1.1h-5.76c-0.61,0-1.1-0.49-1.1-1.1l0,0c0-0.61,0.49-1.1,1.1-1.1h5.76
		C34.68,138.15,35.17,138.64,35.17,139.24L35.17,139.24z"/>
	<path class="st38" d="M65.74,139.24c0,0.61-0.49,1.1-1.1,1.1h-5.76c-0.61,0-1.1-0.49-1.1-1.1l0,0c0-0.61,0.49-1.1,1.1-1.1h5.76
		C65.25,138.15,65.74,138.64,65.74,139.24L65.74,139.24z"/>
	<path class="st36" d="M71.17,195.94v-2.6c-1.54,1.32-3.09,2.64-4.63,3.96c-7.7,6.58-23.77,20.9-31.46,27.48l2.5,0
		C45.8,217.74,62.95,202.97,71.17,195.94z"/>
	<path class="st36" d="M70.76,182.14v-20.82c-0.64,0.54-48.85,44.67-48.85,44.67c-0.08,0.07-0.1,7.89-0.1,11.53s3.32,5.77,3.32,5.77
		L70.76,182.14z"/>
	<path class="st9" d="M72.85,209.53c0.06-0.09,0.16-0.11,0.24-0.08c0.33-0.58,0.72-1.14,1.11-1.7c0.86-1.24,1.52-2.53,1.89-4
		c0.3-1.19,0.48-2.42,0.72-3.63c-1.12-1.13-2.79-1.53-4.18-0.68c-1.5,0.92-1.54,6.11-0.44,8.67l0.28,1.63
		C72.69,209.43,72.63,209.84,72.85,209.53z"/>
	<path class="st39" d="M72.47,209.74c3.1-0.36,5.85-5.57,5.85-7.59c0-3.14-3.11-5.16-5.42-3.75c-1.5,0.92-1.54,6.1-0.44,8.66V209.74
		z"/>
	<g class="st40">
		<path class="st41" d="M51.67,198h0.02v-0.01h-0.02C51.67,197.99,51.67,198,51.67,198z"/>
	</g>
	<g>
		<polygon class="st42" points="52.71,198.62 52.73,198.62 52.73,198.61 52.71,198.61 		"/>
		<path class="st43" d="M52.73,198.62h-0.02c0,0,0-0.01,0-0.01h0.02V198.62z"/>
	</g>
	<g class="st40">
		<polygon class="st41" points="55.26,192.51 55.27,192.51 55.27,192.5 55.26,192.5 		"/>
	</g>
	<g>
		<polygon class="st42" points="56.06,192.98 56.07,192.98 56.07,192.97 56.06,192.97 		"/>
		<path class="st43" d="M56.07,192.98h-0.01c0,0,0-0.01,0-0.01L56.07,192.98L56.07,192.98z"/>
	</g>
	<path class="st5" d="M76.78,201.16c0.01-1.3-0.8-2.36-1.38-2.37c-1.22-0.01-1.22-0.01-1.25,2.5c-0.02,2.46-0.05,2.2,1.32,2.21
		C76.06,203.51,76.77,202.46,76.78,201.16z"/>
	<g class="st40">
		<path class="st41" d="M50.77,199.3h0.02v-0.01h-0.02C50.77,199.3,50.77,199.3,50.77,199.3z"/>
	</g>
	<g>
		<polygon class="st42" points="51.86,199.95 51.87,199.95 51.87,199.94 51.85,199.94 		"/>
		<path class="st43" d="M51.87,199.95h-0.02c0,0,0-0.01,0-0.01h0.02V199.95z"/>
	</g>
	<path class="st27" d="M72.51,204.97c0,0,1.83-0.12,2.98-1.47c1.14-1.34,9.37,2.48,9.37,2.48h-5.53v-5.53H68.79v-1.53h0.02v-30.09
		c0-1.28-1.04-2.32-2.32-2.32c-0.14,0-0.28,0.01-0.41,0.04l-40.98-7.86c1.08,0.2,1.13,2.84,1.13,3.98l-1.28,42.31
		c0,3.49,1.25,4.78,4.17,4.78h15.67c0.05,5.84,4.53,5.84,4.53,5.84l23.2-0.01V204.97z"/>
	<rect x="32.26" y="191.39" class="st4" width="27.9" height="14.54"/>
	<path class="st5" d="M69.94,160.88c0-1.24-1-2.24-2.24-2.24c-0.14,0-0.27,0.01-0.4,0.04H25.09c1.05,0.19,1.84,1.1,1.84,2.2l0,0
		v28.99h0.01v10.39c-0.01,0.12-0.01,0.23-0.01,0.35c0,0.12,0.01,0.23,0.01,0.35v0.01h0c0.19,2.77,2.49,4.96,5.31,4.96
		c2.82,0,5.13-2.2,5.31-4.98h0.01v-4.28l32.34-0.46v-6.34h0.02V160.88z"/>
	<path class="st4" d="M37.59,196.67c0,2.94,0,4.1,0,4.1c1.98,0,9.75,1.44,10.67-0.17c0,0-0.01-2.98-0.01-3.93
		c0-2.94-2.38-5.33-5.33-5.33C39.97,191.35,37.59,193.73,37.59,196.67z"/>
	<path class="st5" d="M74.75,196.67c0,2.94,2.38,5.33,5.33,5.33c2.94,0,5.33-2.39,5.33-5.33c0-2.94-2.39-5.33-5.33-5.33
		C77.13,191.35,74.75,193.73,74.75,196.67z"/>
	<rect x="48.24" y="196.67" class="st5" width="37.16" height="11.12"/>
	<path class="st5" d="M48.24,199.72h31.84v-8.37H42.92c0,0,1.86-0.22,3.68,1.48c1.65,1.54,1.64,3.84,1.64,3.84V199.72z"/>
	<rect x="51.05" y="207.79" class="st4" width="34.35" height="2.82"/>
	<path class="st5" d="M48.22,207.79c0,1.56,1.26,2.82,2.82,2.82c1.56,0,2.82-1.26,2.82-2.82c0-1.56-1.26-2.82-2.82-2.82
		C49.49,204.97,48.22,206.23,48.22,207.79z"/>
	<path class="st4" d="M83.99,209.2c0,0.78,0.63,1.41,1.41,1.41c0.78,0,1.41-0.63,1.41-1.41s-0.63-1.41-1.41-1.41
		C84.62,207.79,83.99,208.42,83.99,209.2z"/>
	<rect x="63.1" y="163.24" class="st4" width="3.62" height="14.64"/>
	
		<linearGradient id="SVGID_6_" gradientUnits="userSpaceOnUse" x1="998.3314" y1="-756.3057" x2="1034.4202" y2="-756.3057" gradientTransform="matrix(-1 0 0 -1 1083.7324 -547.5023)">
		<stop  offset="0" style="stop-color:#A4E0BF"/>
		<stop  offset="1" style="stop-color:#93BDEA"/>
	</linearGradient>
	<path style="fill:url(#SVGID_6_);" d="M53.06,206.98c0,0,0.63,1.46-0.71,2.77c-1.17,1.13-3.04,0.27-3.04,0.27
		c0.48,0.39,1.1,0.62,1.77,0.62c1.56,0,2.82-1.26,2.82-2.81h31.5v-0.45L53.06,206.98z"/>
	<g>
		<path class="st29" d="M41.99,183.53h-9.26c-0.26,0-0.46-0.21-0.46-0.46s0.21-0.46,0.46-0.46h9.26c0.26,0,0.46,0.21,0.46,0.46
			S42.25,183.53,41.99,183.53z"/>
	</g>
	<g>
		<path class="st29" d="M38.74,187.21h-6.01c-0.26,0-0.46-0.21-0.46-0.46c0-0.26,0.21-0.46,0.46-0.46h6.01
			c0.26,0,0.46,0.21,0.46,0.46C39.2,187,39,187.21,38.74,187.21z"/>
	</g>
	<g>
		<path class="st29" d="M52,187.21H41.05c-0.26,0-0.46-0.21-0.46-0.46c0-0.26,0.21-0.46,0.46-0.46H52c0.26,0,0.46,0.21,0.46,0.46
			C52.47,187,52.26,187.21,52,187.21z"/>
	</g>
	<g>
		<path class="st29" d="M65.44,187.21H54.45c-0.26,0-0.46-0.21-0.46-0.46c0-0.26,0.21-0.46,0.46-0.46h10.99
			c0.26,0,0.46,0.21,0.46,0.46C65.91,187,65.7,187.21,65.44,187.21z"/>
	</g>
	<g>
		<path class="st9" d="M48.18,190.81H38c-0.26,0-0.46-0.21-0.46-0.46s0.21-0.46,0.46-0.46h10.18c0.26,0,0.46,0.21,0.46,0.46
			S48.44,190.81,48.18,190.81z"/>
	</g>
	<g>
		<path class="st9" d="M35.74,190.81h-2.83c-0.26,0-0.46-0.21-0.46-0.46s0.21-0.46,0.46-0.46h2.83c0.26,0,0.46,0.21,0.46,0.46
			S35.99,190.81,35.74,190.81z"/>
	</g>
	<g>
		<path class="st9" d="M60.19,190.81h-9.03c-0.26,0-0.46-0.21-0.46-0.46s0.21-0.46,0.46-0.46h9.03c0.26,0,0.46,0.21,0.46,0.46
			S60.44,190.81,60.19,190.81z"/>
	</g>
	<g>
		<path class="st9" d="M38.73,193.41h-5.99c-0.26,0-0.46,0.21-0.46,0.46c0,0.26,0.21,0.46,0.46,0.46h5.48
			C38.34,194,38.51,193.69,38.73,193.41z"/>
	</g>
	<g>
		<path class="st29" d="M69.71,197.45h-8.47c-0.23,0-0.42-0.19-0.42-0.42c0-0.23,0.19-0.42,0.42-0.42h8.47
			c0.23,0,0.42,0.19,0.42,0.42C70.13,197.26,69.94,197.45,69.71,197.45z"/>
	</g>
	<g>
		<path class="st29" d="M73.77,200.34H61.23c-0.23,0-0.42-0.19-0.42-0.42c0-0.23,0.19-0.42,0.42-0.42h12.53
			c0.23,0,0.42,0.19,0.42,0.42C74.19,200.15,74,200.34,73.77,200.34z"/>
	</g>
	<g>
		<path class="st29" d="M82.8,200.34h-6.71c-0.23,0-0.42-0.19-0.42-0.42c0-0.23,0.19-0.42,0.42-0.42h6.71
			c0.23,0,0.42,0.19,0.42,0.42C83.22,200.15,83.03,200.34,82.8,200.34z"/>
	</g>
	<g>
		<path class="st29" d="M66.73,203.37h-5.5c-0.23,0-0.42-0.19-0.42-0.42c0-0.23,0.19-0.42,0.42-0.42h5.5c0.23,0,0.42,0.19,0.42,0.42
			C67.15,203.18,66.97,203.37,66.73,203.37z"/>
	</g>
	<g>
		<path class="st29" d="M70.91,203.37h-2.07c-0.23,0-0.42-0.19-0.42-0.42c0-0.23,0.19-0.42,0.42-0.42h2.07
			c0.23,0,0.42,0.19,0.42,0.42C71.34,203.18,71.15,203.37,70.91,203.37z"/>
	</g>
	<g>
		<path class="st29" d="M82.8,203.37h-9.75c-0.23,0-0.42-0.19-0.42-0.42c0-0.23,0.19-0.42,0.42-0.42h9.75
			c0.23,0,0.42,0.19,0.42,0.42C83.22,203.18,83.03,203.37,82.8,203.37z"/>
	</g>
	<g>
		<path class="st31" d="M51.31,204.11v-7.99h7.99v7.99H51.31z M58.54,203.35v-6.46h-6.46v6.46H58.54z"/>
		<path class="st31" d="M58.99,203.8h-7.36v-7.36h7.36V203.8z M52.12,203.3h6.37v-6.37h-6.37V203.3z"/>
	</g>
	<g>
		<polygon class="st31" points="52.46,199.93 53.01,199.38 54.87,201.12 57.53,197.75 58.18,198.32 54.98,202.46 		"/>
		<polygon class="st31" points="54.95,201.98 52.9,199.93 53.25,199.58 54.9,201.23 57.35,198.07 57.74,198.37 		"/>
	</g>
	<g>
		<path class="st10" d="M32.12,173.64c0.13,3.43,3.02,6.11,6.45,5.98c3.43-0.13,6.11-3.02,5.98-6.45c-0.13-3.43-3.02-6.11-6.45-5.98
			l0.23,6.21L32.12,173.64z"/>
	</g>
	<rect x="48.24" y="168.25" class="st30" width="3.62" height="9.63"/>
	<rect x="53.19" y="166.15" class="st9" width="3.62" height="11.72"/>
	<rect x="58.14" y="172.38" class="st31" width="3.62" height="5.5"/>
	<path class="st4" d="M51.82,179.53c0,0.09-0.06,0.16-0.14,0.16l-3.3,0c-0.08,0-0.14-0.07-0.14-0.16l0,0c0-0.09,0.06-0.16,0.14-0.16
		l3.3,0C51.75,179.37,51.82,179.45,51.82,179.53L51.82,179.53z"/>
	<path class="st4" d="M56.77,179.54c0,0.09-0.06,0.16-0.14,0.16l-3.3,0c-0.08,0-0.14-0.07-0.14-0.16l0,0c0-0.09,0.06-0.16,0.14-0.16
		l3.3,0C56.71,179.38,56.77,179.45,56.77,179.54L56.77,179.54z"/>
	<path class="st4" d="M61.74,179.54c0,0.09-0.06,0.16-0.14,0.16l-3.3,0c-0.08,0-0.14-0.07-0.14-0.16l0,0c0-0.09,0.06-0.16,0.14-0.16
		l3.3,0C61.68,179.38,61.74,179.45,61.74,179.54L61.74,179.54z"/>
	<path class="st4" d="M66.69,179.54c0,0.09-0.06,0.16-0.14,0.16l-3.3,0c-0.08,0-0.14-0.07-0.14-0.16l0,0c0-0.09,0.06-0.16,0.14-0.16
		l3.3,0C66.63,179.38,66.69,179.45,66.69,179.54L66.69,179.54z"/>
</g>
</svg>
