<?xml version="1.0" encoding="utf-8"?>
<!-- Generator: Adobe Illustrator 25.2.1, SVG Export Plug-In . SVG Version: 6.00 Build 0)  -->
<svg version="1.1" id="Capa_1" xmlns="http://www.w3.org/2000/svg" xmlns:xlink="http://www.w3.org/1999/xlink" x="0px" y="0px"
	 viewBox="0 0 300 300" style="enable-background:new 0 0 300 300;" xml:space="preserve">
<style type="text/css">
	.st0{fill:none;stroke:#029AA4;stroke-width:10;stroke-miterlimit:10;}
	.st1{fill:none;stroke:#B3B3B3;stroke-width:18;stroke-miterlimit:10;}
	.st2{fill:none;stroke:#999999;stroke-width:28;stroke-miterlimit:10;}
	.st3{fill:#E6E6E6;}
	.st4{fill:#4285F4;}
	.st5{fill:#FFFFFF;}
	.st6{fill:#4D4D4D;}
	.st7{fill:#E60D57;}
	.st8{fill:#C1BEDF;}
	.st9{fill:#EA4335;}
	.st10{fill:#34A853;}
	.st11{fill:#606060;}
	.st12{fill:#FBBC04;}
	.st13{fill:#029AA4;}
	.st14{fill:#596CF7;}
	.st15{fill:#DEE2FD;}
	.st16{fill:#AAB5D2;}
	.st17{fill:#3D5196;}
	.st18{fill:#C2A09C;}
	.st19{fill:#80AD84;}
	.st20{fill:#A06A63;}
	.st21{fill:#B3B3B3;}
	.st22{fill:url(#SVGID_11_);}
	.st23{opacity:0.7;fill:none;stroke:#FFC55E;stroke-miterlimit:10;}
	.st24{opacity:0.62;fill:#FFFFFF;}
	.st25{fill:none;stroke:#DDB6C0;stroke-miterlimit:10;}
	.st26{fill:none;stroke:#FFFFFF;stroke-miterlimit:10;}
	.st27{fill:#83A1B7;}
	.st28{fill:#666666;}
	.st29{fill:#BCBCBC;}
	.st30{fill:#FFD4B3;}
	.st31{fill:#5E98FF;}
	.st32{opacity:0.55;fill:#A9E1EA;}
	.st33{opacity:0.77;fill:#FFFFFF;}
	.st34{fill:#FDC8A8;}
	.st35{opacity:0.09;fill:#5E98FF;}
	.st36{opacity:0.16;fill:#5E98FF;}
	.st37{opacity:0.43;fill:#3C7BD6;}
	.st38{fill:#D0D6E2;}
	.st39{fill:#FCDDD0;}
	.st40{opacity:0.9;}
	.st41{fill:#B5CEE5;}
	.st42{fill:#74ECF3;}
	.st43{fill:#A5C6E5;}
	.st44{fill:url(#SVGID_12_);}
	.st45{fill:#2A3858;}
	.st46{fill:#4853A3;}
	.st47{fill:#F7A280;}
	.st48{fill:#3A3B96;}
	.st49{fill:#E09476;}
	.st50{fill:#1D145A;}
	.st51{fill:#302D7F;}
	.st52{fill:#B03724;}
	.st53{fill:#EF4923;}
	.st54{fill:#343286;}
</style>
<g>
	<g>
		<path class="st3" d="M13.35,187.47C28,171.7,46.58,167.28,56.68,155.72c15.42-17.67-5.53-37.09,13.08-60.24
			c15.01-18.67,35.12-14.81,49.14-14.89c13.9-0.07,24.65,2.79,33.88-3.68c5.08-3.56,22.9-18.95,41.31-18.34
			c7.93,0.26,60.77,8.92,51.42,70.33c-3.12,29.09,17.91,31.74,25.97,36.58c31.63,19.02,38.04,80.48-29.38,84.62
			c-33.2,2.04-63.4,34.22-101.72,35.46c-54.81,1.78-42.89-33.34-89.75-33.01C-15.25,253.03,1.5,200.23,13.35,187.47z"/>
	</g>
</g>
<g>
	<g>
		<g>
			<g>
				<g>
					<path class="st4" d="M116.15,287.49h97.3c10.42,0,18.86-8.44,18.86-18.86V32.86c0-10.42-8.44-18.86-18.86-18.86h-97.3
						c-10.42,0-18.86,8.44-18.86,18.86v235.77C97.29,279.05,105.73,287.49,116.15,287.49z"/>
				</g>
				<g>
					<path class="st5" d="M214.6,20.19h-36.55c-1.76,0-3.36,1.04-4.04,2.66c-1.16,2.74-3.86,4.67-7.01,4.67s-5.85-1.92-7.01-4.67
						c-0.68-1.62-2.28-2.66-4.04-2.66h-40.88c-0.8,0-1.6,0.06-2.41,0.25c-6.73,1.11-11.91,6.91-11.91,14.01v232.6
						c0,7.87,6.38,14.25,14.25,14.25h99.53c7.91,0,14.32-6.41,14.32-14.32V34.44C228.85,26.57,222.47,20.19,214.6,20.19z"/>
				</g>
				<g>
					<circle class="st6" cx="167" cy="20.84" r="2.66"/>
				</g>
			</g>
			<g>
				<g>
					<rect x="199.72" y="29.15" class="st6" width="1.07" height="2.35"/>
				</g>
				<g>
					<rect x="201.53" y="28.36" class="st6" width="1.07" height="3.13"/>
				</g>
				<g>
					<rect x="203.34" y="27.64" class="st6" width="1.07" height="3.86"/>
				</g>
				<g>
					<rect x="205.16" y="26.93" class="st6" width="1.07" height="4.57"/>
				</g>
				<g>
					<rect x="206.97" y="25.86" class="st6" width="1.07" height="5.64"/>
				</g>
			</g>
			<g>
				<g>
					<rect x="213.01" y="27.28" class="st6" width="6.45" height="4.07"/>
				</g>
				<g>
					<rect x="216.03" y="28.51" class="st6" width="4.11" height="1.96"/>
				</g>
				<g>
					<rect x="213.01" y="27.28" class="st6" width="3.56" height="4.07"/>
				</g>
			</g>
		</g>
		<g>
			<g>
				<circle class="st6" cx="159.04" cy="260.83" r="1.67"/>
			</g>
			<g>
				<circle class="st6" cx="164.8" cy="260.83" r="1.67"/>
			</g>
			<g>
				<circle class="st6" cx="170.57" cy="260.83" r="1.67"/>
			</g>
		</g>
	</g>
	<g>
		<g>
			<path class="st7" d="M134.41,142.39c-3.73,0-7.25-1.45-9.9-4.08c-2.66-2.64-4.14-6.17-4.15-9.92c-0.03-7.75,6.25-14.07,14-14.1
				c0.02,0,0.03,0,0.05,0c3.91,0,7.67,1.64,10.32,4.51l-0.84,0.77c-2.44-2.64-5.89-4.15-9.48-4.15c-0.02,0-0.03,0-0.05,0
				c-7.12,0.03-12.89,5.84-12.86,12.96c0.01,3.45,1.37,6.69,3.81,9.12c2.44,2.42,5.66,3.75,9.09,3.75c0.02,0,0.03,0,0.05,0
				c3.45-0.01,6.69-1.37,9.12-3.81c2.43-2.45,3.76-5.69,3.75-9.14c0-1.02-0.13-2.04-0.37-3.03l1.11-0.27c0.26,1.07,0.4,2.18,0.4,3.3
				c0.03,7.75-6.25,14.07-14,14.1C134.44,142.39,134.43,142.39,134.41,142.39z"/>
		</g>
		<g>
			<path class="st7" d="M131.87,135.91c-0.01,0-0.02,0-0.04,0c-0.28-0.01-0.54-0.13-0.72-0.34l-6.51-7.37
				c-0.37-0.42-0.33-1.05,0.09-1.42c0.42-0.37,1.05-0.33,1.42,0.09l5.81,6.57l16.32-16.06c0.4-0.39,1.03-0.38,1.42,0.01
				c0.39,0.4,0.38,1.03-0.01,1.42l-17.07,16.8C132.39,135.81,132.13,135.91,131.87,135.91z"/>
		</g>
	</g>
	<g>
		<g>
			<path class="st8" d="M207.29,120.68h-46.64c-0.55,0-0.99-0.44-0.99-0.99s0.44-0.99,0.99-0.99h46.64c0.55,0,0.99,0.44,0.99,0.99
				S207.84,120.68,207.29,120.68z"/>
		</g>
		<g>
			<path class="st8" d="M207.29,129.23h-46.64c-0.55,0-0.99-0.44-0.99-0.99s0.44-0.99,0.99-0.99h46.64c0.55,0,0.99,0.44,0.99,0.99
				S207.84,129.23,207.29,129.23z"/>
		</g>
		<g>
			<path class="st8" d="M207.29,137.79h-46.64c-0.55,0-0.99-0.44-0.99-0.99s0.44-0.99,0.99-0.99h46.64c0.55,0,0.99,0.44,0.99,0.99
				S207.84,137.79,207.29,137.79z"/>
		</g>
	</g>
	<g>
		<g>
			<path class="st7" d="M134.41,193.87c-3.73,0-7.25-1.45-9.9-4.08c-2.66-2.64-4.14-6.17-4.15-9.92c-0.03-7.75,6.25-14.07,14-14.1
				c0.02,0,0.03,0,0.05,0c3.91,0,7.66,1.64,10.32,4.51l-0.84,0.77c-2.44-2.64-5.89-4.15-9.48-4.15c-0.02,0-0.03,0-0.05,0
				c-7.12,0.03-12.89,5.84-12.86,12.96c0.01,3.45,1.37,6.69,3.81,9.12c2.44,2.42,5.66,3.75,9.09,3.75c0.02,0,0.03,0,0.05,0
				c3.45-0.01,6.69-1.37,9.12-3.81c2.43-2.45,3.76-5.69,3.75-9.14c0-1.02-0.13-2.04-0.37-3.03l1.11-0.27c0.26,1.07,0.4,2.18,0.4,3.3
				c0.03,7.75-6.25,14.07-14,14.1C134.44,193.87,134.43,193.87,134.41,193.87z"/>
		</g>
		<g>
			<path class="st7" d="M131.87,187.4c-0.01,0-0.02,0-0.04,0c-0.28-0.01-0.54-0.13-0.72-0.34l-6.51-7.37
				c-0.37-0.42-0.33-1.05,0.09-1.42c0.42-0.37,1.05-0.33,1.42,0.09l5.81,6.57l16.32-16.06c0.4-0.39,1.03-0.38,1.42,0.01
				c0.39,0.4,0.38,1.03-0.01,1.42l-17.07,16.8C132.39,187.3,132.13,187.4,131.87,187.4z"/>
		</g>
	</g>
	<g>
		<g>
			<path class="st8" d="M207.29,172.17h-46.64c-0.55,0-0.99-0.44-0.99-0.99s0.44-0.99,0.99-0.99h46.64c0.55,0,0.99,0.44,0.99,0.99
				S207.84,172.17,207.29,172.17z"/>
		</g>
		<g>
			<path class="st8" d="M207.29,180.72h-46.64c-0.55,0-0.99-0.44-0.99-0.99s0.44-0.99,0.99-0.99h46.64c0.55,0,0.99,0.44,0.99,0.99
				S207.84,180.72,207.29,180.72z"/>
		</g>
		<g>
			<path class="st8" d="M207.29,189.27h-46.64c-0.55,0-0.99-0.44-0.99-0.99s0.44-0.99,0.99-0.99h46.64c0.55,0,0.99,0.44,0.99,0.99
				S207.84,189.27,207.29,189.27z"/>
		</g>
	</g>
	<g>
		<g>
			<path class="st7" d="M134.41,245.36c-3.73,0-7.25-1.45-9.9-4.08c-2.66-2.64-4.14-6.17-4.15-9.92c-0.03-7.75,6.25-14.07,14-14.1
				c0.02,0,0.03,0,0.05,0c3.91,0,7.66,1.64,10.32,4.51l-0.84,0.77c-2.44-2.64-5.89-4.15-9.48-4.15c-0.02,0-0.03,0-0.05,0
				c-7.12,0.03-12.89,5.84-12.86,12.96c0.01,3.45,1.37,6.69,3.81,9.12c2.44,2.42,5.66,3.75,9.09,3.75c0.02,0,0.03,0,0.05,0
				c3.45-0.01,6.69-1.37,9.12-3.81c2.43-2.45,3.76-5.69,3.75-9.14c0-1.02-0.13-2.04-0.37-3.03l1.11-0.27c0.26,1.07,0.4,2.18,0.4,3.3
				c0.03,7.75-6.25,14.07-14,14.1C134.44,245.36,134.43,245.36,134.41,245.36z"/>
		</g>
		<g>
			<path class="st7" d="M131.87,238.89c-0.01,0-0.02,0-0.04,0c-0.28-0.01-0.54-0.13-0.72-0.34l-6.51-7.37
				c-0.37-0.42-0.33-1.05,0.09-1.42c0.42-0.37,1.05-0.33,1.42,0.09l5.81,6.57l16.32-16.06c0.4-0.39,1.03-0.38,1.42,0.01
				c0.39,0.4,0.38,1.03-0.01,1.42l-17.07,16.8C132.39,238.78,132.13,238.89,131.87,238.89z"/>
		</g>
	</g>
	<g>
		<g>
			<path class="st8" d="M207.29,223.66h-46.64c-0.55,0-0.99-0.44-0.99-0.99s0.44-0.99,0.99-0.99h46.64c0.55,0,0.99,0.44,0.99,0.99
				S207.84,223.66,207.29,223.66z"/>
		</g>
		<g>
			<path class="st8" d="M207.29,232.21h-46.64c-0.55,0-0.99-0.44-0.99-0.99s0.44-0.99,0.99-0.99h46.64c0.55,0,0.99,0.44,0.99,0.99
				S207.84,232.21,207.29,232.21z"/>
		</g>
		<g>
			<path class="st8" d="M207.29,240.76h-46.64c-0.55,0-0.99-0.44-0.99-0.99s0.44-0.99,0.99-0.99h46.64c0.55,0,0.99,0.44,0.99,0.99
				S207.84,240.76,207.29,240.76z"/>
		</g>
	</g>
</g>
<g>
	<g>
		<g transform="matrix(1.0171,0,0,1.0171,-1775.94,296.447)">
			<path class="st6" d="M1822.5-107.85c6.82-8.59,16.4-11.46,15.67-36.57c-0.27-9.47-20.64-4.49-22.71-1.48
				c-3.26,4.74-15.41,29.93-23.63,46.25c-3.55,7.05-7.46,14.32-1.73,22.22c5.19,7.16,18.88,3.65,16.79-3.16
				C1805.68-84.55,1816.4-100.16,1822.5-107.85z"/>
		</g>
		<g>
			<path class="st9" d="M75.1,268.52c-3.32-5.58-2.84-5.19-10.49-17.95c-0.75-1.26,6.93-7.17,7.78-5.77
				c2.73,4.52,8.57,15.27,11.46,20.28c2.62,4.54,8.02,6.51,6.65,9.19c-1.34,2.63-5.99,3.75-11.35,7.7c-6.81,5.01-4.31,3.76-6.1,4.5
				c-3.83,1.6-3.82-0.32-3.28-1.12c2.48-3.68,3.38-4.91,5.85-9.71C77.11,272.75,76.96,271.65,75.1,268.52z"/>
			<path class="st6" d="M60.04,207.24c0.89,1.71,8.48,17.51,10.85,22.91c5.19,11.8,10.01,23.99,13.01,30.07l-11.17,6.52
				c-4.45-8.86-13.49-19.91-29.77-51.85c-3.63-7.13,1.02-12.69,5.48-14.38C52.92,198.81,56.85,201.1,60.04,207.24z"/>
			<path class="st6" d="M75.67,274.78c0.46-0.78,1.26-1,1.96-1.22c0.08-0.02,1.25-0.2,1.68-0.24c1.37-0.12,1.69,0.25,2.43,0.04
				c2.19-0.62,3.13-2.35,4.87-5.14c0.35-0.56,4.52,3.38,4.77,4.63c0.11,0.55-1.29,3.05-3.87,4.81c-0.5,0.34-1.27,0.12-1.78,0.46
				c-2.12,1.42-3.92,3.95-4.92,4.72c-1.33,1.02-3.86,4.15-5.21,4.59c-1.63,0.53-8.61,1.14-9.31,1.41c-1.04,0.4-3.66-4.62-0.15-5.84
				C72.05,280.95,74.75,276.34,75.67,274.78z"/>
		</g>
		<path class="st9" d="M83.36,275.11c0.6-6.74-2.88-13.97-2.68-30.43c0.02-1.53,11.8,0.05,11.66,1.75
			c-0.45,5.49,1.14,22.28,0.9,29.75c-0.18,5.46,1.88,9.45-0.9,10.89c-2.73,1.41-5.77,0.48-12.7,0.55
			c-8.81,0.09-9.07,0.47-11.04,0.01c-4.21-0.99-2.14-2.87,2.86-5.42C74.47,280.65,83.03,278.89,83.36,275.11z"/>
		<path class="st6" d="M78.33,278.97c2.11-1.11,3.79-0.46,5.22-0.2c1.66,0.3,2.54,1.49,3.42,1.61c2.8,0.37,5.22,0.2,6.48-0.18
			c0.72-0.22,1.11,6.95,0.6,8.5c-0.22,0.67-2.87,0.7-6.38,0.82c-0.68,0.02-2.22-0.42-2.91-0.4c-2.87,0.07-3.01-0.04-4.42,0.1
			c-1.88,0.18-2.96,0.09-7.23,0.1c-3.62,0.01-8.8,0.28-9.63,0.1c-1.73-0.38-2.15-4.44-1.36-4.82c1.58-0.76,4.97-1.71,7.84-2.56
			C73.92,280.86,77.68,279.38,78.33,278.97z"/>
		<path class="st6" d="M93.01,194.34c0.54,2.33-0.72,20.16-0.15,23.96c0.79,5.21,0.9,17.03,1.05,37.97
			c0.04,5.89,0.96,11.46,0.92,15.48c0,0-11,1-13.27,0.8c-0.93-9.06-3.15-30.91-4.94-42.6c-0.73-4.78-2.3-16.18-3.04-20.1
			c-0.92-4.83,1.86-19.53,5.43-19.89C84.05,189.44,91.73,188.78,93.01,194.34z"/>
		<path class="st9" d="M46.25,112.5c-1.24-1.33-4.12-3.47-4.62-3.7c-1.58-0.73-3.92-2.57-5.69-3.48c-1.79-1.65-1.42-4-3.22-3.68
			c-0.93,0.16,0.82,3.58,1.57,4.6c1.5,1.29,2.12,1.75,2.61,2.09c-0.26-0.13-0.63-1.2-1.83-2.23c-0.9-1.25-1.89-4.68-3.15-3.5
			c-0.59,0.55,1.14,4.05,2,4.92c0.04,0.04,1.25,1.72,1.41,1.86c0.33,0.31-0.06-0.56-0.73-1.18c-0.5-0.47-0.35-1.37-0.71-1.69
			c-0.85-0.97-1,1.07-0.69,1.71c0.25,0.54,1.16,2.63,2.42,4.05c0.65,0.73,1.89,1.64,3.07,2.58c1.01,0.8,7.29,2.92,7.29,2.92
			l4.15-1.73L46.25,112.5z"/>
		<path class="st6" d="M96.41,136.12c0.23,1.9,2.69,9.53,1.21,33.35c-0.29,4.73-3.31,20.7-3.84,26.21
			c-1.21,12.46-2.12,17.53-2.11,22.3c0,0-7.2,3.4-9.54,4.02c-8.44,2.21-6.32-1.63-7.94-4.92c-1.83-3.73-3.14-26.35-3.49-33.14
			c-0.1-1.88-2.24-9.7-2.41-12.06c-0.26-3.64-0.59-7.83-0.8-11.65c-0.39-6.9-1.35-13.87-0.4-16.07
			C69.98,137.38,95.84,131.28,96.41,136.12z"/>
		<g transform="matrix(1.0171,0,0,1.0171,-1792.99,202.376)">
			<path class="st9" d="M1843.82-144.36c3.76,18.01,10.34,21.4,10.84,32.71c0.03,0.68-13.13,20.33-15.36,19.86
				c-2.83-0.61-8.87-7.43-7.36-10.09c0-7.51,4.97-14.6,4.51-20.68c-0.15-1.93-4.25-9.64-4.8-12.31
				C1832.49-136.44,1843.97-145.95,1843.82-144.36z"/>
		</g>
		<path class="st10" d="M65.45,129.69c1.21-29.33,5.12-36.41,7.23-41.99c2.61-1.21,3.82-3.19,6.09-5.46
			c2.01-2.01,5.98-5.66,11.75-5.27c5.88,6.63,5.6,23.02,5.84,28.29c0.38,8.24,2.04,24.03,1.84,28.86
			c-0.16,3.92,0.8,14.06-2.01,14.47c-6.76,1.88-7.44,1.31-13.27,1.46c-1.73,0.04-4.21,0.17-8.47,0.45
			c-2.27,0.15-7.36,1.72-8.57-0.69c0.19-1.16,1.01-5.78,1.03-8.27C67.05,131.02,65.39,131.31,65.45,129.69z"/>
		<g transform="matrix(1.0171,0,0,1.0171,-1779.41,209.256)">
			<path class="st9" d="M1820.36-135.5c0,0,3.67,5.17,8.62-2.18c3.28-4.87-1.75-10.47-2.27-9.85c-1.54,1.84,0.6,1.2-0.01,2.9
				c-0.61,1.69-9.48,4.08-9.48,4.08S1820.48-141.03,1820.36-135.5z"/>
			<path class="st9" d="M1820.37-159.79c-2.57,0.68-11.61,4.96-12.51,7.77c-0.4,1.72,1.21,6.75,3.56,11.16
				c2.49,4.69,5.62,8.81,8.24,9.54c2.46,0.69,6.03-3.57,8.06-6.12c2.36-2.98,0.76-6,1.21-8.25c0.96-0.06,1.64-7.57,0.04-10.85
				C1827.08-160.41,1824.29-160.83,1820.37-159.79z"/>
		</g>
		<path class="st6" d="M76.5,52.16c0,0,0.91,4.29,0.74,7c1.26-0.08,2.26-2.33,2.26-2.33s-0.05,0.87,0.24-4.02
			C79.84,51.01,76.36,51.28,76.5,52.16z"/>
		<path class="st6" d="M82.99,45.17c0.9,1.82,0.75,1.28,1.29,3.32c0.59,2.24,0.69,3.99,0.65,5.52c-0.03,0.9-0.52,5.36-1.23,7.51
			c-0.33-0.48-1.71-2.08-2.39-2.72c-0.44-0.41-0.26-1.69-1.22-2.47c-1.32,0.52-2.55-4.54-2.55-4.54l-2.23-10.62
			c0,0,2.04-0.5,3.26-0.1C81.3,41.95,82.03,43.24,82.99,45.17z"/>
		<path class="st11" d="M89.32,130.75c-0.68,1.76-1.69,2.74-4.82,6.03c-2.75,2.88-7.31,6.33-13.11-1.36
			c-6.93-9.2,8.32-36.88,9.34-41.74c1.44-6.87,13.25-16.75,13.86-5.88C95.35,101.07,94.07,118.54,89.32,130.75z"/>
		<path class="st6" d="M45.18,113.8l-0.68,0.67c-0.24,0.23-0.61,0.23-0.84-0.01L26.81,97.19c-0.23-0.24-0.23-0.61,0.01-0.84
			l0.68-0.67c0.24-0.23,0.61-0.23,0.84,0.01l16.84,17.27C45.42,113.19,45.41,113.57,45.18,113.8z"/>
		<path class="st9" d="M79.53,90.22c-1.3,3.18-9.38,23.82-12.68,32.26c-1.78-1.07-4.28-2.28-8.64-4.85c-3-1.78-6.01-2.88-9.85-5.89
			l-4.82,4.39c5.49,6.57,21.47,23.49,26.3,21.98l0-0.16c0.1-0.01,0.2-0.01,0.31-0.02c7.7,1.16,21.61-33.93,22.34-42.88
			C93.21,86.23,84.12,79.01,79.53,90.22z"/>
		<path class="st9" d="M38.23,103.87c0.56,0,1.36,0.68,2.51,2.21c0.4,0.53,5.46,2.61,7.94,6.03c-1.22,1.87,2.46,6.92-6.35,3.5
			c-3.04-1.18-5.68-8.3-4.92-7.55c1.07,1.06,2.03,0.64,1.64-0.2C38.3,106.24,36.92,103.88,38.23,103.87z"/>
		<g transform="matrix(0.703904,0,0,0.703904,-705.712,-95.785)">
			<path class="st6" d="M1097.95,217.79c5.8-2.96,7.95-6.06,10.24-9.29c0.7,1.4,0.94,6.25,5.68,6.57c2.07-1.27,5.3-3.99,5.91-5.44
				c0.99,0-4.5-6.78-5.54-11.44c-0.95-4.26-5.37-4.72-10.96-4.29c-6.15,0.17-12.79,6.72-15.18,10.51
				c-4.65,9.8-0.04,19.41-1.04,22.86C1088.57,226.46,1092.26,220.7,1097.95,217.79z"/>
		</g>
		<path class="st9" d="M81.83,57.79c-0.4,1.68-1,3.29-2.22,3c-1.21-0.29-1.03-2.76-0.62-4.44c0.4-1.68,0.94-2.21,2.1-1.74
			C82.37,55.12,82.23,56.11,81.83,57.79z"/>
		<path class="st10" d="M87.15,118.84l-19.49-7.23c0.19,0.25,3.27-10.19,5.63-14.87c4.08-8.13,7.03-17.08,14.38-15.26
			C101.5,84.9,90.81,106.78,87.15,118.84z"/>
	</g>
	<g>
		<path class="st6" d="M240.97,277.78c0.61,1.54,0.79,3.12,1.44,4.95c0.51,1.44,0.24,3.02,0.09,4.03
			c-0.06,0.4-10.16,0.67-10.81,0.32c-0.33-0.17-0.94-2.82-0.22-4.91c0.72-2.11,1.23-3.82,1.36-4.16
			C234.81,272.91,240.06,275.51,240.97,277.78z"/>
		<path class="st9" d="M242.21,284.43c-0.71-0.89-0.46-2.48-0.93-4.28c-0.71-2.71-0.88-6.52-0.88-6.52l-0.01,0
			c0.26-2.46,2.01-19.93,1.5-32.67c-0.06-1.54,0.77-8.43,0.41-9.42c-1.92-5.32-9.74-4.32-12.14,0.31c-0.7,1.36,0.62,9.13,0.62,10.85
			c0.02,8.68,2.6,28.71,2.7,31.03c0,0.09,0.01,0.18,0.03,0.27c-0.09,2.28-0.92,4.74-1,6.44c-0.2,4.09-0.39,6.12-0.39,6.12
			S244.09,286.78,242.21,284.43z"/>
		<path class="st6" d="M232.38,281.04c-0.27,0.55-2.9,3.44-2.87,5.53c0.54,1.85,1.1,2.3,3.08,2.61c1.17,0.18,3.8,0.28,4.62,0.22
			c0.76-0.06,3.96-0.12,4.83-0.53c1.3-0.63,1.74-1.58,1.77-2.77c0.01-0.26-1.72-4.6-2.24-5.11c-0.23-0.22-1.77-1.46-4.64-1.46
			C234.14,279.53,232.65,280.51,232.38,281.04z"/>
		<path class="st6" d="M260.93,277.78c0.61,1.54,0.79,3.12,1.44,4.95c0.51,1.44,0.24,3.02,0.09,4.03
			c-0.06,0.4-10.16,0.67-10.81,0.32c-0.33-0.17-0.94-2.82-0.22-4.91c0.72-2.11,1.23-3.82,1.36-4.16
			C254.77,272.91,260.02,275.51,260.93,277.78z"/>
		<path class="st9" d="M262.17,284.43c-0.71-0.89-0.46-2.48-0.93-4.28c-0.71-2.71-0.88-6.52-0.88-6.52l0,0
			c0.26-2.46,2.01-19.93,1.5-32.67c-0.06-1.54,0.77-8.43,0.41-9.42c-1.92-5.32-8.72-4.49-11.12,0.15c-0.7,1.36-0.4,9.3-0.4,11.01
			c0.02,8.68,2.6,28.71,2.7,31.03c0,0.09,0.01,0.17,0.02,0.25c-0.09,2.28-0.92,4.75-1,6.46c-0.2,4.09-0.39,6.12-0.39,6.12
			S264.05,286.78,262.17,284.43z"/>
		<path class="st6" d="M252.34,281.04c-0.27,0.55-2.9,3.44-2.87,5.53c0.54,1.85,1.1,2.3,3.08,2.61c1.16,0.18,3.8,0.28,4.62,0.22
			c0.76-0.06,3.96-0.12,4.83-0.53c1.3-0.63,1.74-1.58,1.77-2.77c0.01-0.26-1.72-4.6-2.24-5.11c-0.23-0.22-1.77-1.46-4.64-1.46
			C254.1,279.53,252.6,280.51,252.34,281.04z"/>
		<path class="st6" d="M247.03,122.08c0,0-17.67-5.2-19.5-3.38c-1.05,1.05,3.2,2.7,2.7,10.69c-0.07,1.05-4.41,12.63-4.87,20
			c-0.49,7.87-0.5,10.23,0.03,25.83c0.25,7.47,2.75,19.95,3.37,24.86c0.22,1.73,0.68,7.06,1.07,10.9
			c0.46,4.45-0.49,15.43-0.15,22.42c0.32,6.52,1,11.95,1.49,18.5l10.85-0.18c0.37-4.96,0.86-10.48,0.86-20.94
			c0-4.61,0.47-12.04,0.47-19.88c0-4.48,0.77-9.52,0.92-12.44c0.82-15.62,2.02-30.61,3.45-43.53
			C250.73,127.98,247.03,122.08,247.03,122.08z"/>
		<path class="st6" d="M246.07,122.08c0,0,14.17-0.75,16.01,1.07c0.96,0.96,3.92,4.22,4.93,10.65c0.19,1.21-0.78,4.76,0.6,13.66
			c1.19,7.68,0.13,11.1-0.3,27.52c-0.2,7.47-2.35,20.18-2.97,25.09c-0.22,1.73-0.68,7.06-1.07,10.9
			c-0.46,4.45,0.49,15.43,0.15,22.42c-0.32,6.52-0.99,11.95-1.49,18.5l-10.85-0.18c-0.37-4.96-0.86-10.48-0.86-20.94
			c0-4.61-0.47-12.04-0.47-19.88c0-4.48,0.15-8.6,0-11.52c-0.82-15.62-2.94-31.53-4.38-44.45
			C242.37,127.98,246.07,122.08,246.07,122.08z"/>
		<path class="st6" d="M228.94,85.98c0,0,3.75-10.78,5.13-17.28c1.38-6.5-0.87-16.57-0.31-17.51c0.56-0.94,18.3,8.61,14.45,19.46
			C244.35,81.49,229.26,82.02,228.94,85.98z"/>
		<g transform="matrix(0.968393,0.249428,-0.249428,0.968393,-416.638,-289.372)">
			<path class="st6" d="M737.15,159.46c1.11-0.24,3.44,7.97,6.32,10.8c2.69,2.65,0.25,5.35,5.15,10.02
				c2.97,2.83,2.56,8.79,3.42,11.52c0.36,1.13,5.58,8.88,4.52,8.37c-1.19-0.58-7.05-0.45-9.56-2.28c-4.4-3.22-9.6-8.86-11.64-11.42
				c-2.56-3.21,0.76-11.37-0.19-14.59C734.14,168.36,736.04,159.7,737.15,159.46z"/>
		</g>
		<g transform="matrix(1,0,0,1,-686.424,141.326)">
			<path class="st9" d="M937.53-80.18c0.44,1.8,0.45,10.42,1.54,12.71c0.67,1.4,0.19,1.65,3.58,3.43c1.84,0.97,4.24,0.81,8.01,2.44
				c0.57,0.25,6.13,4.31,6.85,9.62c-0.11,2.86-12.31,3.16-14.6,5.13c-2.29,1.97-14.24-0.06-16.73-1.64
				c-2.48-1.59-13.65-11.61-10.94-11.9c2.96-1.58,6.98-1.63,9.87-2.5c3.89-1.16,3.15-5.43,3.16-8.09c-0.79-7.75-1.48-3.9-0.19-5.17
				C929.38-77.4,937.02-82.25,937.53-80.18z"/>
		</g>
		<g transform="matrix(1,0,0,1,-686.424,141.326)">
			<path class="st9" d="M925.59-97.33c-3.04,1.86-4.95,7.26-4.93,11.08c0.03,3.82,2.52,9.78,4.32,13.2
				c1.91,3.63,5.24,4.75,7.82,5.31c2.35,0.51,7.53-3.08,8.17-9.98c0.14-1.52,0.2-5.04-0.67-6.41c-0.04-4.09,3.94-7.82,0.7-11.43
				C937.18-99.82,930.22-100.16,925.59-97.33z"/>
		</g>
		<g transform="matrix(1,0,0,1,-686.424,141.326)">
			<path class="st12" d="M947.58-62.87c-0.47,1.79-11.34,10.26-13.36,10.11c-1.94-0.15-14.72-6.86-14.52-9.29
				c-3.41,0.39-5.59,1.66-6.22,1.9c-0.17,2.73,1.28,17.5,0.77,23.71c-0.53,6.4-0.91,19.5-2.26,27.69
				c-1.02,6.21-1.82,7.82-1.16,10.89c0.89,4.15,17.93,2.6,23.11,2.01c3.58-0.41,16.76,1.8,20.29-0.6c5.34-0.7-3.12-32.15-2.76-37.31
				c0.21-3.04-2.27-12.36-1.92-15.23c0.87-7.11,3.91-10.81,3.47-11.49C951.39-61.64,949.57-62.38,947.58-62.87z"/>
		</g>
		<g transform="matrix(1,0,0,1,-686.424,141.326)">
			<path class="st6" d="M924.38-87.15c0.05,1.08-0.5,2.61-1.4,3.89c-0.52,0.74,1.48,7.07-2.44,7.68c0.93-4.98-2.01-7.86-0.35-14.55
				c2.56-7.25,7.66-9.11,12.62-9.73c2.96-0.37,10.16,3.13,11.5,6.94c1.32,3.76,1.46,12.03-1.67,14.13
				c-0.99,0.01-2.87-2.57-4.68-2.73C934.9-81.79,925.86-84.4,924.38-87.15z"/>
		</g>
		<path class="st6" d="M254.65,168.37c-1.92,4.62-1.84-1.54-6.76-1.54c-4.92,0-11.06,6.91-11.67-4.3c-0.27-5,5.52-16.28,10.44-16.28
			C251.59,146.26,261.41,152.1,254.65,168.37z"/>
		<g>
			<path class="st6" d="M249.34,130.79h-3.19c-2.23,0-4.05-1.82-4.05-4.05v-9.48c0-2.23,1.82-4.05,4.05-4.05h3.19
				c2.23,0,4.05,1.82,4.05,4.05v9.48C253.39,128.97,251.57,130.79,249.34,130.79z"/>
			<path class="st6" d="M249.34,130.79h-3.19c-2.23,0-4.05-1.82-4.05-4.05v-8.11c0-2.23,1.82-4.05,4.05-4.05h3.19
				c2.23,0,4.05,1.82,4.05,4.05v8.11C253.39,128.97,251.57,130.79,249.34,130.79z"/>
		</g>
		<path class="st9" d="M282.08,125.57c1.41-0.6,2.47-2.8,1.61-5.63c-1.52-5.66-11.15-26.51-13.08-28.57
			c-4.69-2.14-7.89,3.21-8.62,4.26c-0.37,0.53,7.42,16.71,11.85,25.52L282.08,125.57z"/>
		<path class="st9" d="M277.86,117.53c-5.67,2.06-14.03,6.73-18.08,6.83c-1.11-0.19-4.6-2.16-6.38-2.43c0,0.4-0.01,0.73-0.02,1.05
			c-0.93-0.05-1.72-0.28-3.15,0.22c-1.34,0.47-2.14,1.62-1.54,2.06c0.29,0.21,0.44-0.08,0.8-0.18c0.28-0.18,0.88-0.45,1.09-0.47
			c0.71-0.07,1.38,0.37,1.39,0.42c0.01,0.07-1.19-0.22-2.06,0.18c-0.88,0.41-1.35,0.88-1.16,1.39c0.17,0.44,0.49,0.5,0.75,0.27
			c0.18-0.16,0.76-0.36,1.07-0.4c0.77-0.1,1.65,0.01,1.26,0.07c-0.9,0.13-0.97,0.03-1.67,0.37c-1.19,0.57-1,1-0.9,1.24
			c0.13,0.3,0.49,0.35,0.8,0.23c0.26-0.1,0.54-0.25,0.75-0.32c0.52-0.17,0.92-0.16,1.02-0.12c0.08,0.04-0.29,0.07-0.92,0.37
			c-0.15,0.07-0.25,0.11-0.42,0.2c-0.54,0.3-0.3,0.59-0.18,0.77c0.23,0.36,0.87,0.1,1.24,0c0.54,0,0.49-0.08,0.89-0.05
			c0.8,0.07,1.88,0.72,2.71,0.82c1.51,0.18,2.71,0.54,5.11-0.06c10.37-0.01,20.62-3.21,22.62-5.03L277.86,117.53z"/>
		<path class="st9" d="M213.36,125.57c-1.41-0.6-2.47-2.8-1.61-5.63c1.52-5.66,11.15-26.51,13.08-28.57
			c4.69-2.14,7.89,3.21,8.62,4.26c0.37,0.53-7.42,16.71-11.85,25.52L213.36,125.57z"/>
		<path class="st9" d="M217.58,117.53c5.67,2.06,14.03,6.73,18.08,6.83c1.11-0.19,4.6-2.16,6.38-2.43c0,0.4,0.01,0.73,0.02,1.05
			c0.93-0.05,1.72-0.28,3.15,0.22c1.34,0.47,2.14,1.62,1.54,2.06c-0.29,0.21-0.44-0.08-0.8-0.18c-0.28-0.18-0.88-0.45-1.09-0.47
			c-0.71-0.07-1.38,0.37-1.39,0.42c-0.01,0.07,1.19-0.22,2.06,0.18c0.88,0.41,1.35,0.88,1.16,1.39c-0.17,0.44-0.49,0.5-0.75,0.27
			c-0.18-0.16-0.76-0.36-1.07-0.4c-0.77-0.1-1.65,0.01-1.26,0.07c0.9,0.13,0.97,0.03,1.67,0.37c1.19,0.57,1,1,0.9,1.24
			c-0.13,0.3-0.49,0.35-0.8,0.23c-0.26-0.1-0.54-0.25-0.75-0.32c-0.52-0.17-0.92-0.16-1.02-0.12c-0.08,0.04,0.29,0.07,0.92,0.37
			c0.15,0.07,0.25,0.11,0.42,0.2c0.54,0.3,0.3,0.59,0.18,0.77c-0.23,0.36-0.87,0.1-1.24,0c-0.54,0-0.49-0.08-0.89-0.05
			c-0.8,0.07-1.88,0.72-2.71,0.82c-1.51,0.18-2.71,0.54-5.11-0.06c-10.37-0.01-20.62-3.21-22.62-5.03L217.58,117.53z"/>
		<path class="st12" d="M283.58,107.18c-1.78-5.16-5.44-7.96-8.18-13.38c-1.51-2.98-2.16-4.96-3.28-6.76
			c-4.33-6.95-6.53-6.45-6.77-6.69c-1.14,0.4-12.08,14.83-6.86,20.17c0.93,3.02,0.73,4.21,9.28,18.63
			C269.9,117.9,281.53,107.87,283.58,107.18z"/>
		<path class="st12" d="M209.55,109.81c0.39-2.48,4.44-7.29,6.12-10.22c7.51-13.16,6.74-15.87,11.46-18.51
			c7.74-2.32,12.11,9.29,6.89,14.64c-1.36,2.32-5.28,15.59-8.29,22.22C219.53,116.7,210.86,110.67,209.55,109.81z"/>
	</g>
</g>
<path class="st13" d="M116.25,61.19c0.49,0.52,0.49,1.23,0.49,2.58v9.08c0,1.37,0,2.05-0.49,2.55c-0.27,0.29-0.74,0.6-1.37,0.6
	c-0.51,0-1.02-0.2-1.39-0.58c-0.49-0.5-0.49-1.23-0.49-2.58v-9.08c0-1.37,0-2.06,0.49-2.56c0.27-0.27,0.74-0.6,1.37-0.6
	C115.37,60.61,115.88,60.82,116.25,61.19z M131.68,65.37c0,0.74-0.06,2.98-2.24,4.17c-1.15,0.63-2.8,0.61-3.66,0.61h-2.22v2.68
	c0,1.38,0,2.07-0.49,2.57c-0.29,0.3-0.74,0.6-1.38,0.6c-0.5,0-1.03-0.2-1.4-0.58c-0.49-0.5-0.49-1.24-0.49-2.59v-8.84
	c0-1.74,0-2.05,0.55-2.65c0.52-0.57,1.01-0.57,2.62-0.57h2.87c2.07,0,3.37,0.11,4.5,1.13C131.03,62.5,131.68,63.51,131.68,65.37z
	 M127.92,65.46c0-0.63-0.28-1.26-0.86-1.61c-0.33-0.21-0.78-0.3-2.12-0.3h-1.38v3.81h1.38c0.45,0,1.48,0,2.01-0.27
	C127.49,66.81,127.92,66.23,127.92,65.46z M142.23,72.17h-4.38v-8.23c0-1.36,0-2.07-0.49-2.59c-0.37-0.37-0.89-0.58-1.4-0.58
	c-0.64,0-1.11,0.33-1.38,0.6c-0.5,0.5-0.5,1.19-0.5,2.57v8.83c0,1.63,0,2.13,0.55,2.66c0.6,0.57,0.91,0.57,2.61,0.57h4.98
	c1.33,0,2.03,0,2.55-0.5c0.37-0.38,0.57-0.9,0.57-1.42c0-0.65-0.33-1.13-0.59-1.4C144.27,72.17,143.59,72.17,142.23,72.17z
	 M160.58,72.3c0.39,1.04,0.55,1.44,0.55,1.98c0,0.75-0.72,1.72-1.84,1.72c-1.29,0-1.61-0.89-2.13-2.43l-0.24-0.72h-5.5l-0.25,0.74
	c-0.49,1.52-0.77,2.41-2.08,2.41c-0.98,0-1.76-0.87-1.76-1.66c0-0.54,0.1-0.87,0.51-1.96l3.06-8.18c0.72-1.87,1-2.62,1.61-3.06
	c0.43-0.29,0.98-0.54,1.68-0.54c0.57,0,1.16,0.18,1.65,0.52c0.65,0.46,0.92,1.2,1.63,3.08L160.58,72.3z M155.99,69.99l-1.82-5.5
	l-1.8,5.5H155.99z M174.55,60.61c-0.59,0-1.15,0.39-1.39,0.64c-0.47,0.48-0.5,1.17-0.5,2.62v5.65l-4.18-6.63
	c-1.07-1.69-1.45-2.29-2.62-2.29c-0.75,0-1.43,0.25-1.68,0.47c-0.76,0.67-0.84,1.31-0.84,3.27v8.69c0,1.27,0.11,1.89,0.55,2.39
	c0.33,0.36,0.85,0.56,1.32,0.56c0.59,0,1.04-0.31,1.31-0.58c0.45-0.46,0.61-1.08,0.61-2.37v-6.24l4.35,6.86
	c1.1,1.73,1.47,2.33,2.68,2.33c0.77,0,1.24-0.33,1.51-0.56c0.75-0.69,0.75-1.24,0.75-3.24v-8.61c0-1.66-0.11-1.95-0.56-2.42
	C175.52,60.83,175.02,60.61,174.55,60.61z M197.17,64.29c0.25-0.05,0.51-0.15,0.79-0.28c0.46-0.22,0.85-0.5,1.18-0.83
	c0.31-0.31,0.46-0.62,0.46-0.92v-0.88c-0.07-0.19-0.28-0.35-0.62-0.47c-0.41-0.14-0.87-0.21-1.37-0.21c-0.48,0-0.86,0.07-1.15,0.2
	c-0.28,0.13-0.26,0.25-0.26,0.31c0,0.02,0,0.05-0.01,0.07v2.63c0,0.22,0.07,0.42,0.55,0.42C196.88,64.33,197.02,64.32,197.17,64.29z
	 M193.39,65.21c0.84,1.13,1.26,2.63,1.26,4.49c0,1.9-0.43,3.4-1.26,4.54c-0.84,1.13-1.94,1.69-3.3,1.69c-1.66,0-3.05-0.54-4.18-1.59
	l-0.39,1.07c-0.14,0.38-0.58,0.56-1.34,0.55c-0.76-0.01-1.14-0.26-1.14-0.73V59.57c0-0.48,0.38-0.93,1.13-1.33
	c0.76-0.38,1.33-0.45,1.69-0.19c0.11,0.09,0.18,0.22,0.18,0.4v6.42c1.14-0.9,2.49-1.36,4.05-1.36
	C191.45,63.5,192.55,64.08,193.39,65.21z M191.65,69.7c0-2.29-1-3.54-2.87-3.5c-0.98,0-1.89,0.39-2.75,1.18v4.61
	c0.84,0.85,1.76,1.27,2.75,1.27C190.68,73.3,191.65,72.05,191.65,69.7z M214.09,73.21h-6.38c1.66-2.54,3.95-4.89,6.87-7.07
	c0.34-0.22,0.48-0.69,0.4-1.4c-0.06-0.71-0.3-1.07-0.71-1.07h-9.71c-0.16,0-0.28,0.04-0.36,0.13c-0.26,0.27-0.19,0.73,0.2,1.39
	c0.45,0.7,0.93,1.06,1.44,1.06h5.08c-1.83,1.33-3.56,3.02-5.18,5.07c-1.57,0.83-2.94,1.3-4.69,1.58c-0.01,0-0.02,0-0.03,0
	c-0.01,0-0.02,0-0.03,0c-0.38-0.06-0.67-0.25-0.86-0.57c-0.22-0.37-0.32-0.91-0.32-1.66v-4.97c0-0.22-0.07-0.42-0.55-0.42
	c-0.36,0-0.77,0.11-1.22,0.33c-0.45,0.22-0.85,0.5-1.18,0.83c-0.3,0.31-0.46,0.62-0.46,0.92v3.89c-0.01,0-0.01,0-0.01,0l0.2,2.13
	c0.15,0.63,0.4,1.14,0.73,1.51c0.61,0.67,1.44,1.01,2.48,1.01c0.2,0,0.41-0.02,0.64-0.04c0,0,0.01,0,0.01,0
	c1.19-0.15,2.34-0.51,3.47-1.08c0,0.01,0,0.01,0,0.02c0.05,0.66,0.28,0.99,0.66,0.99h9.51c0.31,0,0.53-0.22,0.66-0.64
	c0.14-0.42,0.14-0.85,0-1.27C214.62,73.43,214.4,73.21,214.09,73.21z"/>
</svg>
