<?xml version="1.0" encoding="utf-8"?>
<!-- Generator: Adobe Illustrator 25.2.1, SVG Export Plug-In . SVG Version: 6.00 Build 0)  -->
<svg version="1.1" id="Layer_1" xmlns="http://www.w3.org/2000/svg" xmlns:xlink="http://www.w3.org/1999/xlink" x="0px" y="0px"
	 viewBox="0 0 460.66 74.29" style="enable-background:new 0 0 460.66 74.29;" xml:space="preserve">
<style type="text/css">
	.st0{fill:#E30046;}
	.st1{fill:#3A3232;}
	.st2{fill:#E2E3DD;}
	.st3{fill:#FFFFFF;}
	.st4{fill:#009BA5;}
	.st5{fill:#EB0045;}
	.st6{fill:#8F9090;}
	.st7{fill:#606060;}
	.st8{fill:#535352;}
	.st9{fill:#0099A8;}
	.st10{fill:#54565A;}
	.st11{fill:#ED3350;}
	.st12{fill:#00A8B6;}
	.st13{fill:#333740;}
	.st14{fill:#98989A;}
	.st15{fill:#868A8E;}
	.st16{fill:#5F6368;}
	.st17{fill:#4285F4;}
	.st18{fill:#EA4335;}
	.st19{fill:#FBBC04;}
	.st20{fill:#34A853;}
</style>
<g>
	<g>
		<path class="st16" d="M229.18,16.98h4.6l-9.15,34.29h-4.5l-7.38-22.61h-0.19l-7.38,22.61h-4.5l-9.53-34.29h4.6l7.23,26.97h0.19
			l7.42-22.37h4.12l7.42,22.37h0.19L229.18,16.98z"/>
		<path class="st16" d="M234.13,39.54c0-3.61,1.13-6.59,3.4-8.96c2.3-2.36,5.19-3.54,8.67-3.54c3.48,0,6.36,1.18,8.62,3.54
			c2.3,2.36,3.45,5.35,3.45,8.96c0,3.64-1.15,6.63-3.45,8.96c-2.27,2.36-5.14,3.54-8.62,3.54c-3.48,0-6.37-1.18-8.67-3.54
			C235.27,46.13,234.13,43.15,234.13,39.54z M238.54,39.54c0,2.52,0.73,4.57,2.2,6.13c1.47,1.57,3.29,2.35,5.46,2.35
			s3.99-0.78,5.46-2.35c1.47-1.56,2.2-3.61,2.2-6.13c0-2.49-0.74-4.52-2.2-6.08c-1.5-1.6-3.32-2.4-5.46-2.4s-3.96,0.8-5.46,2.4
			C239.27,35.02,238.54,37.05,238.54,39.54z"/>
		<path class="st16" d="M266.42,51.28h-4.41V27.81h4.22v3.83h0.19c0.45-1.25,1.36-2.31,2.75-3.19c1.39-0.88,2.75-1.32,4.1-1.32
			c1.28,0,2.36,0.19,3.26,0.57l-1.34,4.26c-0.54-0.22-1.41-0.34-2.59-0.34c-1.66,0-3.11,0.67-4.33,2.01
			c-1.23,1.34-1.84,2.91-1.84,4.69V51.28z"/>
		<path class="st16" d="M299.82,51.28h-5.32l-7.33-11.06l-3.59,3.54v7.52h-4.41V16.98h4.41V38.1l10.15-10.3h5.65V28l-9.15,9.1
			l9.58,13.99V51.28z"/>
		<path class="st16" d="M319.53,44.76c0,2.04-0.89,3.77-2.68,5.17c-1.79,1.4-4.04,2.11-6.75,2.11c-2.36,0-4.44-0.62-6.22-1.84
			c-1.79-1.23-3.07-2.85-3.83-4.86l3.93-1.68c0.57,1.41,1.41,2.5,2.51,3.28c1.1,0.78,2.31,1.17,3.62,1.17c1.41,0,2.58-0.3,3.52-0.91
			c0.94-0.61,1.41-1.32,1.41-2.16c0-1.5-1.15-2.6-3.45-3.3l-4.02-1c-4.57-1.15-6.85-3.35-6.85-6.61c0-2.14,0.87-3.86,2.61-5.15
			c1.74-1.29,3.97-1.94,6.68-1.94c2.08,0,3.95,0.49,5.63,1.48c1.68,0.99,2.85,2.31,3.52,3.98l-3.93,1.63
			c-0.45-0.99-1.17-1.76-2.18-2.32c-1.01-0.56-2.13-0.84-3.38-0.84c-1.15,0-2.18,0.29-3.09,0.86c-0.91,0.58-1.36,1.28-1.36,2.11
			c0,1.34,1.26,2.3,3.78,2.87l3.54,0.91C317.2,38.87,319.53,41.22,319.53,44.76z"/>
		<path class="st16" d="M335.44,52.04c-1.72,0-3.3-0.37-4.72-1.1c-1.42-0.73-2.52-1.71-3.28-2.92h-0.19l0.19,3.26v10.35h-4.41V27.81
			h4.22v3.26h0.19c0.77-1.21,1.86-2.19,3.28-2.92c1.42-0.73,2.99-1.1,4.72-1.1c3.1,0,5.72,1.21,7.86,3.64
			c2.2,2.46,3.3,5.41,3.3,8.86c0,3.48-1.1,6.43-3.3,8.86C341.16,50.83,338.54,52.04,335.44,52.04z M334.72,48.02
			c2.11,0,3.88-0.8,5.32-2.39c1.44-1.56,2.16-3.59,2.16-6.08c0-2.46-0.72-4.49-2.16-6.08c-1.44-1.6-3.21-2.4-5.32-2.4
			c-2.14,0-3.93,0.8-5.36,2.4c-1.41,1.6-2.11,3.62-2.11,6.08c0,2.49,0.7,4.53,2.11,6.13C330.79,47.24,332.58,48.02,334.72,48.02z"/>
		<path class="st16" d="M359.28,27.04c3.26,0,5.83,0.87,7.71,2.61c1.88,1.74,2.83,4.13,2.83,7.16v14.47h-4.22v-3.26h-0.19
			c-1.82,2.68-4.25,4.02-7.28,4.02c-2.59,0-4.75-0.77-6.49-2.3c-1.74-1.53-2.61-3.45-2.61-5.75c0-2.43,0.92-4.36,2.75-5.8
			c1.84-1.44,4.29-2.16,7.35-2.16c2.62,0,4.77,0.48,6.46,1.44v-1.01c0-1.53-0.61-2.83-1.82-3.9s-2.63-1.6-4.26-1.6
			c-2.46,0-4.41,1.04-5.84,3.11l-3.88-2.44C351.94,28.57,355.1,27.04,359.28,27.04z M353.58,44.09c0,1.15,0.49,2.11,1.46,2.87
			c0.97,0.77,2.11,1.15,3.42,1.15c1.85,0,3.5-0.69,4.96-2.06c1.45-1.37,2.18-2.99,2.18-4.84c-1.37-1.09-3.29-1.63-5.75-1.63
			c-1.79,0-3.28,0.43-4.48,1.29C354.18,41.74,353.58,42.81,353.58,44.09z"/>
		<path class="st16" d="M385.37,52.04c-3.48,0-6.37-1.18-8.67-3.54c-2.27-2.43-3.4-5.41-3.4-8.96c0-3.61,1.13-6.59,3.4-8.96
			c2.3-2.36,5.19-3.54,8.67-3.54c2.39,0,4.49,0.6,6.27,1.8s3.13,2.85,4.02,4.96l-4.02,1.68c-1.24-2.94-3.43-4.41-6.56-4.41
			c-2.01,0-3.75,0.81-5.22,2.44c-1.44,1.63-2.16,3.64-2.16,6.04c0,2.39,0.72,4.41,2.16,6.03c1.47,1.63,3.21,2.44,5.22,2.44
			c3.23,0,5.49-1.47,6.8-4.4l3.93,1.68c-0.86,2.11-2.21,3.76-4.05,4.96C389.92,51.44,387.79,52.04,385.37,52.04z"/>
		<path class="st16" d="M409.71,52.04c-3.45,0-6.29-1.18-8.52-3.54s-3.35-5.35-3.35-8.96c0-3.58,1.09-6.55,3.26-8.93
			c2.17-2.38,4.95-3.57,8.33-3.57c3.48,0,6.25,1.12,8.31,3.38c2.06,2.25,3.09,5.41,3.09,9.46l-0.05,0.48h-18.44
			c0.06,2.3,0.83,4.15,2.3,5.56c1.47,1.41,3.22,2.11,5.27,2.11c2.81,0,5.01-1.4,6.61-4.21l3.93,1.92c-1.05,1.98-2.52,3.53-4.38,4.65
			C414.19,51.48,412.07,52.04,409.71,52.04z M402.67,36.71h13.46c-0.13-1.63-0.79-2.98-1.99-4.05c-1.2-1.07-2.8-1.6-4.81-1.6
			c-1.66,0-3.09,0.51-4.29,1.53C403.84,33.62,403.05,34.99,402.67,36.71z"/>
	</g>
	<g id="_x37_5x24px_1_">
		<path class="st17" d="M42.83,52.03c-10.73,0-19.76-8.7-19.76-19.39c0-10.69,9.02-19.39,19.76-19.39c5.94,0,10.16,2.32,13.35,5.34
			l-3.75,3.73c-2.28-2.13-5.37-3.78-9.59-3.78c-7.84,0-13.96,6.29-13.96,14.09c0,7.8,6.13,14.09,13.96,14.09
			c5.08,0,7.98-2.03,9.83-3.88c1.52-1.51,2.52-3.69,2.9-6.67H42.83v-5.3h17.91c0.19,0.95,0.29,2.08,0.29,3.31
			c0,3.97-1.09,8.89-4.61,12.39C52.99,50.14,48.62,52.03,42.83,52.03z"/>
		<path class="st18" d="M88.71,39.55c0,7.19-5.55,12.48-12.36,12.48S64,46.74,64,39.55c0-7.23,5.55-12.48,12.36-12.48
			S88.71,32.31,88.71,39.55z M83.3,39.55c0-4.49-3.22-7.57-6.95-7.57s-6.95,3.07-6.95,7.57c0,4.44,3.22,7.57,6.95,7.57
			S83.3,43.99,83.3,39.55z"/>
		<path class="st19" d="M116.42,39.55c0,7.19-5.55,12.48-12.36,12.48c-6.81,0-12.36-5.3-12.36-12.48c0-7.23,5.55-12.48,12.36-12.48
			C110.87,27.07,116.42,32.31,116.42,39.55z M111.01,39.55c0-4.49-3.22-7.57-6.95-7.57c-3.73,0-6.95,3.07-6.95,7.57
			c0,4.44,3.22,7.57,6.95,7.57C107.79,47.11,111.01,43.99,111.01,39.55z"/>
		<path class="st17" d="M143.43,27.82v22.41c0,9.22-5.46,13-11.92,13c-6.08,0-9.74-4.07-11.11-7.38l4.8-1.99
			c0.86,2.03,2.95,4.44,6.32,4.44c4.13,0,6.7-2.55,6.7-7.33v-1.8h-0.19c-1.23,1.51-3.61,2.84-6.6,2.84
			c-6.27,0-12.02-5.44-12.02-12.44c0-7.04,5.75-12.53,12.02-12.53c2.99,0,5.37,1.32,6.6,2.79h0.19v-2.03H143.43z M138.58,39.6
			c0-4.4-2.95-7.61-6.7-7.61c-3.8,0-6.98,3.22-6.98,7.61c0,4.35,3.18,7.52,6.98,7.52C135.64,47.11,138.58,43.95,138.58,39.6z"/>
		<path class="st20" d="M153.08,14.58v36.69h-5.51V14.58H153.08z"/>
		<path class="st18" d="M174.74,43.66l4.27,2.84c-1.38,2.03-4.7,5.53-10.45,5.53c-7.12,0-12.27-5.48-12.27-12.48
			c0-7.42,5.19-12.48,11.65-12.48c6.51,0,9.69,5.15,10.73,7.94l0.57,1.42l-16.77,6.9c1.28,2.51,3.28,3.78,6.08,3.78
			C171.37,47.11,173.32,45.74,174.74,43.66z M161.58,39.17l11.21-4.63c-0.62-1.56-2.47-2.65-4.66-2.65
			C165.34,31.89,161.44,34.35,161.58,39.17z"/>
	</g>
</g>
</svg>
